<svg width="413" height="231" viewBox="0 0 413 231" fill="none" xmlns="http://www.w3.org/2000/svg">
<rect width="413" height="231" fill="#C1BBBB"/>
<rect width="410" height="226.238" transform="translate(2.13818 0.803711) rotate(0.537494)" fill="url(#paint0_linear)" fill-opacity="0.75"/>
<path d="M16.5402 101.137C19.7302 72.5221 52.452 52.6851 89.6264 56.8293L211.077 70.3686L206.055 115.422C203.767 135.949 180.293 150.18 153.624 147.207L13.1501 131.547L16.5402 101.137Z" fill="#474747"/>
<g filter="url(#filter0_d)">
<path d="M95.9573 83.5789C97.4694 88.6712 104.655 92.4665 106.951 93.7645C109.247 95.0626 105.524 86.5827 106.503 84.1963C107.481 81.8098 114.838 92.763 113.187 93.606C113.823 94.205 115.283 88.4922 113.859 83.8123C112.435 79.1326 98.0708 67.8428 95.4851 68.4237C95.4851 68.4237 94.4452 78.4866 95.9573 83.5789Z" fill="#F0DA13"/>
<path d="M118.866 79.1861C118.104 84.475 123.767 90.074 125.537 91.9448C127.308 93.8155 127.338 84.6787 129.43 82.6614C131.522 80.6442 134.104 93.143 132.022 93.4983C132.404 94.2458 136.505 89.1758 137.17 84.3058C137.835 79.436 128.2 64.6985 125.276 64.5474C125.276 64.5474 119.628 73.8973 118.866 79.1861Z" fill="#F01397"/>
<path d="M150.532 78.6343C145.153 82.3394 145.365 89.707 145.326 92.104C145.286 94.5009 153.403 87.415 157.1 86.961C160.796 86.5071 152.086 97.5973 149.871 96.7648C149.557 97.5488 157.791 95.7921 162.71 92.3609C167.63 88.9298 171.883 72.3439 169.346 70.6695C169.346 70.6695 155.911 74.9293 150.532 78.6343Z" fill="#2026B0"/>
<path d="M165.498 101.211C159.964 101.59 156.136 105.845 154.819 107.194C153.501 108.544 162.657 107.121 165.333 108.049C168.007 108.977 156.306 112.485 155.297 111.301C154.669 111.646 161.03 113.289 166.114 112.918C171.197 112.546 182.927 104.486 182.161 102.721C182.161 102.721 171.031 100.831 165.498 101.211Z" fill="#49A0DF"/>
<path d="M162.111 123.822C157.967 119.862 150.037 118.992 147.454 118.639C144.871 118.286 152.734 124.466 153.328 126.901C153.922 129.336 141.73 122.229 142.563 120.92C141.71 120.611 143.836 126.138 147.672 129.765C151.507 133.392 169.493 138.389 171.224 136.99C171.224 136.99 166.254 127.782 162.111 123.822Z" fill="#7CD110" fill-opacity="0.87"/>
<path d="M43.8385 96.5021L42.9736 104.915L43.9781 105.053L43.9276 105.545L38.5078 104.875L38.5584 104.382L39.5657 104.493L39.9679 100.582L35.3692 100.013L34.9672 103.924L35.9717 104.062L35.921 104.554L30.5013 103.884L30.5518 103.391L31.5593 103.502L32.4242 95.0893L31.4195 94.9507L31.4702 94.4583L36.89 95.1292L36.8394 95.6215L35.8319 95.5111L35.4228 99.4923L40.0213 100.061L40.4306 96.0804L39.4261 95.9417L39.4767 95.4493L44.8965 96.1202L44.8458 96.6126L43.8385 96.5021ZM49.5346 105.727L50.5391 105.865L50.4885 106.358L45.0688 105.687L45.1193 105.194L46.1267 105.305L46.9915 96.8925L45.987 96.7539L46.0376 96.2615L51.4575 96.9324L51.4067 97.4247L50.3994 97.3143L49.5346 105.727ZM58.7099 106.877L58.6592 107.369L52.2745 106.579L52.3252 106.086L53.3325 106.197L50.2663 101.643L55.1623 97.9039L54.1577 97.7652L54.2084 97.2728L59.0943 97.8777L59.0438 98.3701L57.9338 98.2469L53.0653 100.707L57.7054 106.738L58.7099 106.877ZM67.4632 100.424C67.4324 100.724 67.5271 101.016 67.7474 101.3C67.9678 101.583 68.2525 101.846 68.6019 102.089C68.9511 102.332 69.4325 102.638 70.0459 103.009C70.7639 103.439 71.3353 103.814 71.7598 104.133C72.1855 104.442 72.5369 104.799 72.8141 105.203C73.106 105.6 73.2287 106.024 73.1823 106.474C73.1314 106.971 72.8847 107.416 72.4424 107.807C72.0011 108.189 71.3697 108.467 70.548 108.641C69.7261 108.815 68.7541 108.832 67.6318 108.693C65.223 108.395 63.5798 107.527 62.7019 106.089L65.1475 105.152C65.7091 106.162 66.3556 107.154 67.0872 108.127L67.1077 108.13C67.5045 108.179 67.8812 108.154 68.2379 108.056C68.5955 107.948 68.8891 107.79 69.1184 107.581C69.3478 107.372 69.4759 107.136 69.503 106.873C69.5319 106.592 69.4353 106.319 69.2129 106.054C69.0054 105.781 68.7328 105.534 68.3953 105.312C68.0587 105.08 67.596 104.795 67.0071 104.456C66.3008 104.046 65.7345 103.691 65.3079 103.391C64.8813 103.091 64.5216 102.747 64.2287 102.36C63.9507 101.964 63.8352 101.537 63.8824 101.077C63.9354 100.562 64.1957 100.119 64.6635 99.7495C65.1457 99.3723 65.7963 99.111 66.6152 98.9654C67.4477 98.8215 68.4047 98.8164 69.4859 98.9503C70.5397 99.0807 71.3899 99.3047 72.0364 99.6222C72.6976 99.9319 73.2802 100.332 73.7842 100.821L71.4753 102.046C70.8349 101.131 70.1821 100.266 69.5173 99.4528C68.9014 99.3765 68.4104 99.4345 68.0442 99.6266C67.6925 99.8111 67.499 100.077 67.4632 100.424ZM86.6224 101.285L86.3417 104.014L85.5425 103.901L85.5739 103.193C84.2355 102.324 83.1178 101.668 82.2208 101.225L81.3532 109.665L82.9736 109.88L82.923 110.372L76.2715 109.549L76.322 109.057L77.9453 109.243L78.813 100.803C77.8486 101.016 76.6259 101.382 75.1449 101.902L75.0314 102.6L74.2294 102.515L74.5099 99.7859L86.6224 101.285ZM101.029 103.068L100.978 103.561L99.9708 103.45L99.054 112.369L98.3971 112.288L95.8908 110.781C95.3411 111.14 94.6972 111.403 93.9595 111.568C93.2218 111.733 92.4629 111.767 91.6828 111.67C90.2594 111.494 89.1894 111.048 88.473 110.333C87.7565 109.617 87.4653 108.608 87.5992 107.304L88.1459 101.987L87.1414 101.848L87.1919 101.356L92.6734 102.034L92.6227 102.527L91.6154 102.416L91.1049 107.382C91.0161 108.245 91.2097 108.924 91.6854 109.42C92.1621 109.906 92.8521 110.205 93.7554 110.317C94.5218 110.412 95.2104 110.388 95.821 110.245L96.5629 103.028L95.5584 102.89L95.6091 102.398L101.029 103.068ZM101.375 112.158L102.382 112.268L103.247 103.856L102.243 103.717L102.293 103.225L106.252 103.744L109.185 103.936C111.224 104.188 112.758 104.772 113.787 105.688C114.829 106.605 115.274 107.8 115.123 109.272C115.021 110.266 114.65 111.108 114.011 111.799C113.373 112.479 112.471 112.961 111.305 113.244C110.139 113.528 108.749 113.569 107.134 113.369L101.324 112.65L101.375 112.158ZM106.364 112.775C107.828 112.957 109 112.75 109.878 112.156C110.771 111.564 111.289 110.569 111.433 109.172C111.528 108.243 111.376 107.436 110.975 106.75C110.589 106.056 110.015 105.506 109.253 105.098C108.505 104.682 107.639 104.414 106.654 104.292L105.789 112.704L106.364 112.775ZM115.89 113.955L116.897 114.065L117.762 105.653L116.758 105.514L116.808 105.022L122.228 105.693L122.177 106.185L121.17 106.074L120.305 114.487L121.31 114.625L121.259 115.118L115.839 114.447L115.89 113.955ZM130.358 106.485C131.699 106.651 132.851 106.974 133.813 107.454C134.789 107.936 135.515 108.558 135.991 109.319C136.481 110.083 136.675 110.966 136.571 111.97C136.506 112.608 136.274 113.248 135.875 113.892C135.477 114.527 134.936 115.068 134.253 115.515C133.552 115.856 132.764 116.105 131.889 116.263C131.014 116.411 130.098 116.426 129.14 116.307C127.812 116.143 126.661 115.82 125.684 115.338C124.722 114.858 123.996 114.236 123.506 113.473C123.03 112.711 122.843 111.828 122.947 110.825C123.011 110.196 123.25 109.561 123.662 108.919C124.075 108.277 124.623 107.732 125.306 107.284C125.993 106.942 126.767 106.696 127.628 106.546C128.503 106.388 129.413 106.368 130.358 106.485ZM126.702 110.292C126.59 111.38 126.705 112.283 127.048 112.999C127.39 113.716 127.962 114.285 128.764 114.707C129.567 115.12 130.63 115.432 131.953 115.644C132.165 115.195 132.351 114.662 132.512 114.046C132.687 113.422 132.795 112.908 132.836 112.505C132.949 111.407 132.828 110.5 132.472 109.781C132.131 109.055 131.552 108.48 130.736 108.056C129.921 107.633 128.858 107.32 127.548 107.12C127.347 107.589 127.166 108.141 127.003 108.777C126.841 109.412 126.741 109.917 126.702 110.292Z" fill="#C9AFC8"/>
</g>
<rect width="154.383" height="136.308" rx="26" transform="matrix(0.969964 0.243247 -0.243487 0.969904 260.057 31.4446)" fill="#F2DA11"/>
<path d="M353.219 127.767C358.442 129.102 363.057 131.903 366.048 135.555C369.039 139.207 370.161 143.411 369.167 147.24C368.173 151.07 365.145 154.212 360.749 155.976C356.353 157.74 350.948 157.981 345.725 156.646L349.472 142.206L353.219 127.767Z" fill="#231919"/>
<path d="M285.937 110.894C280.702 109.606 275.31 109.898 270.949 111.706C266.587 113.515 263.613 116.691 262.68 120.536C261.747 124.38 262.932 128.58 265.974 132.209C269.017 135.838 273.667 138.601 278.902 139.889L282.42 125.391L285.937 110.894Z" fill="#231919"/>
<rect width="6.81547" height="41.3249" transform="matrix(-0.969964 -0.243247 -0.243488 0.969904 355.231 123.267)" fill="#231919"/>
<rect width="6.81547" height="41.3249" transform="matrix(0.969964 0.243247 -0.243487 0.969904 286.29 105.978)" fill="#231919"/>
<path d="M298.733 115.615C317.716 104.235 325.931 107.503 337.354 125.3L329.377 157.073C311.031 166.216 302.505 164.394 290.756 147.388L298.733 115.615Z" fill="#231919"/>
<ellipse rx="3.18536" ry="2.64286" transform="matrix(0.969964 0.243247 -0.243487 0.969904 308.891 156.913)" fill="#F2DA04"/>
<path d="M298.751 115.543L312.854 119.079C313.674 119.588 313.375 119.651 312.693 119.72C307.185 118.339 304.097 117.565 298.59 116.184" stroke="#F2DA00" stroke-width="7"/>
<path d="M296.177 125.796L310.279 129.333C311.099 129.841 310.801 129.905 310.119 129.974C304.611 128.592 301.523 127.818 296.016 126.437" stroke="#F2DA00" stroke-width="7"/>
<path d="M293.924 134.768L308.027 138.304C308.847 138.813 308.549 138.876 307.866 138.945C302.359 137.564 299.271 136.79 293.764 135.409" stroke="#F2DA00" stroke-width="7"/>
<path d="M291.511 144.38L305.614 147.917C306.434 148.425 306.136 148.489 305.453 148.558C299.946 147.177 296.858 146.402 291.35 145.021" stroke="#F2DA00" stroke-width="7"/>
<path d="M276.647 111.362C279.879 83.8227 295.657 66.6028 328.768 74.0524C361.879 81.5019 370.287 103.421 360.028 131.248" stroke="#231919" stroke-width="6"/>
<defs>
<filter id="filter0_d" x="26.5012" y="63.5474" width="159.695" height="80.6835" filterUnits="userSpaceOnUse" color-interpolation-filters="sRGB">
<feFlood flood-opacity="0" result="BackgroundImageFix"/>
<feColorMatrix in="SourceAlpha" type="matrix" values="0 0 0 0 0 0 0 0 0 0 0 0 0 0 0 0 0 0 127 0"/>
<feOffset dy="3"/>
<feGaussianBlur stdDeviation="2"/>
<feColorMatrix type="matrix" values="0 0 0 0 0.0125 0 0 0 0 0.0125 0 0 0 0 0.0125 0 0 0 0.25 0"/>
<feBlend mode="normal" in2="BackgroundImageFix" result="effect1_dropShadow"/>
<feBlend mode="normal" in="SourceGraphic" in2="effect1_dropShadow" result="shape"/>
</filter>
<linearGradient id="paint0_linear" x1="205.379" y1="17.2491" x2="315.38" y2="135.704" gradientUnits="userSpaceOnUse">
<stop stop-color="#DACACA"/>
<stop offset="1" stop-color="#010101"/>
</linearGradient>
</defs>
</svg>
