<svg width="493" height="639" viewBox="0 0 493 639" fill="none" xmlns="http://www.w3.org/2000/svg">
<g clip-path="url(#clip0)">
<rect x="0.67041" y="83.5671" width="375" height="569" transform="rotate(-12.7899 0.67041 83.5671)" fill="white"/>
<rect x="2.23374" y="84.9037" width="373" height="567" transform="rotate(-12.9998 2.23374 84.9037)" fill="white" stroke="#DDCFCF" stroke-width="2"/>
<path d="M82.7378 183.086L283.118 49.1868L315.01 96.9142L114.63 230.813L82.7378 183.086Z" fill="#6A5F5F" fill-opacity="0.95"/>
<path d="M178.235 127.931L179.129 129.268L180.036 143.412L185.943 139.465L186.969 141.001L179.087 146.268L178.194 144.931L177.287 130.788L171.5 134.655L170.473 133.118L178.235 127.931ZM185.013 127.876C186.197 127.085 187.289 126.817 188.287 127.074C189.29 127.308 190.179 128.004 190.952 129.161L192.926 132.114C193.699 133.272 194.006 134.365 193.848 135.395C193.693 136.402 193.024 137.302 191.84 138.093C190.656 138.884 189.563 139.163 188.56 138.928C187.561 138.672 186.675 137.965 185.901 136.808L183.928 133.855C183.155 132.697 182.845 131.615 182.999 130.607C183.158 129.578 183.829 128.667 185.013 127.876ZM185.96 129.293C185.388 129.675 185.062 130.152 184.983 130.725C184.904 131.298 185.086 131.916 185.531 132.582L187.691 135.814C188.135 136.479 188.637 136.885 189.197 137.031C189.756 137.177 190.322 137.058 190.894 136.676C191.466 136.294 191.791 135.816 191.871 135.244C191.95 134.671 191.767 134.053 191.323 133.387L189.149 130.135C188.705 129.47 188.207 129.071 187.657 128.938C187.098 128.792 186.532 128.911 185.96 129.293ZM194.026 121.853C195.21 121.062 196.302 120.795 197.3 121.051C198.304 121.285 199.192 121.981 199.965 123.138L201.939 126.091C202.712 127.249 203.02 128.342 202.861 129.372C202.707 130.38 202.038 131.279 200.854 132.07C199.67 132.861 198.576 133.14 197.573 132.906C196.574 132.649 195.688 131.942 194.915 130.785L192.941 127.832C192.168 126.674 191.858 125.592 192.012 124.584C192.171 123.555 192.842 122.644 194.026 121.853ZM194.973 123.27C194.401 123.652 194.075 124.13 193.996 124.702C193.917 125.275 194.1 125.894 194.544 126.559L196.704 129.791C197.149 130.457 197.651 130.862 198.21 131.008C198.769 131.154 199.335 131.036 199.907 130.653C200.479 130.271 200.805 129.794 200.884 129.221C200.963 128.649 200.78 128.03 200.336 127.365L198.162 124.112C197.718 123.447 197.221 123.048 196.67 122.915C196.111 122.77 195.545 122.888 194.973 123.27ZM209.086 111.79C209.937 111.221 210.785 111.078 211.628 111.361C212.463 111.631 213.236 112.298 213.947 113.362L218.387 120.007L216.691 121.141L212.411 114.735C211.522 113.405 210.652 113.024 209.8 113.593C209.428 113.842 209.14 114.246 208.936 114.806C208.746 115.356 208.673 115.982 208.718 116.683L213.239 123.448L211.543 124.581L207.262 118.175C206.373 116.845 205.503 116.464 204.652 117.033C204.279 117.282 203.991 117.686 203.788 118.246C203.597 118.796 203.525 119.422 203.57 120.123L208.09 126.888L206.394 128.021L199.887 118.283L201.483 117.217L202.457 118.673C202.438 117.897 202.557 117.211 202.814 116.616C203.071 116.021 203.445 115.559 203.938 115.23C204.55 114.821 205.168 114.639 205.794 114.682C206.411 114.713 207.013 114.965 207.599 115.439C207.558 114.601 207.668 113.873 207.929 113.256C208.182 112.625 208.567 112.137 209.086 111.79ZM172.334 180.849L165.06 170.18L168.554 181.412L166.458 182.813L157.417 175.287L164.492 186.09L162.835 187.196L154.221 174.046L156.735 172.366L166.503 180.589L162.622 168.432L165.136 166.752L173.99 179.742L172.334 180.849ZM172.915 166.028C174.032 165.282 175.088 165.019 176.082 165.24C177.076 165.46 177.96 166.15 178.734 167.307L180.107 169.362L174.979 172.789L175.765 173.967C176.219 174.645 176.707 175.031 177.231 175.123C177.759 175.194 178.376 174.993 179.081 174.522C179.773 174.06 180.566 173.376 181.462 172.469L182.488 173.919C181.402 174.972 180.593 175.676 180.061 176.032C178.744 176.912 177.602 177.262 176.634 177.081C175.68 176.891 174.803 176.197 174.003 175L171.909 171.867C171.136 170.71 170.824 169.639 170.974 168.653C171.137 167.659 171.784 166.784 172.915 166.028ZM173.861 167.445C173.343 167.792 173.041 168.234 172.958 168.771C172.865 169.295 173.023 169.862 173.432 170.474L174.072 171.432L177.504 169.139L176.904 168.241C176.477 167.602 175.993 167.223 175.452 167.104C174.924 166.976 174.393 167.09 173.861 167.445ZM180.403 161.371L182.997 159.637L183.931 161.034L181.337 162.768L185.15 168.475C185.488 168.98 185.832 169.279 186.183 169.372C186.538 169.443 186.935 169.331 187.374 169.038C187.933 168.665 188.434 168.234 188.877 167.745L189.864 169.135C189.385 169.686 188.906 170.121 188.427 170.441C187.363 171.153 186.429 171.44 185.626 171.303C184.827 171.144 184.072 170.533 183.361 169.468L179.641 163.901L178.244 164.834L177.31 163.438L178.707 162.504L177.293 159.697L178.67 158.777L180.403 161.371ZM186.747 157.132L189.341 155.398L190.274 156.795L187.68 158.529L191.494 164.236C191.832 164.741 192.176 165.04 192.527 165.133C192.882 165.204 193.279 165.093 193.718 164.799C194.276 164.426 194.777 163.995 195.221 163.506L196.207 164.896C195.729 165.447 195.25 165.883 194.771 166.203C193.707 166.914 192.773 167.201 191.969 167.064C191.171 166.905 190.415 166.294 189.704 165.23L185.984 159.662L184.587 160.596L183.654 159.199L185.051 158.265L183.636 155.458L185.013 154.538L186.747 157.132ZM192.791 153.093L199.298 162.831L197.602 163.964L191.095 154.226L192.791 153.093ZM189.306 149.735C189.665 149.495 189.991 149.393 190.284 149.428C190.59 149.454 190.841 149.614 191.037 149.906L191.424 150.485C191.619 150.778 191.67 151.071 191.578 151.364C191.489 151.634 191.265 151.89 190.906 152.13C190.56 152.361 190.239 152.47 189.941 152.457C189.648 152.422 189.404 152.258 189.209 151.965L188.822 151.387C188.626 151.094 188.568 150.806 188.648 150.521C188.741 150.228 188.96 149.966 189.306 149.735ZM199.268 148.418C200.119 147.85 200.967 147.707 201.81 147.99C202.658 148.251 203.438 148.913 204.149 149.977L208.589 156.622L206.893 157.756L202.613 151.35C201.724 150.02 200.847 149.644 199.982 150.222C199.596 150.479 199.302 150.888 199.098 151.447C198.895 152.007 198.816 152.637 198.861 153.338L203.381 160.103L201.685 161.236L195.178 151.498L196.774 150.431L197.748 151.888C197.742 151.103 197.861 150.417 198.105 149.831C198.361 149.236 198.749 148.765 199.268 148.418ZM207.516 142.907C208.101 142.516 208.691 142.247 209.286 142.1L212.372 139.98L213.372 141.476L211.709 142.53C212.255 142.857 212.702 143.281 213.048 143.8L213.342 144.239C213.991 145.21 214.216 146.195 214.017 147.193C213.81 148.179 213.167 149.031 212.09 149.751C211.398 150.214 210.788 150.525 210.26 150.685C210.127 151.12 210.163 151.491 210.368 151.797L210.448 151.917C210.59 152.129 210.763 152.245 210.967 152.262C211.163 152.266 211.462 152.153 211.866 151.922L214.986 150.154C215.633 149.799 216.281 149.703 216.929 149.866C217.581 150.007 218.112 150.384 218.521 150.996L219.014 151.734C219.397 152.306 219.595 152.848 219.609 153.358C219.622 153.868 219.386 154.421 218.898 155.016C218.424 155.602 217.622 156.273 216.491 157.029C216.065 157.313 215.528 157.605 214.881 157.903C214.247 158.192 213.621 158.436 213.005 158.637L212.011 157.02C213.524 156.606 214.712 156.11 215.577 155.532C216.296 155.052 216.797 154.65 217.08 154.326C217.386 154.006 217.534 153.724 217.525 153.48C217.529 153.227 217.416 152.928 217.185 152.582L217.078 152.422C216.874 152.116 216.627 151.934 216.339 151.877C216.064 151.811 215.769 151.873 215.454 152.064L212.327 153.865C211.662 154.252 211.056 154.397 210.51 154.3C209.964 154.202 209.509 153.881 209.145 153.336L208.878 152.937C208.682 152.644 208.565 152.309 208.524 151.932C208.497 151.546 208.559 151.149 208.709 150.74C208.314 150.639 207.935 150.43 207.57 150.116C207.211 149.779 206.84 149.324 206.457 148.752L206.164 148.313C205.533 147.369 205.323 146.422 205.535 145.472C205.738 144.509 206.399 143.654 207.516 142.907ZM208.463 144.324C207.904 144.697 207.569 145.132 207.459 145.63C207.353 146.104 207.478 146.608 207.833 147.14L208.273 147.799C208.602 148.291 208.887 148.63 209.127 148.816C209.371 148.98 209.637 149.033 209.925 148.975C210.205 148.904 210.571 148.717 211.023 148.415C211.635 148.006 211.996 147.553 212.107 147.056C212.217 146.558 212.09 146.037 211.726 145.492L211.326 144.893C210.952 144.334 210.548 143.902 210.113 143.596C209.909 143.637 209.649 143.723 209.334 143.857C209.033 143.981 208.742 144.137 208.463 144.324ZM220.05 134.878L226.557 144.616L224.861 145.749L218.354 136.011L220.05 134.878ZM216.565 131.52C216.925 131.28 217.251 131.177 217.544 131.213C217.85 131.239 218.101 131.398 218.296 131.691L218.683 132.27C218.879 132.562 218.93 132.855 218.837 133.148C218.749 133.419 218.525 133.674 218.166 133.914C217.82 134.146 217.498 134.255 217.201 134.242C216.908 134.206 216.664 134.043 216.468 133.75L216.081 133.171C215.886 132.879 215.828 132.59 215.907 132.306C216 132.013 216.22 131.751 216.565 131.52ZM226.527 130.203C227.379 129.634 228.226 129.491 229.07 129.774C229.918 130.035 230.697 130.698 231.408 131.762L235.849 138.407L234.152 139.54L229.872 133.135C228.983 131.805 228.106 131.428 227.242 132.006C226.856 132.264 226.561 132.673 226.358 133.232C226.154 133.791 226.075 134.421 226.12 135.123L230.64 141.887L228.944 143.021L222.437 133.283L224.034 132.216L225.007 133.673C225.002 132.887 225.121 132.201 225.364 131.615C225.621 131.021 226.009 130.55 226.527 130.203ZM238.767 122.371L242.261 134.122L240.046 135.602L230.545 127.865L232.341 126.664L240.336 133.618L236.971 123.571L238.767 122.371ZM241.653 120.442L248.16 130.18L246.464 131.314L239.957 121.576L241.653 120.442ZM238.168 117.084C238.527 116.844 238.853 116.742 239.146 116.777C239.452 116.803 239.703 116.963 239.899 117.256L240.286 117.834C240.481 118.127 240.533 118.42 240.44 118.713C240.351 118.984 240.127 119.239 239.768 119.479C239.422 119.71 239.101 119.819 238.803 119.806C238.51 119.771 238.266 119.607 238.071 119.314L237.684 118.736C237.488 118.443 237.43 118.155 237.51 117.871C237.603 117.578 237.822 117.316 238.168 117.084ZM246.035 117.514L248.629 115.78L249.563 117.177L246.969 118.911L250.782 124.618C251.12 125.123 251.464 125.422 251.815 125.515C252.17 125.586 252.567 125.474 253.006 125.181C253.565 124.808 254.066 124.377 254.509 123.888L255.496 125.278C255.017 125.829 254.538 126.264 254.059 126.584C252.995 127.296 252.061 127.583 251.258 127.446C250.459 127.287 249.704 126.676 248.993 125.611L245.273 120.044L243.876 120.977L242.942 119.581L244.339 118.647L242.925 115.84L244.302 114.92L246.035 117.514ZM253.416 112.235C254.533 111.489 255.589 111.226 256.584 111.447C257.578 111.667 258.462 112.356 259.235 113.514L260.609 115.569L255.48 118.996L256.267 120.173C256.72 120.852 257.209 121.237 257.733 121.33C258.261 121.401 258.877 121.2 259.582 120.729C260.274 120.267 261.068 119.583 261.963 118.676L262.99 120.126C261.904 121.179 261.095 121.883 260.562 122.239C259.245 123.119 258.103 123.469 257.136 123.288C256.181 123.098 255.304 122.404 254.504 121.207L252.411 118.074C251.637 116.917 251.325 115.845 251.475 114.86C251.638 113.866 252.285 112.991 253.416 112.235ZM254.363 113.652C253.844 113.999 253.543 114.441 253.459 114.978C253.366 115.502 253.524 116.069 253.933 116.681L254.573 117.639L258.006 115.346L257.406 114.448C256.979 113.809 256.495 113.43 255.953 113.311C255.425 113.183 254.895 113.297 254.363 113.652Z" fill="white"/>
<path d="M25.686 193.763L217.715 222.06L391.382 110.747L492.33 555.433L303.143 598.38L126.634 638.449L25.686 193.763Z" fill="#09A9EE" fill-opacity="0.69"/>
<path d="M212.901 268.164L210.67 258.74L210.103 267.544L208.26 267.963L203.947 260.267L206.003 269.73L204.546 270.061L202.041 258.54L204.253 258.038L208.887 266.418L209.431 256.862L211.643 256.36L214.358 267.834L212.901 268.164ZM217.636 257.861C218.619 257.637 219.429 257.737 220.066 258.158C220.703 258.579 221.137 259.299 221.368 260.317L221.779 262.125L217.267 263.149L217.503 264.185C217.638 264.782 217.877 265.183 218.219 265.388C218.57 265.579 219.055 265.604 219.675 265.464C220.284 265.325 221.023 265.059 221.894 264.665L222.224 265.956C221.181 266.402 220.425 266.678 219.957 266.784C218.798 267.047 217.904 266.985 217.275 266.599C216.658 266.21 216.23 265.489 215.991 264.436L215.365 261.68C215.134 260.662 215.203 259.828 215.572 259.178C215.953 258.526 216.641 258.086 217.636 257.861ZM217.919 259.107C217.462 259.21 217.133 259.439 216.93 259.793C216.725 260.135 216.683 260.575 216.805 261.113L216.996 261.956L220.016 261.27L219.836 260.48C219.709 259.919 219.471 259.523 219.124 259.295C218.789 259.063 218.387 259.001 217.919 259.107ZM230.911 254.847C231.66 254.677 232.292 254.804 232.806 255.229C233.318 255.642 233.681 256.316 233.893 257.252L235.22 263.098L233.728 263.436L232.449 257.802C232.183 256.632 231.676 256.131 230.927 256.301C230.599 256.376 230.289 256.582 229.997 256.919C229.716 257.253 229.497 257.672 229.341 258.175L230.691 264.126L229.199 264.464L227.92 258.83C227.655 257.66 227.147 257.159 226.398 257.33C226.071 257.404 225.761 257.61 225.468 257.947C225.187 258.281 224.968 258.7 224.812 259.203L226.163 265.154L224.671 265.493L222.726 256.926L224.13 256.608L224.421 257.889C224.617 257.34 224.884 256.892 225.223 256.544C225.563 256.196 225.949 255.973 226.382 255.875C226.92 255.753 227.403 255.791 227.829 255.989C228.253 256.176 228.607 256.514 228.89 257.004C229.087 256.405 229.359 255.925 229.707 255.563C230.053 255.189 230.454 254.951 230.911 254.847ZM237.4 254.795C237.606 254.293 237.881 253.88 238.226 253.555C238.571 253.231 238.96 253.02 239.393 252.921C240.118 252.757 240.738 252.887 241.253 253.311C241.765 253.724 242.132 254.416 242.352 255.388L242.982 258.161C243.223 259.226 243.155 260.09 242.777 260.755C242.396 261.407 241.679 261.853 240.626 262.092C239.596 262.326 238.781 262.234 238.182 261.816C237.582 261.399 237.161 260.651 236.916 259.575L234.872 250.57L236.364 250.231L237.4 254.795ZM239.345 254.335C239.005 254.412 238.689 254.619 238.397 254.957C238.104 255.294 237.879 255.714 237.723 256.217L238.448 259.412C238.578 259.985 238.807 260.395 239.133 260.64C239.471 260.884 239.874 260.952 240.343 260.846C241.407 260.604 241.803 259.881 241.53 258.675L240.908 255.937C240.626 254.696 240.105 254.163 239.345 254.335ZM246.76 251.249C247.743 251.026 248.553 251.125 249.19 251.546C249.827 251.968 250.261 252.688 250.492 253.706L250.903 255.514L246.392 256.538L246.627 257.573C246.762 258.17 247.001 258.571 247.343 258.777C247.694 258.968 248.179 258.993 248.8 258.852C249.408 258.714 250.148 258.448 251.018 258.053L251.348 259.344C250.305 259.79 249.549 260.066 249.081 260.173C247.922 260.436 247.029 260.374 246.4 259.988C245.782 259.599 245.354 258.878 245.115 257.824L244.489 255.069C244.258 254.05 244.327 253.216 244.696 252.567C245.077 251.914 245.765 251.475 246.76 251.249ZM247.043 252.495C246.586 252.599 246.257 252.828 246.054 253.181C245.849 253.523 245.807 253.963 245.929 254.502L246.121 255.344L249.14 254.659L248.961 253.869C248.833 253.307 248.596 252.912 248.248 252.683C247.913 252.452 247.511 252.389 247.043 252.495ZM255.541 249.256C255.705 249.218 255.837 249.201 255.935 249.203L256.318 250.888C256.134 250.893 255.902 250.927 255.621 250.991C254.802 251.177 254.246 251.734 253.952 252.662L255.287 258.542L253.795 258.881L251.85 250.315L253.255 249.996L253.545 251.278C253.752 250.726 254.02 250.278 254.348 249.933C254.687 249.585 255.085 249.359 255.541 249.256ZM260.191 248.2C260.683 248.088 261.289 248.025 262.012 248.008L262.264 249.28C261.623 249.278 261.051 249.334 260.548 249.448C259.495 249.687 259.045 250.146 259.199 250.825L259.235 250.983C259.283 251.193 259.374 251.351 259.509 251.456C259.655 251.558 259.89 251.646 260.215 251.72L262.04 252.118C263.141 252.36 263.794 252.932 263.999 253.833L264.086 254.219C264.258 255.029 264.15 255.694 263.763 256.212C263.386 256.716 262.688 257.084 261.67 257.315C261.143 257.434 260.36 257.483 259.321 257.46L259.089 256.11C260.025 256.169 260.774 256.134 261.336 256.006C261.909 255.876 262.29 255.71 262.477 255.507C262.663 255.293 262.714 255.004 262.632 254.642L262.592 254.466C262.528 254.185 262.419 253.976 262.265 253.839C262.122 253.699 261.909 253.6 261.625 253.541L259.751 253.173C259.183 253.056 258.739 252.861 258.419 252.589C258.11 252.315 257.907 251.961 257.809 251.528L257.753 251.282C257.596 250.481 257.706 249.829 258.084 249.324C258.47 248.806 259.173 248.431 260.191 248.2ZM211.909 296.263L214.304 306.813L212.812 307.151L210.744 298.041L210.709 298.049L208.601 299.58L208.012 298.366L210.593 296.562L211.909 296.263ZM217.122 304.143C217.789 303.991 218.185 304.19 218.31 304.74L218.426 305.249C218.484 305.507 218.441 305.726 218.298 305.906C218.166 306.084 217.936 306.21 217.608 306.284C217.292 306.356 217.031 306.341 216.823 306.241C216.628 306.138 216.501 305.957 216.442 305.7L216.327 305.191C216.265 304.922 216.301 304.698 216.433 304.521C216.577 304.34 216.806 304.214 217.122 304.143ZM232.411 302.702L226.416 293.856L228.62 303.563L227.145 303.898L224.535 292.4L226.923 291.858L232.847 300.72L230.644 291.013L232.118 290.679L234.728 302.176L232.411 302.702ZM237.897 292.228C238.904 291.999 239.687 292.062 240.247 292.414C240.816 292.753 241.212 293.413 241.435 294.396L242.786 300.347L241.364 300.67L241.053 299.301C240.614 300.508 239.967 301.209 239.112 301.402C238.434 301.557 237.836 301.446 237.321 301.071C236.816 300.693 236.473 300.1 236.289 299.293L236.178 298.802C236.018 298.099 236.127 297.466 236.503 296.9C236.877 296.323 237.467 295.943 238.275 295.76C238.719 295.659 239.339 295.598 240.134 295.578L239.915 294.612C239.801 294.109 239.602 293.773 239.317 293.604C239.044 293.432 238.668 293.4 238.188 293.509C237.626 293.637 236.856 293.904 235.878 294.31L235.587 293.029C236.647 292.604 237.417 292.337 237.897 292.228ZM238.906 296.835C238.415 296.946 238.069 297.16 237.87 297.476C237.671 297.792 237.625 298.184 237.731 298.652L237.775 298.845C237.873 299.278 238.05 299.595 238.305 299.795C238.559 299.996 238.839 300.062 239.143 299.993C239.459 299.921 239.75 299.713 240.017 299.37C240.292 299.012 240.514 298.549 240.68 297.982L240.373 296.631C239.91 296.65 239.421 296.718 238.906 296.835ZM245.976 290.394C246.491 290.277 246.976 290.247 247.432 290.303L250.162 289.647L250.461 290.963L249.014 291.255C249.308 291.631 249.507 292.047 249.611 292.504L249.698 292.89C249.892 293.744 249.786 294.494 249.379 295.14C248.969 295.775 248.29 296.2 247.342 296.415C246.734 296.553 246.223 296.607 245.811 296.578C245.601 296.847 245.527 297.116 245.588 297.385L245.612 297.491C245.654 297.678 245.745 297.805 245.883 297.872C246.018 297.927 246.259 297.928 246.603 297.875L249.263 297.474C249.811 297.399 250.291 297.505 250.701 297.793C251.12 298.067 251.391 298.474 251.513 299.012L251.66 299.661C251.774 300.165 251.768 300.597 251.641 300.958C251.514 301.319 251.199 301.643 250.698 301.929C250.209 302.212 249.467 302.467 248.472 302.692C248.098 302.777 247.644 302.837 247.11 302.872C246.588 302.905 246.085 302.908 245.599 302.883L245.337 301.484C246.508 301.6 247.473 301.572 248.234 301.399C248.866 301.256 249.325 301.108 249.61 300.957C249.91 300.815 250.09 300.658 250.149 300.484C250.22 300.308 250.221 300.068 250.152 299.764L250.12 299.624C250.059 299.354 249.935 299.161 249.748 299.043C249.573 298.923 249.35 298.888 249.078 298.937L246.405 299.359C245.835 299.452 245.372 299.391 245.016 299.176C244.66 298.962 244.427 298.615 244.318 298.135L244.238 297.784C244.18 297.526 244.187 297.26 244.26 296.985C244.345 296.708 244.495 296.446 244.71 296.2C244.46 296.023 244.25 295.775 244.079 295.457C243.918 295.125 243.78 294.707 243.666 294.204L243.578 293.818C243.389 292.987 243.497 292.267 243.9 291.659C244.301 291.039 244.993 290.617 245.976 290.394ZM246.259 291.64C245.767 291.752 245.416 291.967 245.205 292.285C245.004 292.59 244.956 292.976 245.062 293.444L245.194 294.023C245.292 294.456 245.4 294.77 245.518 294.965C245.645 295.145 245.817 295.254 246.035 295.29C246.25 295.315 246.556 295.283 246.954 295.192C247.492 295.07 247.867 294.85 248.078 294.531C248.288 294.213 248.339 293.814 248.23 293.334L248.111 292.807C247.999 292.316 247.832 291.904 247.609 291.574C247.456 291.547 247.251 291.538 246.994 291.547C246.749 291.553 246.504 291.584 246.259 291.64ZM254.238 288.518C255.221 288.295 256.031 288.394 256.668 288.816C257.305 289.237 257.739 289.957 257.971 290.975L258.381 292.783L253.87 293.807L254.105 294.843C254.24 295.44 254.479 295.841 254.821 296.046C255.172 296.237 255.658 296.262 256.278 296.121C256.886 295.983 257.626 295.717 258.496 295.322L258.826 296.613C257.783 297.059 257.027 297.336 256.559 297.442C255.401 297.705 254.507 297.643 253.878 297.257C253.26 296.868 252.832 296.147 252.593 295.094L251.967 292.338C251.736 291.32 251.805 290.486 252.175 289.836C252.556 289.183 253.243 288.744 254.238 288.518ZM254.521 289.765C254.065 289.868 253.735 290.097 253.532 290.45C253.327 290.792 253.285 291.233 253.407 291.771L253.599 292.613L256.618 291.928L256.439 291.138C256.311 290.576 256.074 290.181 255.726 289.952C255.391 289.721 254.989 289.658 254.521 289.765ZM261.738 286.816C262.23 286.704 262.836 286.64 263.559 286.624L263.811 287.896C263.17 287.893 262.598 287.949 262.095 288.064C261.042 288.303 260.592 288.762 260.746 289.44L260.782 289.598C260.83 289.809 260.921 289.967 261.056 290.072C261.202 290.174 261.437 290.262 261.762 290.336L263.587 290.734C264.688 290.976 265.341 291.548 265.545 292.449L265.633 292.835C265.805 293.645 265.697 294.309 265.31 294.828C264.933 295.332 264.235 295.699 263.217 295.931C262.69 296.05 261.907 296.099 260.868 296.076L260.636 294.726C261.572 294.784 262.321 294.75 262.883 294.622C263.456 294.492 263.837 294.325 264.024 294.123C264.21 293.909 264.261 293.62 264.179 293.257L264.139 293.082C264.075 292.801 263.966 292.592 263.812 292.455C263.669 292.315 263.456 292.215 263.172 292.157L261.298 291.789C260.73 291.671 260.286 291.477 259.966 291.205C259.657 290.93 259.454 290.577 259.356 290.144L259.3 289.898C259.143 289.097 259.253 288.444 259.631 287.94C260.017 287.422 260.72 287.047 261.738 286.816ZM267.782 286.865C268.221 285.818 268.868 285.197 269.722 285.003C270.471 284.833 271.103 284.961 271.617 285.385C272.141 285.795 272.509 286.469 272.722 287.405L274.049 293.25L272.557 293.589L271.278 287.954C271.012 286.784 270.499 286.285 269.738 286.458C269.399 286.535 269.083 286.742 268.79 287.079C268.498 287.416 268.273 287.836 268.117 288.339L269.467 294.29L267.975 294.629L265.254 282.64L266.746 282.301L267.782 286.865ZM215.226 314.772C216.362 314.514 217.25 314.553 217.892 314.887C218.534 315.221 218.958 315.844 219.166 316.757L219.253 317.143C219.378 317.693 219.4 318.224 219.319 318.734C219.238 319.245 218.979 319.919 218.542 320.757L216.694 324.406L220.819 323.47L221.11 324.751L215.194 326.094L214.935 324.953L217.438 319.715C217.672 319.231 217.807 318.85 217.842 318.571C217.887 318.278 217.861 317.921 217.765 317.5L217.694 317.184C217.566 316.622 217.329 316.257 216.984 316.09C216.647 315.908 216.157 315.89 215.513 316.036C215.197 316.108 214.844 316.231 214.453 316.406C214.059 316.569 213.705 316.742 213.389 316.924L213.098 315.643C213.944 315.192 214.653 314.902 215.226 314.772ZM223.403 322.2C224.07 322.049 224.466 322.248 224.59 322.798L224.706 323.307C224.764 323.565 224.722 323.783 224.578 323.964C224.446 324.141 224.216 324.267 223.889 324.342C223.573 324.413 223.311 324.399 223.104 324.298C222.908 324.195 222.781 324.015 222.722 323.757L222.607 323.248C222.546 322.979 222.581 322.756 222.713 322.578C222.857 322.398 223.087 322.272 223.403 322.2ZM231.346 309.784C231.662 309.712 231.917 309.728 232.113 309.831C232.32 309.932 232.453 310.111 232.512 310.368L232.627 310.877C232.686 311.135 232.643 311.353 232.5 311.534C232.365 311.7 232.14 311.818 231.824 311.89C231.519 311.959 231.265 311.949 231.06 311.86C230.864 311.757 230.737 311.577 230.679 311.319L230.563 310.81C230.505 310.553 230.542 310.335 230.674 310.158C230.817 309.978 231.041 309.853 231.346 309.784ZM235.013 322.444C235.215 323.333 235.149 324.044 234.814 324.575C234.494 325.115 233.865 325.492 232.929 325.704C232.754 325.744 232.564 325.775 232.36 325.797C232.144 325.821 231.974 325.835 231.852 325.838L231.569 324.592C232.095 324.522 232.475 324.46 232.709 324.407C233.095 324.319 233.353 324.156 233.483 323.917C233.625 323.676 233.647 323.339 233.549 322.906L231.393 313.409L232.885 313.07L235.013 322.444ZM237.904 311.71C238.91 311.481 239.693 311.543 240.253 311.896C240.822 312.235 241.218 312.895 241.441 313.878L242.792 319.829L241.37 320.152L241.06 318.783C240.62 319.99 239.973 320.69 239.119 320.884C238.44 321.038 237.843 320.928 237.327 320.553C236.823 320.175 236.479 319.582 236.296 318.775L236.184 318.284C236.025 317.581 236.133 316.948 236.509 316.382C236.883 315.805 237.473 315.425 238.281 315.242C238.726 315.141 239.346 315.08 240.141 315.06L239.922 314.094C239.807 313.591 239.608 313.255 239.323 313.086C239.051 312.914 238.674 312.882 238.194 312.991C237.633 313.119 236.863 313.386 235.885 313.792L235.594 312.511C236.654 312.086 237.424 311.819 237.904 311.71ZM238.913 316.317C238.421 316.428 238.076 316.642 237.877 316.958C237.678 317.274 237.631 317.666 237.738 318.134L237.781 318.327C237.88 318.76 238.056 319.077 238.311 319.277C238.566 319.478 238.845 319.544 239.149 319.475C239.465 319.403 239.757 319.195 240.023 318.852C240.299 318.494 240.52 318.031 240.687 317.464L240.38 316.113C239.916 316.132 239.427 316.2 238.913 316.317ZM245.982 309.876C246.497 309.759 246.982 309.729 247.438 309.785L250.168 309.129L250.467 310.445L249.02 310.737C249.315 311.113 249.514 311.529 249.617 311.985L249.705 312.372C249.899 313.226 249.792 313.976 249.385 314.622C248.975 315.257 248.297 315.682 247.349 315.897C246.74 316.035 246.23 316.089 245.817 316.06C245.607 316.329 245.533 316.598 245.594 316.867L245.618 316.973C245.661 317.16 245.751 317.287 245.889 317.354C246.025 317.409 246.265 317.41 246.61 317.357L249.269 316.956C249.818 316.881 250.297 316.987 250.707 317.275C251.126 317.549 251.397 317.956 251.519 318.494L251.667 319.143C251.781 319.647 251.774 320.079 251.647 320.44C251.52 320.801 251.206 321.125 250.705 321.411C250.215 321.694 249.473 321.949 248.479 322.174C248.104 322.259 247.65 322.319 247.117 322.354C246.595 322.387 246.091 322.39 245.605 322.365L245.343 320.966C246.514 321.082 247.48 321.054 248.24 320.881C248.872 320.738 249.331 320.59 249.617 320.439C249.917 320.297 250.096 320.14 250.155 319.966C250.226 319.79 250.227 319.55 250.158 319.246L250.126 319.106C250.065 318.836 249.941 318.643 249.754 318.525C249.579 318.405 249.356 318.37 249.084 318.419L246.411 318.841C245.842 318.934 245.379 318.873 245.022 318.658C244.666 318.444 244.433 318.097 244.325 317.617L244.245 317.266C244.186 317.008 244.194 316.742 244.267 316.467C244.351 316.19 244.501 315.928 244.716 315.682C244.467 315.505 244.257 315.257 244.086 314.939C243.924 314.607 243.786 314.189 243.672 313.686L243.584 313.3C243.396 312.469 243.503 311.749 243.907 311.141C244.307 310.521 244.999 310.099 245.982 309.876ZM246.265 311.122C245.773 311.234 245.422 311.449 245.212 311.767C245.01 312.072 244.962 312.458 245.069 312.926L245.2 313.505C245.298 313.938 245.406 314.252 245.524 314.447C245.652 314.627 245.824 314.735 246.041 314.772C246.256 314.797 246.563 314.765 246.961 314.674C247.499 314.552 247.873 314.332 248.084 314.013C248.295 313.695 248.346 313.295 248.237 312.816L248.117 312.289C248.006 311.798 247.838 311.386 247.616 311.056C247.462 311.029 247.257 311.02 247.001 311.029C246.756 311.035 246.511 311.066 246.265 311.122ZM259.326 316.076L257.904 316.398L257.59 315.012C257.129 316.236 256.448 316.95 255.547 317.155C254.822 317.32 254.21 317.2 253.712 316.796C253.212 316.381 252.853 315.693 252.635 314.734L251.926 311.609C251.716 310.685 251.763 309.917 252.068 309.307C252.384 308.693 252.94 308.296 253.735 308.116C254.075 308.039 254.452 308.046 254.866 308.136C255.278 308.215 255.669 308.341 256.041 308.515L255.113 304.425L256.605 304.087L259.326 316.076ZM254.372 309.374C253.95 309.47 253.657 309.696 253.492 310.054C253.336 310.397 253.328 310.872 253.466 311.481L254.083 314.202C254.354 315.395 254.858 315.909 255.596 315.741C255.947 315.661 256.261 315.449 256.54 315.102C256.827 314.742 257.054 314.278 257.221 313.711L256.344 309.849C256.04 309.648 255.699 309.503 255.323 309.417C254.958 309.327 254.641 309.313 254.372 309.374ZM262.593 306.105C263.576 305.882 264.386 305.981 265.023 306.403C265.66 306.824 266.094 307.544 266.325 308.562L266.735 310.37L262.224 311.394L262.459 312.43C262.595 313.026 262.834 313.427 263.176 313.633C263.527 313.824 264.012 313.849 264.632 313.708C265.241 313.57 265.98 313.304 266.851 312.909L267.18 314.2C266.137 314.646 265.382 314.922 264.914 315.029C263.755 315.292 262.861 315.23 262.232 314.844C261.615 314.455 261.186 313.734 260.947 312.68L260.322 309.925C260.091 308.907 260.16 308.073 260.529 307.423C260.91 306.77 261.598 306.331 262.593 306.105ZM262.875 307.351C262.419 307.455 262.09 307.684 261.887 308.037C261.681 308.379 261.64 308.819 261.762 309.358L261.953 310.2L264.972 309.515L264.793 308.725C264.666 308.163 264.428 307.768 264.081 307.539C263.745 307.308 263.344 307.245 262.875 307.351ZM270.392 304.335C271.375 304.111 272.185 304.211 272.822 304.632C273.459 305.053 273.894 305.773 274.125 306.791L274.535 308.599L270.024 309.623L270.259 310.659C270.394 311.256 270.633 311.657 270.975 311.862C271.326 312.053 271.812 312.078 272.432 311.938C273.04 311.8 273.78 311.533 274.65 311.139L274.98 312.43C273.937 312.876 273.181 313.152 272.713 313.258C271.555 313.521 270.661 313.459 270.032 313.073C269.414 312.684 268.986 311.963 268.747 310.91L268.121 308.154C267.89 307.136 267.959 306.302 268.329 305.652C268.71 305 269.397 304.56 270.392 304.335ZM270.675 305.581C270.219 305.684 269.889 305.913 269.686 306.267C269.481 306.609 269.439 307.049 269.562 307.587L269.753 308.43L272.772 307.744L272.593 306.954C272.465 306.393 272.228 305.997 271.881 305.769C271.545 305.537 271.143 305.475 270.675 305.581ZM277.892 302.632C278.384 302.52 278.991 302.456 279.713 302.44L279.965 303.712C279.324 303.71 278.752 303.766 278.249 303.88C277.196 304.119 276.746 304.578 276.901 305.257L276.936 305.415C276.984 305.625 277.075 305.783 277.21 305.888C277.356 305.99 277.592 306.078 277.916 306.152L279.741 306.55C280.842 306.792 281.495 307.364 281.7 308.265L281.787 308.651C281.959 309.461 281.851 310.125 281.464 310.644C281.087 311.148 280.389 311.516 279.371 311.747C278.844 311.866 278.061 311.915 277.023 311.892L276.79 310.542C277.726 310.6 278.475 310.566 279.037 310.438C279.61 310.308 279.991 310.142 280.178 309.939C280.364 309.725 280.415 309.436 280.333 309.074L280.293 308.898C280.229 308.617 280.12 308.408 279.966 308.271C279.823 308.131 279.61 308.032 279.326 307.973L277.452 307.605C276.884 307.488 276.44 307.293 276.12 307.021C275.811 306.747 275.608 306.393 275.51 305.96L275.454 305.714C275.297 304.913 275.407 304.261 275.785 303.756C276.172 303.238 276.874 302.863 277.892 302.632ZM283.936 302.681C284.375 301.634 285.022 301.013 285.876 300.82C286.625 300.65 287.257 300.777 287.772 301.201C288.295 301.612 288.664 302.285 288.876 303.221L290.203 309.066L288.711 309.405L287.432 303.77C287.166 302.6 286.653 302.101 285.892 302.274C285.553 302.351 285.237 302.558 284.944 302.895C284.652 303.232 284.427 303.653 284.271 304.156L285.622 310.106L284.13 310.445L281.408 298.456L282.9 298.117L283.936 302.681ZM219.658 333.249C220.652 333.024 221.467 333.091 222.103 333.451C222.738 333.811 223.154 334.424 223.351 335.29L223.391 335.466C223.513 336.004 223.504 336.505 223.363 336.968C223.231 337.416 222.966 337.796 222.569 338.107C223.094 338.197 223.548 338.433 223.929 338.814C224.323 339.192 224.583 339.662 224.711 340.224L224.751 340.399C224.961 341.324 224.848 342.131 224.414 342.82C223.992 343.506 223.254 343.969 222.201 344.208C221.651 344.333 220.879 344.429 219.885 344.494L219.602 343.248C220.525 343.198 221.298 343.103 221.918 342.962C222.479 342.835 222.878 342.584 223.113 342.211C223.346 341.826 223.401 341.364 223.279 340.826L223.215 340.545C222.944 339.351 222.194 338.894 220.965 339.173L219.403 339.528L219.132 338.334L220.694 337.979C221.244 337.854 221.618 337.628 221.814 337.301C222.019 336.959 222.053 336.483 221.915 335.875L221.839 335.541C221.624 334.594 220.99 334.239 219.936 334.478C219.422 334.595 218.703 334.844 217.781 335.226L217.498 333.98C218.423 333.61 219.143 333.366 219.658 333.249ZM227.437 340.768C228.104 340.616 228.5 340.816 228.625 341.366L228.741 341.875C228.799 342.132 228.757 342.351 228.613 342.531C228.481 342.709 228.251 342.835 227.924 342.909C227.608 342.981 227.346 342.967 227.138 342.866C226.943 342.763 226.816 342.582 226.757 342.325L226.642 341.816C226.581 341.547 226.616 341.323 226.748 341.146C226.892 340.965 227.121 340.839 227.437 340.768ZM242.726 339.327L236.731 330.481L238.935 340.188L237.46 340.523L234.85 329.025L237.238 328.483L243.163 337.346L240.959 327.639L242.433 327.304L245.043 338.801L242.726 339.327ZM248.212 328.853C249.219 328.625 250.002 328.687 250.562 329.04C251.131 329.378 251.527 330.039 251.75 331.022L253.101 336.972L251.679 337.295L251.368 335.926C250.929 337.133 250.282 337.834 249.428 338.028C248.749 338.182 248.151 338.071 247.636 337.696C247.132 337.318 246.788 336.726 246.604 335.918L246.493 335.427C246.334 334.725 246.442 334.091 246.818 333.526C247.192 332.949 247.782 332.568 248.59 332.385C249.034 332.284 249.654 332.223 250.449 332.203L250.23 331.237C250.116 330.734 249.917 330.398 249.632 330.229C249.359 330.057 248.983 330.025 248.503 330.134C247.941 330.262 247.172 330.529 246.193 330.936L245.902 329.654C246.963 329.229 247.733 328.962 248.212 328.853ZM249.221 333.46C248.73 333.572 248.384 333.785 248.185 334.101C247.986 334.417 247.94 334.809 248.046 335.277L248.09 335.47C248.188 335.903 248.365 336.22 248.62 336.421C248.874 336.621 249.154 336.687 249.458 336.618C249.774 336.546 250.065 336.339 250.332 335.995C250.608 335.637 250.829 335.175 250.995 334.608L250.688 333.256C250.225 333.275 249.736 333.343 249.221 333.46ZM259.709 326.465L259.003 335.632L257.054 336.075L252.477 328.106L254.057 327.748L257.79 334.763L258.129 326.823L259.709 326.465ZM263.816 325.311C264.799 325.088 265.609 325.187 266.246 325.608C266.883 326.03 267.317 326.749 267.548 327.767L267.959 329.575L263.448 330.6L263.683 331.635C263.818 332.232 264.057 332.633 264.399 332.839C264.75 333.03 265.236 333.055 265.856 332.914C266.464 332.776 267.204 332.509 268.074 332.115L268.404 333.406C267.361 333.852 266.605 334.128 266.137 334.234C264.979 334.497 264.085 334.436 263.456 334.049C262.838 333.66 262.41 332.939 262.171 331.886L261.545 329.13C261.314 328.112 261.383 327.278 261.752 326.628C262.133 325.976 262.821 325.537 263.816 325.311ZM264.099 326.557C263.643 326.661 263.313 326.889 263.11 327.243C262.905 327.585 262.863 328.025 262.985 328.563L263.177 329.406L266.196 328.721L266.017 327.931C265.889 327.369 265.652 326.974 265.304 326.745C264.969 326.513 264.567 326.451 264.099 326.557ZM271.616 323.54C272.599 323.317 273.409 323.416 274.046 323.838C274.683 324.259 275.117 324.979 275.348 325.997L275.759 327.805L271.247 328.829L271.482 329.865C271.618 330.461 271.857 330.863 272.199 331.068C272.55 331.259 273.035 331.284 273.655 331.143C274.264 331.005 275.003 330.739 275.874 330.344L276.204 331.635C275.16 332.081 274.405 332.358 273.937 332.464C272.778 332.727 271.884 332.665 271.255 332.279C270.638 331.89 270.21 331.169 269.97 330.116L269.345 327.36C269.114 326.342 269.183 325.508 269.552 324.858C269.933 324.205 270.621 323.766 271.616 323.54ZM271.899 324.787C271.442 324.89 271.113 325.119 270.91 325.472C270.704 325.814 270.663 326.255 270.785 326.793L270.976 327.635L273.996 326.95L273.816 326.16C273.689 325.598 273.451 325.203 273.104 324.974C272.768 324.743 272.367 324.68 271.899 324.787ZM280.397 321.547C281.146 321.377 281.778 321.504 282.293 321.929C282.816 322.339 283.185 323.012 283.397 323.948L284.724 329.794L283.232 330.132L281.953 324.498C281.687 323.327 281.174 322.829 280.413 323.001C280.074 323.078 279.758 323.285 279.465 323.623C279.173 323.96 278.948 324.38 278.792 324.883L280.143 330.834L278.651 331.172L276.706 322.606L278.11 322.287L278.401 323.569C278.608 323.017 278.876 322.569 279.203 322.224C279.543 321.876 279.941 321.65 280.397 321.547ZM227.454 351.185L229.056 358.241L230.127 357.998L230.406 359.227L229.335 359.47L229.849 361.734L228.392 362.065L227.878 359.8L223.103 360.884L222.868 359.849L225.751 351.571L227.454 351.185ZM226.401 353.214L224.422 359.293L227.617 358.568L226.401 353.214ZM232.603 359.078C233.271 358.927 233.666 359.126 233.791 359.676L233.907 360.185C233.965 360.443 233.923 360.662 233.779 360.842C233.647 361.02 233.417 361.146 233.09 361.22C232.774 361.292 232.512 361.277 232.305 361.177C232.109 361.073 231.982 360.893 231.923 360.636L231.808 360.127C231.747 359.857 231.782 359.634 231.914 359.456C232.058 359.276 232.288 359.15 232.603 359.078ZM239.869 347.148C241.25 346.835 242.329 346.873 243.106 347.262C243.884 347.652 244.383 348.332 244.603 349.303L244.703 349.742C244.857 350.421 244.807 351.066 244.552 351.678C244.294 352.278 243.838 352.763 243.184 353.133L247.371 357.756L245.704 358.135L241.781 353.783C241.69 353.816 241.504 353.865 241.223 353.928C240.755 354.035 240.289 354.122 239.825 354.19L240.964 359.211L239.472 359.549L236.83 347.912C238.13 347.567 239.143 347.313 239.869 347.148ZM240.121 348.42C239.734 348.507 239.228 348.635 238.601 348.802L239.542 352.944C240.187 352.859 240.72 352.769 241.142 352.673C242.827 352.291 243.514 351.415 243.203 350.046L243.123 349.695C242.98 349.063 242.669 348.641 242.19 348.43C241.712 348.219 241.022 348.215 240.121 348.42ZM249.528 348.038C250.57 347.801 251.406 347.907 252.037 348.354C252.677 348.787 253.112 349.513 253.343 350.531L253.933 353.129C254.164 354.147 254.086 354.995 253.698 355.674C253.32 356.338 252.61 356.789 251.569 357.025C250.527 357.261 249.687 357.163 249.047 356.73C248.416 356.282 247.985 355.55 247.754 354.532L247.164 351.934C246.933 350.916 247.007 350.074 247.385 349.41C247.773 348.732 248.487 348.274 249.528 348.038ZM249.811 349.284C249.308 349.398 248.952 349.645 248.743 350.025C248.534 350.405 248.496 350.887 248.628 351.472L249.274 354.316C249.407 354.901 249.65 355.32 250.002 355.572C250.355 355.824 250.783 355.893 251.286 355.779C251.789 355.664 252.145 355.417 252.354 355.038C252.563 354.658 252.602 354.176 252.469 353.591L251.819 350.729C251.686 350.144 251.445 349.731 251.095 349.491C250.742 349.239 250.315 349.17 249.811 349.284ZM256.693 347.832C257.132 346.785 257.779 346.165 258.633 345.971C259.382 345.801 260.014 345.928 260.529 346.353C261.052 346.763 261.421 347.436 261.633 348.372L262.96 354.218L261.468 354.556L260.189 348.922C259.923 347.751 259.41 347.253 258.649 347.425C258.31 347.502 257.994 347.709 257.701 348.047C257.409 348.384 257.184 348.804 257.028 349.307L258.379 355.258L256.887 355.596L254.165 343.607L255.657 343.269L256.693 347.832ZM264.885 344.773L266.83 353.339L265.338 353.678L263.393 345.112L264.885 344.773ZM263.345 341.486C263.661 341.415 263.917 341.43 264.113 341.534C264.32 341.634 264.453 341.813 264.512 342.071L264.627 342.58C264.686 342.837 264.643 343.056 264.499 343.236C264.365 343.402 264.139 343.521 263.823 343.593C263.519 343.662 263.265 343.652 263.06 343.563C262.864 343.46 262.737 343.28 262.679 343.022L262.563 342.513C262.505 342.256 262.541 342.038 262.673 341.86C262.817 341.68 263.041 341.555 263.345 341.486ZM269.091 343.818L271.373 343.3L271.652 344.529L269.37 345.047L270.51 350.067C270.611 350.512 270.771 350.814 270.992 350.973C271.222 351.118 271.53 351.146 271.916 351.059C272.407 350.947 272.874 350.78 273.315 350.556L273.633 351.795C273.15 352.052 272.698 352.228 272.277 352.324C271.341 352.537 270.61 352.487 270.084 352.176C269.567 351.85 269.202 351.219 268.99 350.283L267.878 345.386L266.649 345.665L266.37 344.436L267.599 344.157L267.362 341.811L268.573 341.536L269.091 343.818ZM279.446 338.163C279.879 338.065 280.386 337.993 280.966 337.948C281.544 337.89 282.078 337.855 282.567 337.843L282.831 339.167C281.45 339.21 280.42 339.308 279.741 339.462C278.934 339.646 278.392 339.941 278.115 340.348C277.848 340.741 277.799 341.312 277.969 342.061L279.124 347.152C279.294 347.901 279.588 348.406 280.004 348.669C280.429 348.917 281.046 348.949 281.853 348.766C282.38 348.646 283.046 348.409 283.851 348.054L282.971 344.174L280.776 344.673L280.458 343.268L284.144 342.431L285.551 348.628C284.245 349.38 283.112 349.864 282.152 350.082C280.806 350.388 279.782 350.319 279.078 349.876C278.375 349.432 277.885 348.602 277.608 347.385L276.513 342.558C276.231 341.318 276.319 340.35 276.777 339.656C277.234 338.961 278.124 338.464 279.446 338.163Z" fill="white"/>
<path d="M367.995 554.939C369.224 554.66 370.217 554.7 370.975 555.057C371.733 555.414 372.21 556.025 372.407 556.891L372.494 557.277C372.773 558.506 372.428 559.477 371.457 560.189C372.144 560.181 372.723 560.37 373.192 560.755C373.67 561.127 373.986 561.652 374.14 562.33L374.227 562.717C374.448 563.688 374.278 564.539 373.718 565.269C373.169 565.996 372.205 566.517 370.824 566.83C370.04 567.008 368.961 567.216 367.587 567.454L364.922 555.711C365.988 555.42 367.012 555.163 367.995 554.939ZM368.058 556.273C367.637 556.368 367.184 556.489 366.701 556.636L367.593 560.568L369.313 560.177C370.016 560.018 370.509 559.728 370.795 559.306C371.093 558.881 371.172 558.365 371.034 557.756L370.966 557.458C370.834 556.873 370.535 556.479 370.071 556.277C369.606 556.075 368.935 556.073 368.058 556.273ZM367.868 561.779L368.785 565.816C369.179 565.764 369.501 565.721 369.752 565.689C370.013 565.642 370.271 565.59 370.529 565.531C371.43 565.327 372.053 565.007 372.397 564.572C372.75 564.123 372.856 563.588 372.716 562.968L372.632 562.599C372.358 561.394 371.379 560.982 369.694 561.365L367.868 561.779ZM381.054 555.279L379.804 567.985L378.312 568.324L378.698 564.821L378.136 564.949L373.752 556.937L375.384 556.566L378.929 563.643L379.509 555.629L381.054 555.279ZM390.016 556.198L390.275 557.339L386.413 558.215L386.154 557.074L390.016 556.198ZM401.866 547.472L404.476 558.969L402.984 559.308L401.788 554.042L397.224 555.078L398.42 560.344L396.928 560.683L394.318 549.185L395.81 548.847L396.922 553.744L401.485 552.708L400.374 547.811L401.866 547.472ZM407.645 549.021C408.652 548.792 409.435 548.855 409.995 549.207C410.564 549.546 410.96 550.206 411.183 551.189L412.534 557.14L411.112 557.463L410.801 556.094C410.362 557.301 409.715 558.002 408.861 558.195C408.182 558.35 407.585 558.239 407.069 557.864C406.565 557.486 406.221 556.894 406.038 556.086L405.926 555.595C405.767 554.892 405.875 554.259 406.251 553.693C406.625 553.116 407.215 552.736 408.023 552.553C408.467 552.452 409.087 552.391 409.883 552.371L409.663 551.405C409.549 550.902 409.35 550.566 409.065 550.397C408.792 550.225 408.416 550.193 407.936 550.302C407.375 550.43 406.605 550.697 405.626 551.103L405.335 549.822C406.396 549.397 407.166 549.13 407.645 549.021ZM408.654 553.628C408.163 553.739 407.818 553.953 407.619 554.269C407.42 554.585 407.373 554.977 407.479 555.445L407.523 555.638C407.622 556.071 407.798 556.388 408.053 556.588C408.308 556.789 408.587 556.855 408.891 556.786C409.207 556.714 409.499 556.506 409.765 556.163C410.041 555.805 410.262 555.342 410.428 554.776L410.122 553.424C409.658 553.443 409.169 553.511 408.654 553.628ZM416.654 546.976C417.403 546.806 418.035 546.933 418.55 547.358C419.074 547.768 419.442 548.441 419.654 549.377L420.981 555.222L419.489 555.561L418.21 549.927C417.944 548.756 417.431 548.258 416.671 548.43C416.331 548.507 416.015 548.714 415.723 549.052C415.43 549.389 415.205 549.809 415.049 550.312L416.4 556.263L414.908 556.601L412.963 548.035L414.367 547.716L414.658 548.998C414.865 548.446 415.133 547.998 415.46 547.653C415.8 547.305 416.198 547.079 416.654 546.976ZM424.067 545.293C425.074 545.064 425.857 545.127 426.417 545.479C426.986 545.818 427.382 546.479 427.605 547.461L428.956 553.412L427.534 553.735L427.224 552.366C426.784 553.573 426.137 554.274 425.283 554.468C424.604 554.622 424.007 554.511 423.491 554.136C422.987 553.758 422.643 553.166 422.46 552.358L422.348 551.867C422.189 551.164 422.297 550.531 422.673 549.965C423.047 549.388 423.637 549.008 424.445 548.825C424.889 548.724 425.509 548.663 426.305 548.643L426.085 547.677C425.971 547.174 425.772 546.838 425.487 546.669C425.214 546.497 424.838 546.465 424.358 546.574C423.797 546.702 423.027 546.969 422.048 547.376L421.758 546.094C422.818 545.669 423.588 545.402 424.067 545.293ZM425.076 549.9C424.585 550.011 424.24 550.225 424.041 550.541C423.842 550.857 423.795 551.249 423.901 551.717L423.945 551.91C424.044 552.343 424.22 552.66 424.475 552.86C424.73 553.061 425.009 553.127 425.313 553.058C425.629 552.986 425.921 552.778 426.187 552.435C426.463 552.077 426.684 551.615 426.85 551.048L426.544 549.696C426.08 549.715 425.591 549.783 425.076 549.9ZM437.57 542.228C438.319 542.058 438.951 542.185 439.465 542.61C439.978 543.022 440.34 543.697 440.552 544.633L441.879 550.478L440.387 550.817L439.108 545.182C438.842 544.012 438.335 543.512 437.586 543.682C437.259 543.757 436.948 543.962 436.656 544.299C436.375 544.634 436.156 545.053 436 545.556L437.351 551.506L435.858 551.845L434.579 546.211C434.314 545.04 433.806 544.54 433.057 544.71C432.73 544.785 432.42 544.99 432.127 545.328C431.846 545.662 431.627 546.081 431.471 546.584L432.822 552.535L431.33 552.873L429.385 544.307L430.789 543.988L431.08 545.27C431.276 544.721 431.543 544.273 431.882 543.925C432.222 543.577 432.608 543.354 433.041 543.256C433.579 543.134 434.062 543.172 434.488 543.37C434.912 543.557 435.266 543.895 435.549 544.385C435.746 543.786 436.018 543.306 436.367 542.944C436.712 542.57 437.113 542.331 437.57 542.228ZM444.964 540.549C445.97 540.321 446.753 540.383 447.313 540.736C447.882 541.074 448.278 541.735 448.501 542.718L449.852 548.668L448.43 548.991L448.12 547.622C447.68 548.829 447.033 549.53 446.179 549.724C445.5 549.878 444.903 549.767 444.387 549.392C443.883 549.015 443.539 548.422 443.356 547.615L443.244 547.123C443.085 546.421 443.193 545.787 443.569 545.222C443.943 544.645 444.533 544.265 445.341 544.081C445.785 543.98 446.405 543.92 447.201 543.899L446.981 542.934C446.867 542.431 446.668 542.094 446.383 541.925C446.111 541.753 445.734 541.722 445.254 541.831C444.693 541.958 443.923 542.225 442.944 542.632L442.654 541.351C443.714 540.925 444.484 540.658 444.964 540.549ZM445.972 545.156C445.481 545.268 445.136 545.482 444.937 545.797C444.738 546.113 444.691 546.505 444.798 546.973L444.841 547.167C444.94 547.599 445.116 547.916 445.371 548.117C445.626 548.317 445.905 548.383 446.209 548.314C446.525 548.242 446.817 548.035 447.083 547.691C447.359 547.333 447.58 546.871 447.747 546.304L447.44 544.952C446.976 544.971 446.487 545.039 445.972 545.156ZM453.972 538.504C454.721 538.334 455.353 538.461 455.868 538.886C456.392 539.296 456.76 539.969 456.972 540.906L458.299 546.751L456.807 547.09L455.528 541.455C455.262 540.285 454.749 539.786 453.989 539.959C453.649 540.036 453.333 540.243 453.041 540.58C452.748 540.917 452.523 541.337 452.367 541.84L453.718 547.791L452.226 548.13L450.281 539.564L451.685 539.245L451.976 540.526C452.183 539.975 452.451 539.526 452.779 539.181C453.118 538.834 453.516 538.608 453.972 538.504ZM460.573 537.227L462.855 536.709L463.134 537.938L460.852 538.456L461.992 543.476C462.093 543.921 462.254 544.223 462.474 544.382C462.704 544.527 463.012 544.555 463.398 544.467C463.89 544.356 464.356 544.188 464.798 543.965L465.116 545.204C464.633 545.461 464.181 545.637 463.759 545.733C462.823 545.945 462.092 545.896 461.566 545.585C461.049 545.259 460.684 544.628 460.472 543.692L459.36 538.795L458.131 539.074L457.852 537.845L459.081 537.566L458.844 535.22L460.055 534.945L460.573 537.227ZM468.618 531.802L470.248 538.981L472.204 534.587L473.871 534.208L471.81 538.626L476.027 542.727L474.236 543.133L470.296 539.192L471.34 543.791L469.848 544.129L467.126 532.14L468.618 531.802Z" fill="white"/>
<path d="M213.16 395.548L213.569 397.35L209.123 398.359L212.193 411.887L210.204 412.339L207.133 398.811L202.686 399.82L202.277 398.018L213.16 395.548ZM217.918 398.577L220.511 409.999L218.522 410.45L215.929 399.029L217.918 398.577ZM215.865 394.195C216.287 394.099 216.628 394.12 216.889 394.258C217.165 394.392 217.343 394.631 217.42 394.974L217.575 395.653C217.652 395.996 217.596 396.288 217.404 396.528C217.225 396.75 216.924 396.908 216.503 397.004C216.097 397.096 215.758 397.083 215.485 396.964C215.224 396.826 215.055 396.586 214.977 396.243L214.823 395.564C214.745 395.221 214.794 394.931 214.97 394.694C215.161 394.453 215.46 394.287 215.865 394.195ZM231.631 395.169C232.629 394.942 233.472 395.112 234.158 395.678C234.841 396.229 235.324 397.128 235.608 398.376L237.377 406.17L235.387 406.622L233.682 399.109C233.328 397.549 232.651 396.882 231.653 397.108C231.216 397.208 230.802 397.482 230.412 397.932C230.038 398.378 229.746 398.936 229.537 399.607L231.338 407.541L229.349 407.992L227.644 400.48C227.289 398.919 226.613 398.253 225.614 398.479C225.177 398.578 224.764 398.853 224.374 399.302C223.999 399.748 223.708 400.307 223.499 400.978L225.3 408.912L223.311 409.363L220.718 397.942L222.59 397.517L222.978 399.225C223.239 398.494 223.595 397.896 224.048 397.432C224.5 396.968 225.015 396.671 225.592 396.54C226.31 396.377 226.953 396.428 227.522 396.693C228.087 396.942 228.559 397.392 228.937 398.045C229.199 397.247 229.562 396.607 230.026 396.124C230.488 395.626 231.022 395.307 231.631 395.169ZM241.278 392.979C242.589 392.682 243.669 392.814 244.519 393.376C245.368 393.938 245.947 394.897 246.255 396.255L246.802 398.665L240.787 400.031L241.101 401.412C241.281 402.207 241.6 402.742 242.056 403.016C242.524 403.271 243.171 403.304 243.998 403.117C244.809 402.932 245.795 402.577 246.956 402.051L247.396 403.773C246.005 404.367 244.997 404.736 244.373 404.877C242.828 405.228 241.637 405.146 240.798 404.631C239.975 404.112 239.404 403.15 239.085 401.746L238.251 398.072C237.943 396.714 238.035 395.602 238.527 394.736C239.035 393.866 239.952 393.28 241.278 392.979ZM241.656 394.641C241.047 394.779 240.608 395.084 240.337 395.555C240.064 396.011 240.008 396.598 240.171 397.316L240.426 398.439L244.452 397.525L244.213 396.472C244.043 395.723 243.726 395.196 243.263 394.891C242.816 394.583 242.28 394.499 241.656 394.641ZM250.565 400.469C251.455 400.267 251.983 400.533 252.149 401.266L252.303 401.945C252.381 402.288 252.324 402.58 252.133 402.82C251.957 403.057 251.65 403.225 251.214 403.324C250.792 403.42 250.443 403.401 250.167 403.267C249.906 403.129 249.736 402.889 249.658 402.545L249.504 401.867C249.423 401.508 249.47 401.21 249.646 400.973C249.838 400.733 250.144 400.565 250.565 400.469ZM248.61 391.856C249.499 391.654 250.027 391.92 250.194 392.653L250.348 393.332C250.426 393.675 250.369 393.967 250.178 394.208C250.002 394.444 249.695 394.612 249.258 394.712C248.837 394.807 248.488 394.788 248.212 394.654C247.951 394.516 247.781 394.276 247.703 393.932L247.549 393.254C247.468 392.895 247.515 392.597 247.691 392.36C247.882 392.12 248.189 391.952 248.61 391.856ZM266.716 386.392C264.804 386.859 263.488 387.494 262.768 388.298C262.06 389.082 261.84 390.067 262.109 391.253L262.407 392.563C263.277 391.267 264.204 390.507 265.187 390.283C266.311 390.028 267.256 390.183 268.024 390.747C268.804 391.292 269.35 392.251 269.662 393.624L269.869 394.536C270.191 395.956 270.061 397.118 269.479 398.021C268.912 398.921 267.918 399.532 266.498 399.855C265.11 400.17 263.954 400.03 263.032 399.436C262.121 398.822 261.505 397.805 261.183 396.385L260.205 392.079C259.787 390.238 260.085 388.694 261.098 387.446C262.126 386.196 263.87 385.275 266.328 384.684L266.716 386.392ZM265.229 392.095C264.48 392.265 263.667 392.983 262.789 394.249L263.199 396.051C263.599 397.814 264.571 398.52 266.116 398.169C267.692 397.812 268.289 396.79 267.906 395.105L267.656 394.005C267.483 393.241 267.18 392.702 266.748 392.39C266.328 392.059 265.822 391.96 265.229 392.095ZM273.377 395.29C274.267 395.089 274.795 395.354 274.961 396.088L275.115 396.766C275.193 397.11 275.136 397.401 274.945 397.642C274.769 397.879 274.462 398.047 274.026 398.146C273.604 398.241 273.255 398.222 272.979 398.088C272.718 397.95 272.548 397.71 272.471 397.367L272.316 396.688C272.235 396.329 272.282 396.031 272.458 395.794C272.65 395.554 272.956 395.386 273.377 395.29ZM271.422 386.678C272.312 386.476 272.84 386.741 273.006 387.475L273.16 388.153C273.238 388.497 273.181 388.789 272.99 389.029C272.814 389.266 272.507 389.434 272.07 389.533C271.649 389.629 271.3 389.609 271.024 389.475C270.763 389.338 270.593 389.097 270.515 388.754L270.361 388.075C270.28 387.716 270.327 387.418 270.503 387.182C270.695 386.941 271.001 386.773 271.422 386.678ZM278.415 382.063L281.608 396.129L279.619 396.581L276.861 384.434L276.815 384.444L274.005 386.485L273.219 384.867L276.66 382.462L278.415 382.063ZM288.442 381.51L283.152 382.71L284.188 387.274C284.915 386.355 285.894 385.755 287.127 385.475C288.204 385.231 289.08 385.368 289.756 385.887C290.443 386.388 290.945 387.332 291.26 388.721L291.451 389.563C292.117 392.497 290.929 394.309 287.886 394.999C287.34 395.123 286.727 395.205 286.047 395.245C285.37 395.3 284.767 395.314 284.235 395.287L283.869 393.672C284.343 393.663 284.966 393.628 285.74 393.567C286.51 393.49 287.083 393.41 287.457 393.325C288.315 393.13 288.911 392.757 289.246 392.205C289.592 391.634 289.664 390.904 289.462 390.015L289.255 389.102C288.915 387.604 288.167 386.986 287.013 387.248C286.389 387.39 285.861 387.633 285.431 387.977C285.016 388.317 284.629 388.815 284.269 389.471L282.747 389.816L280.845 381.437L288.054 379.801L288.442 381.51ZM300.428 379.552C301.411 379.328 302.252 379.49 302.95 380.037C303.649 380.584 304.141 381.49 304.428 382.753L305.374 386.919C305.65 388.137 305.548 389.169 305.068 390.016C304.599 390.844 303.827 391.381 302.75 391.625C302.345 391.717 301.888 391.73 301.381 391.665C300.893 391.612 300.43 391.52 299.99 391.39L301.095 396.258L299.106 396.71L295.53 380.959L297.402 380.534L297.78 382.195C298.344 380.706 299.227 379.824 300.428 379.552ZM300.434 381.421C299.981 381.523 299.56 381.799 299.17 382.249C298.792 382.679 298.497 383.222 298.285 383.877L299.586 389.612C299.974 389.802 300.381 389.932 300.806 389.999C301.244 390.047 301.626 390.034 301.954 389.96C303.234 389.67 303.689 388.713 303.321 387.09L302.502 383.486C302.138 381.879 301.448 381.19 300.434 381.421ZM317.083 375.771C318.082 375.544 318.924 375.714 319.61 376.28C320.293 376.83 320.776 377.73 321.06 378.978L322.829 386.772L320.839 387.223L319.134 379.71C318.78 378.15 318.103 377.483 317.105 377.71C316.668 377.809 316.254 378.084 315.864 378.533C315.49 378.979 315.198 379.537 314.989 380.208L316.79 388.142L314.801 388.594L313.096 381.081C312.741 379.521 312.065 378.854 311.066 379.081C310.63 379.18 310.216 379.454 309.826 379.904C309.451 380.35 309.16 380.908 308.951 381.579L310.752 389.513L308.763 389.965L306.17 378.543L308.042 378.118L308.43 379.827C308.691 379.095 309.047 378.497 309.5 378.034C309.952 377.57 310.467 377.273 311.045 377.142C311.762 376.979 312.406 377.029 312.974 377.294C313.539 377.543 314.011 377.994 314.389 378.647C314.651 377.849 315.014 377.208 315.479 376.726C315.94 376.227 316.474 375.909 317.083 375.771ZM242.945 422.339C243.601 422.19 244.41 422.105 245.373 422.083L245.709 423.779C244.855 423.775 244.092 423.85 243.421 424.002C242.017 424.321 241.418 424.933 241.623 425.838L241.671 426.049C241.735 426.33 241.856 426.54 242.036 426.68C242.231 426.816 242.544 426.933 242.977 427.032L245.411 427.562C246.879 427.885 247.749 428.648 248.022 429.849L248.139 430.364C248.368 431.444 248.224 432.33 247.708 433.021C247.205 433.693 246.274 434.184 244.917 434.492C244.214 434.651 243.171 434.716 241.786 434.686L241.476 432.886C242.724 432.963 243.722 432.917 244.471 432.747C245.236 432.573 245.743 432.352 245.994 432.081C246.241 431.796 246.309 431.411 246.199 430.927L246.146 430.693C246.061 430.319 245.916 430.04 245.71 429.857C245.52 429.67 245.236 429.538 244.857 429.46L242.358 428.969C241.601 428.813 241.009 428.553 240.582 428.191C240.171 427.825 239.9 427.353 239.769 426.776L239.694 426.448C239.485 425.38 239.632 424.51 240.135 423.838C240.651 423.146 241.588 422.647 242.945 422.339ZM258.683 431.071L256.81 431.496L256.438 429.858C256.159 430.578 255.799 431.16 255.358 431.604C254.918 432.049 254.409 432.337 253.832 432.468C252.88 432.684 252.056 432.526 251.362 431.995C250.679 431.444 250.192 430.529 249.902 429.25L248.132 421.456L250.122 421.005L251.811 428.447C251.999 429.274 252.262 429.855 252.6 430.188C252.954 430.518 253.357 430.631 253.81 430.529C254.231 430.433 254.631 430.17 255.009 429.74C255.399 429.29 255.698 428.73 255.907 428.059L254.101 420.102L256.09 419.65L258.683 431.071ZM263.831 417.597C264.829 417.371 265.672 417.54 266.358 418.106C267.057 418.653 267.548 419.551 267.831 420.799L269.6 428.593L267.611 429.045L265.905 421.532C265.551 419.971 264.867 419.306 263.853 419.537C263.4 419.639 262.979 419.915 262.589 420.365C262.199 420.814 261.899 421.375 261.69 422.046L263.492 429.98L261.502 430.431L258.909 419.01L260.782 418.585L261.17 420.293C261.446 419.558 261.802 418.96 262.239 418.5C262.692 418.036 263.222 417.735 263.831 417.597ZM280.28 426.168L278.385 426.599L277.965 424.75C277.351 426.382 276.443 427.335 275.242 427.608C274.274 427.827 273.459 427.668 272.795 427.129C272.128 426.575 271.649 425.659 271.359 424.379L270.413 420.213C270.133 418.98 270.196 417.957 270.602 417.143C271.024 416.325 271.765 415.796 272.826 415.555C273.278 415.453 273.781 415.462 274.333 415.582C274.882 415.687 275.404 415.856 275.9 416.088L274.662 410.635L276.651 410.183L280.28 426.168ZM273.674 417.233C273.113 417.361 272.722 417.663 272.502 418.139C272.294 418.597 272.282 419.231 272.466 420.042L273.29 423.67C273.651 425.262 274.323 425.946 275.306 425.723C275.774 425.616 276.194 425.332 276.565 424.871C276.948 424.39 277.251 423.772 277.473 423.016L276.304 417.867C275.898 417.598 275.444 417.406 274.942 417.29C274.456 417.171 274.033 417.152 273.674 417.233ZM283.91 413.039C285.252 412.735 286.296 412.817 287.043 413.288C287.801 413.739 288.33 414.62 288.627 415.931L290.428 423.865L288.532 424.295L288.118 422.47C287.532 424.079 286.669 425.013 285.53 425.272C284.625 425.477 283.829 425.33 283.141 424.83C282.469 424.326 282.011 423.536 281.766 422.459L281.617 421.804C281.405 420.868 281.549 420.023 282.051 419.269C282.549 418.5 283.336 417.993 284.413 417.749C285.006 417.614 285.832 417.533 286.893 417.506L286.6 416.218C286.448 415.547 286.182 415.099 285.803 414.874C285.439 414.644 284.937 414.602 284.298 414.748C283.549 414.918 282.522 415.274 281.218 415.816L280.83 414.108C282.244 413.541 283.27 413.184 283.91 413.039ZM285.255 419.182C284.6 419.331 284.139 419.616 283.874 420.037C283.609 420.458 283.547 420.981 283.689 421.605L283.747 421.862C283.878 422.439 284.113 422.862 284.453 423.129C284.793 423.397 285.165 423.484 285.571 423.392C285.992 423.297 286.381 423.02 286.736 422.562C287.104 422.085 287.398 421.468 287.621 420.712L287.211 418.91C286.594 418.935 285.942 419.026 285.255 419.182ZM298.864 409.94L297.197 426.881L295.208 427.333L295.723 422.663L294.974 422.833L289.128 412.15L291.304 411.656L296.031 421.092L296.804 410.407L298.864 409.94ZM234.432 451.523L237.625 465.589L235.636 466.041L232.878 453.894L232.831 453.905L230.021 455.945L229.236 454.327L232.676 451.922L234.432 451.523ZM241.255 449.974L244.448 464.041L242.458 464.492L239.701 452.345L239.654 452.356L236.844 454.397L236.059 452.778L239.499 450.373L241.255 449.974ZM250.652 454.56L250.997 456.081L245.848 457.25L245.503 455.729L250.652 454.56ZM256.033 446.324C257.437 446.006 258.598 446.169 259.515 446.814C260.445 447.439 261.09 448.548 261.452 450.139L262.594 455.171C262.955 456.763 262.853 458.049 262.289 459.031C261.736 459.993 260.757 460.633 259.353 460.952C257.949 461.271 256.782 461.118 255.852 460.492C254.935 459.847 254.295 458.729 253.934 457.137L252.792 452.105C252.431 450.514 252.526 449.237 253.079 448.275C253.644 447.293 254.628 446.643 256.033 446.324ZM256.415 448.01C254.855 448.364 254.296 449.516 254.739 451.466L255.966 456.873C256.409 458.823 257.41 459.621 258.971 459.267C260.531 458.913 261.09 457.761 260.647 455.81L259.42 450.404C258.977 448.453 257.975 447.655 256.415 448.01ZM266.822 443.875C268.226 443.556 269.382 443.696 270.289 444.294C271.196 444.892 271.814 445.917 272.143 447.368L273.28 452.376C273.684 454.155 273.582 455.548 272.974 456.556C272.381 457.56 271.282 458.244 269.675 458.609C269.222 458.712 268.681 458.786 268.051 458.83C267.441 458.887 266.947 458.917 266.57 458.92L266.193 457.258C266.679 457.23 267.245 457.192 267.89 457.144C268.532 457.08 269.001 457.015 269.297 456.947C270.249 456.731 270.893 456.315 271.228 455.697C271.561 455.064 271.592 454.154 271.323 452.968L270.919 451.19C270.064 452.483 269.122 453.247 268.092 453.48C266.984 453.732 266.046 453.576 265.278 453.012C264.51 452.448 263.972 451.487 263.664 450.129L263.457 449.217C263.138 447.812 263.261 446.652 263.824 445.737C264.387 444.822 265.387 444.201 266.822 443.875ZM267.205 445.56C265.629 445.918 265.034 446.947 265.42 448.648L265.67 449.748C265.843 450.513 266.14 451.06 266.56 451.392C266.976 451.707 267.488 451.796 268.097 451.658C268.846 451.488 269.659 450.77 270.536 449.505L270.127 447.702C269.724 445.924 268.749 445.21 267.205 445.56ZM280.24 447.843L280.585 449.364L275.436 450.533L275.091 449.012L280.24 447.843ZM283.304 440.134C284.817 439.79 286.002 439.841 286.858 440.287C287.714 440.732 288.28 441.563 288.556 442.781L288.673 443.295C288.84 444.029 288.869 444.736 288.761 445.417C288.653 446.097 288.307 446.996 287.724 448.113L285.26 452.979L290.76 451.731L291.148 453.439L283.261 455.23L282.915 453.708L286.252 446.724C286.565 446.079 286.745 445.571 286.792 445.199C286.851 444.808 286.817 444.332 286.689 443.77L286.593 443.349C286.423 442.6 286.108 442.114 285.647 441.89C285.198 441.648 284.545 441.624 283.686 441.819C283.265 441.914 282.794 442.079 282.273 442.312C281.748 442.53 281.275 442.76 280.854 443.003L280.467 441.295C281.594 440.694 282.539 440.307 283.304 440.134ZM294.204 437.659C295.608 437.34 296.769 437.503 297.687 438.148C298.616 438.774 299.262 439.883 299.623 441.474L300.765 446.506C301.126 448.098 301.025 449.384 300.46 450.366C299.907 451.328 298.929 451.968 297.525 452.287C296.12 452.606 294.953 452.452 294.024 451.827C293.106 451.182 292.467 450.064 292.105 448.472L290.963 443.44C290.602 441.849 290.698 440.572 291.25 439.609C291.815 438.628 292.8 437.978 294.204 437.659ZM294.586 439.344C293.026 439.699 292.467 440.851 292.91 442.801L294.137 448.208C294.58 450.158 295.582 450.956 297.142 450.602C298.702 450.248 299.261 449.095 298.818 447.145L297.591 441.739C297.148 439.788 296.147 438.99 294.586 439.344ZM303.121 435.635C304.634 435.291 305.819 435.342 306.675 435.788C307.531 436.234 308.097 437.065 308.373 438.282L308.49 438.797C308.657 439.53 308.686 440.237 308.578 440.918C308.47 441.599 308.124 442.498 307.541 443.614L305.077 448.481L310.577 447.232L310.965 448.941L303.078 450.731L302.732 449.21L306.069 442.226C306.382 441.581 306.562 441.072 306.609 440.7C306.668 440.31 306.634 439.833 306.506 439.272L306.41 438.85C306.24 438.102 305.925 437.615 305.464 437.392C305.015 437.149 304.362 437.125 303.504 437.32C303.082 437.416 302.611 437.58 302.09 437.813C301.565 438.031 301.092 438.261 300.671 438.504L300.284 436.796C301.411 436.195 302.356 435.808 303.121 435.635ZM314.021 433.161C315.425 432.842 316.586 433.005 317.504 433.65C318.433 434.275 319.079 435.384 319.44 436.976L320.582 442.008C320.943 443.599 320.842 444.885 320.277 445.867C319.724 446.829 318.746 447.47 317.342 447.788C315.937 448.107 314.77 447.954 313.841 447.328C312.923 446.683 312.284 445.565 311.923 443.973L310.78 438.941C310.419 437.35 310.515 436.073 311.067 435.111C311.632 434.129 312.617 433.479 314.021 433.161ZM314.403 434.846C312.843 435.2 312.284 436.352 312.727 438.303L313.954 443.709C314.397 445.659 315.399 446.457 316.959 446.103C318.519 445.749 319.078 444.597 318.635 442.646L317.408 437.24C316.965 435.29 315.964 434.491 314.403 434.846Z" fill="white"/>
<g filter="url(#filter0_d)">
<path d="M202.039 518.787L200.427 511.981L200.018 518.34L198.686 518.642L195.572 513.084L197.057 519.918L196.004 520.157L194.195 511.836L195.793 511.474L199.14 517.526L199.533 510.625L201.13 510.262L203.091 518.549L202.039 518.787ZM205.458 511.346C206.168 511.185 206.753 511.256 207.213 511.561C207.673 511.865 207.987 512.385 208.154 513.12L208.45 514.426L205.192 515.165L205.362 515.913C205.46 516.344 205.632 516.634 205.879 516.783C206.133 516.92 206.483 516.939 206.931 516.837C207.371 516.737 207.905 516.545 208.533 516.26L208.772 517.192C208.018 517.514 207.473 517.714 207.134 517.791C206.298 517.981 205.652 517.936 205.198 517.657C204.752 517.376 204.443 516.855 204.27 516.095L203.818 514.104C203.651 513.369 203.701 512.767 203.968 512.297C204.243 511.826 204.74 511.509 205.458 511.346ZM205.662 512.246C205.333 512.321 205.095 512.486 204.948 512.741C204.8 512.988 204.77 513.306 204.858 513.695L204.996 514.303L207.177 513.808L207.047 513.238C206.955 512.832 206.784 512.547 206.533 512.382C206.291 512.214 206.001 512.169 205.662 512.246ZM211.091 510.067C211.801 509.906 212.386 509.977 212.846 510.282C213.306 510.586 213.62 511.106 213.787 511.841L214.083 513.147L210.825 513.887L210.995 514.635C211.093 515.066 211.265 515.355 211.512 515.504C211.766 515.642 212.116 515.66 212.564 515.558C213.004 515.458 213.538 515.266 214.166 514.981L214.405 515.914C213.651 516.236 213.106 516.435 212.768 516.512C211.931 516.702 211.285 516.657 210.831 516.378C210.385 516.097 210.076 515.577 209.903 514.816L209.451 512.826C209.284 512.09 209.334 511.488 209.601 511.019C209.876 510.547 210.373 510.23 211.091 510.067ZM211.296 510.967C210.966 511.042 210.728 511.207 210.581 511.463C210.433 511.709 210.403 512.027 210.491 512.416L210.629 513.025L212.81 512.53L212.68 511.959C212.588 511.553 212.417 511.268 212.166 511.103C211.924 510.936 211.634 510.89 211.296 510.967ZM216.035 509.105L217.683 508.731L217.885 509.618L216.237 509.992L217.06 513.618C217.133 513.939 217.249 514.157 217.408 514.272C217.574 514.376 217.797 514.397 218.075 514.334C218.43 514.253 218.767 514.132 219.086 513.971L219.316 514.865C218.967 515.051 218.641 515.179 218.336 515.248C217.66 515.401 217.132 515.366 216.752 515.141C216.379 514.906 216.116 514.45 215.962 513.774L215.159 510.237L214.272 510.438L214.07 509.551L214.958 509.349L214.786 507.655L215.661 507.457L216.035 509.105ZM220.129 508.175L221.533 514.362L220.456 514.607L219.051 508.42L220.129 508.175ZM219.017 505.802C219.245 505.75 219.43 505.761 219.571 505.836C219.721 505.908 219.817 506.038 219.859 506.224L219.942 506.591C219.985 506.777 219.954 506.935 219.85 507.066C219.753 507.185 219.59 507.271 219.362 507.323C219.142 507.373 218.958 507.366 218.811 507.302C218.669 507.227 218.577 507.097 218.535 506.911L218.452 506.543C218.41 506.357 218.436 506.2 218.531 506.072C218.635 505.942 218.797 505.852 219.017 505.802ZM224.564 507.009C225.105 506.886 225.562 506.978 225.933 507.284C226.312 507.581 226.578 508.067 226.731 508.743L227.689 512.964L226.612 513.209L225.688 509.14C225.496 508.294 225.126 507.934 224.576 508.059C224.331 508.115 224.103 508.264 223.892 508.508C223.68 508.751 223.518 509.055 223.405 509.418L224.381 513.716L223.303 513.96L221.899 507.774L222.913 507.543L223.123 508.469C223.272 508.071 223.466 507.747 223.702 507.498C223.947 507.246 224.235 507.083 224.564 507.009ZM230.058 505.761C230.43 505.677 230.78 505.655 231.109 505.696L233.081 505.222L233.297 506.173L232.252 506.383C232.465 506.655 232.608 506.955 232.683 507.285L232.747 507.564C232.887 508.181 232.81 508.723 232.516 509.189C232.22 509.648 231.73 509.954 231.045 510.11C230.605 510.21 230.237 510.249 229.939 510.228C229.787 510.422 229.734 510.616 229.778 510.811L229.795 510.887C229.826 511.022 229.891 511.114 229.991 511.162C230.089 511.202 230.262 511.203 230.511 511.164L232.432 510.875C232.828 510.82 233.174 510.897 233.471 511.106C233.773 511.303 233.969 511.597 234.057 511.986L234.163 512.455C234.246 512.818 234.241 513.13 234.149 513.391C234.057 513.652 233.831 513.885 233.469 514.092C233.115 514.297 232.579 514.481 231.861 514.644C231.59 514.705 231.263 514.748 230.877 514.774C230.5 514.797 230.137 514.8 229.786 514.781L229.597 513.771C230.442 513.855 231.139 513.834 231.689 513.71C232.145 513.606 232.477 513.5 232.683 513.391C232.9 513.288 233.029 513.174 233.072 513.049C233.123 512.922 233.124 512.748 233.074 512.529L233.051 512.427C233.007 512.233 232.917 512.093 232.782 512.008C232.656 511.921 232.495 511.896 232.298 511.932L230.368 512.236C229.957 512.303 229.622 512.259 229.365 512.104C229.107 511.949 228.939 511.699 228.861 511.352L228.803 511.099C228.761 510.913 228.766 510.72 228.819 510.522C228.88 510.321 228.988 510.132 229.143 509.955C228.963 509.827 228.812 509.648 228.688 509.418C228.572 509.178 228.472 508.876 228.39 508.513L228.326 508.234C228.19 507.634 228.268 507.114 228.559 506.675C228.848 506.227 229.348 505.923 230.058 505.761ZM230.262 506.662C229.907 506.742 229.654 506.897 229.501 507.128C229.356 507.347 229.321 507.626 229.398 507.964L229.493 508.383C229.564 508.695 229.642 508.922 229.727 509.062C229.819 509.193 229.944 509.271 230.101 509.298C230.256 509.316 230.477 509.292 230.765 509.227C231.153 509.139 231.424 508.98 231.576 508.749C231.728 508.519 231.765 508.231 231.686 507.885L231.6 507.504C231.519 507.149 231.399 506.852 231.238 506.613C231.127 506.594 230.979 506.588 230.793 506.594C230.617 506.599 230.44 506.621 230.262 506.662ZM237.449 504.244L238.853 510.43L237.776 510.675L236.371 504.488L237.449 504.244ZM236.337 501.87C236.565 501.818 236.75 501.829 236.891 501.904C237.041 501.977 237.137 502.106 237.179 502.292L237.262 502.66C237.305 502.845 237.274 503.004 237.17 503.134C237.073 503.254 236.91 503.339 236.682 503.391C236.462 503.441 236.278 503.434 236.131 503.37C235.989 503.295 235.897 503.165 235.855 502.979L235.772 502.611C235.73 502.425 235.756 502.268 235.851 502.14C235.955 502.01 236.117 501.92 236.337 501.87ZM244.883 509.061L243.856 509.295L243.628 508.293C243.296 509.177 242.804 509.693 242.154 509.841C241.63 509.96 241.188 509.874 240.828 509.582C240.467 509.282 240.208 508.785 240.05 508.092L239.538 505.836C239.386 505.168 239.421 504.614 239.64 504.173C239.869 503.73 240.27 503.443 240.845 503.313C241.09 503.257 241.362 503.262 241.661 503.327C241.959 503.384 242.242 503.476 242.51 503.601L241.839 500.647L242.917 500.403L244.883 509.061ZM241.304 504.221C241 504.291 240.788 504.454 240.669 504.712C240.557 504.96 240.55 505.304 240.65 505.743L241.096 507.708C241.292 508.57 241.656 508.941 242.188 508.82C242.442 508.762 242.669 508.609 242.87 508.359C243.078 508.098 243.242 507.763 243.362 507.354L242.729 504.565C242.509 504.419 242.263 504.315 241.991 504.252C241.728 504.188 241.499 504.177 241.304 504.221ZM254.98 500.264L254.952 506.776L253.596 507.084L251.149 502.12L251.073 507.656L249.716 507.964L246.892 502.1L248.033 501.841L250.223 506.849L250.239 501.34L251.633 501.024L254.014 505.989L253.839 500.523L254.98 500.264ZM257.195 499.761L258.6 505.948L257.522 506.192L256.118 500.006L257.195 499.761ZM256.083 497.387C256.311 497.335 256.496 497.347 256.638 497.421C256.787 497.494 256.883 497.623 256.926 497.809L257.009 498.177C257.051 498.363 257.021 498.521 256.917 498.651C256.82 498.771 256.657 498.857 256.429 498.909C256.209 498.958 256.025 498.951 255.877 498.887C255.736 498.813 255.644 498.682 255.602 498.496L255.518 498.129C255.476 497.943 255.503 497.786 255.598 497.657C255.702 497.527 255.864 497.437 256.083 497.387ZM259.482 496.642L261.447 505.301L260.37 505.546L258.404 496.887L259.482 496.642ZM262.329 495.996L264.295 504.655L263.217 504.899L261.252 496.241L262.329 495.996ZM268.139 498.143C268.288 497.78 268.487 497.482 268.736 497.248C268.985 497.013 269.266 496.861 269.579 496.79C270.103 496.671 270.55 496.765 270.922 497.071C271.292 497.37 271.557 497.869 271.716 498.571L272.171 500.574C272.345 501.343 272.296 501.967 272.023 502.447C271.747 502.918 271.23 503.24 270.469 503.413C269.725 503.582 269.137 503.516 268.704 503.214C268.271 502.912 267.966 502.373 267.79 501.595L266.314 495.092L267.391 494.847L268.139 498.143ZM269.544 497.811C269.299 497.867 269.07 498.016 268.859 498.26C268.648 498.503 268.486 498.807 268.373 499.17L268.896 501.477C268.99 501.891 269.155 502.187 269.391 502.365C269.635 502.54 269.927 502.59 270.265 502.513C271.034 502.338 271.319 501.816 271.122 500.945L270.673 498.968C270.469 498.072 270.093 497.686 269.544 497.811ZM274.899 495.582C275.609 495.421 276.194 495.492 276.654 495.797C277.115 496.101 277.428 496.621 277.595 497.356L277.891 498.662L274.633 499.402L274.803 500.15C274.901 500.581 275.073 500.87 275.32 501.019C275.574 501.157 275.925 501.175 276.373 501.073C276.812 500.973 277.346 500.781 277.975 500.496L278.213 501.429C277.459 501.751 276.914 501.95 276.576 502.027C275.739 502.217 275.093 502.172 274.639 501.893C274.193 501.612 273.884 501.092 273.711 500.331L273.259 498.34C273.092 497.605 273.142 497.003 273.409 496.534C273.684 496.062 274.181 495.745 274.899 495.582ZM275.104 496.482C274.774 496.557 274.536 496.722 274.39 496.977C274.241 497.224 274.211 497.542 274.299 497.931L274.438 498.54L276.618 498.045L276.489 497.474C276.397 497.068 276.225 496.783 275.974 496.618C275.732 496.451 275.442 496.405 275.104 496.482ZM282.594 493.835C282.949 493.755 283.387 493.708 283.909 493.697L284.091 494.615C283.628 494.614 283.215 494.654 282.852 494.737C282.091 494.909 281.767 495.241 281.878 495.731L281.904 495.845C281.938 495.997 282.004 496.111 282.101 496.187C282.207 496.26 282.377 496.324 282.611 496.378L283.929 496.665C284.725 496.84 285.196 497.253 285.344 497.903L285.407 498.182C285.531 498.767 285.453 499.247 285.174 499.622C284.901 499.986 284.397 500.251 283.662 500.418C283.281 500.505 282.716 500.54 281.966 500.523L281.798 499.548C282.474 499.59 283.015 499.565 283.421 499.473C283.835 499.379 284.11 499.259 284.245 499.113C284.379 498.958 284.416 498.749 284.357 498.487L284.328 498.361C284.282 498.158 284.203 498.007 284.092 497.908C283.989 497.807 283.835 497.735 283.63 497.693L282.276 497.427C281.866 497.342 281.545 497.202 281.314 497.005C281.091 496.807 280.944 496.551 280.873 496.239L280.833 496.061C280.72 495.483 280.799 495.011 281.072 494.647C281.351 494.273 281.859 494.002 282.594 493.835ZM286.959 493.871C287.276 493.114 287.743 492.666 288.36 492.526C288.901 492.403 289.357 492.495 289.729 492.802C290.107 493.098 290.373 493.585 290.527 494.261L291.485 498.482L290.408 498.727L289.484 494.657C289.292 493.812 288.921 493.452 288.372 493.577C288.127 493.632 287.899 493.782 287.687 494.025C287.476 494.269 287.314 494.572 287.201 494.936L288.176 499.233L287.099 499.478L285.133 490.819L286.211 490.575L286.959 493.871ZM293.652 491.325C294.379 491.16 294.945 491.205 295.349 491.46C295.76 491.704 296.046 492.181 296.207 492.891L297.183 497.189L296.156 497.422L295.932 496.433C295.614 497.305 295.147 497.811 294.53 497.951C294.04 498.062 293.608 497.982 293.236 497.712C292.872 497.439 292.623 497.011 292.491 496.428L292.41 496.073C292.295 495.565 292.374 495.108 292.645 494.7C292.915 494.283 293.342 494.008 293.925 493.876C294.246 493.803 294.694 493.759 295.268 493.744L295.11 493.047C295.027 492.684 294.883 492.441 294.678 492.319C294.481 492.194 294.209 492.172 293.862 492.25C293.457 492.342 292.901 492.535 292.194 492.829L291.984 491.904C292.75 491.596 293.306 491.404 293.652 491.325ZM294.381 494.652C294.026 494.733 293.777 494.887 293.633 495.115C293.489 495.343 293.456 495.626 293.532 495.965L293.564 496.104C293.635 496.417 293.763 496.645 293.946 496.79C294.13 496.935 294.332 496.983 294.552 496.933C294.78 496.881 294.991 496.731 295.183 496.483C295.382 496.225 295.542 495.891 295.662 495.481L295.441 494.505C295.106 494.519 294.753 494.568 294.381 494.652ZM300.159 489.848C300.277 489.821 300.372 489.808 300.443 489.81L300.72 491.027C300.587 491.03 300.419 491.055 300.216 491.101C299.625 491.235 299.223 491.638 299.011 492.308L299.975 496.555L298.897 496.8L297.493 490.613L298.507 490.383L298.717 491.308C298.867 490.91 299.06 490.586 299.296 490.337C299.542 490.086 299.829 489.923 300.159 489.848ZM303.523 489.084C304.233 488.923 304.818 488.995 305.278 489.299C305.738 489.603 306.051 490.123 306.218 490.858L306.515 492.164L303.257 492.904L303.426 493.652C303.524 494.083 303.697 494.373 303.944 494.521C304.197 494.659 304.548 494.677 304.996 494.575C305.435 494.476 305.969 494.283 306.598 493.998L306.836 494.931C306.083 495.253 305.537 495.452 305.199 495.529C304.362 495.719 303.717 495.674 303.262 495.395C302.816 495.115 302.507 494.594 302.334 493.833L301.883 491.843C301.716 491.107 301.766 490.505 302.032 490.036C302.307 489.564 302.804 489.247 303.523 489.084ZM303.727 489.984C303.397 490.059 303.159 490.224 303.013 490.48C302.865 490.727 302.835 491.045 302.923 491.433L303.061 492.042L305.241 491.547L305.112 490.976C305.02 490.571 304.848 490.285 304.598 490.12C304.355 489.953 304.065 489.908 303.727 489.984ZM312.863 493.629L311.836 493.862L311.609 492.861C311.276 493.745 310.785 494.261 310.134 494.409C309.61 494.528 309.168 494.441 308.809 494.15C308.447 493.85 308.188 493.353 308.031 492.66L307.518 490.403C307.367 489.736 307.401 489.181 307.621 488.74C307.849 488.298 308.25 488.011 308.825 487.88C309.07 487.825 309.342 487.83 309.642 487.895C309.939 487.952 310.222 488.043 310.49 488.169L309.82 485.215L310.897 484.971L312.863 493.629ZM309.285 488.789C308.981 488.858 308.769 489.022 308.65 489.28C308.537 489.528 308.531 489.871 308.63 490.311L309.076 492.276C309.272 493.138 309.636 493.509 310.169 493.388C310.422 493.33 310.65 493.176 310.85 492.926C311.058 492.666 311.222 492.331 311.342 491.922L310.709 489.133C310.489 488.987 310.244 488.883 309.972 488.82C309.708 488.755 309.479 488.745 309.285 488.789ZM316.707 487.118C316.856 486.755 317.055 486.457 317.304 486.222C317.553 485.988 317.834 485.835 318.147 485.764C318.671 485.645 319.118 485.739 319.49 486.046C319.86 486.344 320.125 486.844 320.284 487.545L320.739 489.549C320.913 490.318 320.864 490.942 320.591 491.422C320.315 491.893 319.798 492.215 319.037 492.388C318.293 492.557 317.705 492.49 317.272 492.188C316.839 491.887 316.534 491.347 316.358 490.57L314.882 484.066L315.959 483.821L316.707 487.118ZM318.112 486.785C317.867 486.841 317.638 486.991 317.427 487.234C317.216 487.478 317.054 487.781 316.941 488.144L317.464 490.452C317.558 490.866 317.723 491.162 317.959 491.339C318.203 491.515 318.495 491.564 318.833 491.488C319.602 491.313 319.887 490.79 319.69 489.92L319.241 487.942C319.037 487.046 318.661 486.661 318.112 486.785ZM323.467 484.557C324.177 484.395 324.762 484.467 325.222 484.771C325.683 485.076 325.996 485.596 326.163 486.331L326.459 487.637L323.201 488.376L323.371 489.124C323.469 489.555 323.641 489.845 323.888 489.993C324.142 490.131 324.493 490.149 324.941 490.048C325.38 489.948 325.914 489.756 326.543 489.471L326.781 490.403C326.027 490.725 325.482 490.925 325.144 491.001C324.307 491.191 323.661 491.147 323.207 490.868C322.761 490.587 322.452 490.066 322.279 489.305L321.827 487.315C321.66 486.58 321.71 485.977 321.977 485.508C322.252 485.037 322.749 484.72 323.467 484.557ZM323.672 485.457C323.342 485.532 323.104 485.697 322.958 485.952C322.809 486.199 322.779 486.517 322.867 486.906L323.006 487.514L325.186 487.019L325.057 486.449C324.965 486.043 324.793 485.758 324.542 485.592C324.3 485.425 324.01 485.38 323.672 485.457ZM328.83 480.74C329.109 480.676 329.382 480.646 329.649 480.647L329.844 481.509C329.581 481.525 329.314 481.563 329.044 481.624C328.782 481.684 328.594 481.815 328.48 482.019C328.375 482.22 328.362 482.495 328.44 482.841L328.602 483.551L329.869 483.263L330.071 484.151L328.803 484.438L330.006 489.738L328.928 489.982L327.725 484.683L326.838 484.885L326.637 483.997L327.524 483.796L327.377 483.149C327.236 482.488 327.289 481.956 327.535 481.554C327.781 481.151 328.213 480.88 328.83 480.74ZM332.928 482.409C333.68 482.238 334.284 482.314 334.739 482.638C335.201 482.95 335.516 483.474 335.683 484.21L336.109 486.086C336.276 486.821 336.219 487.434 335.939 487.924C335.666 488.404 335.153 488.729 334.401 488.9C333.649 489.071 333.042 489 332.58 488.687C332.124 488.364 331.813 487.834 331.646 487.099L331.22 485.223C331.053 484.488 331.106 483.88 331.38 483.4C331.66 482.91 332.175 482.58 332.928 482.409ZM333.132 483.309C332.769 483.392 332.511 483.57 332.36 483.844C332.209 484.118 332.182 484.467 332.278 484.889L332.744 486.943C332.84 487.366 333.015 487.668 333.27 487.85C333.524 488.032 333.833 488.082 334.197 488C334.56 487.917 334.817 487.739 334.969 487.465C335.12 487.19 335.147 486.842 335.051 486.419L334.582 484.353C334.486 483.93 334.312 483.632 334.059 483.459C333.804 483.276 333.495 483.227 333.132 483.309ZM339.503 480.916C339.622 480.889 339.716 480.877 339.788 480.878L340.064 482.095C339.932 482.099 339.764 482.124 339.561 482.17C338.969 482.304 338.568 482.706 338.355 483.376L339.319 487.623L338.242 487.868L336.837 481.681L337.852 481.451L338.062 482.377C338.211 481.978 338.404 481.655 338.641 481.405C338.886 481.154 339.174 480.991 339.503 480.916ZM342.867 480.153C343.577 479.991 344.162 480.063 344.622 480.367C345.083 480.672 345.396 481.192 345.563 481.927L345.859 483.233L342.601 483.972L342.771 484.72C342.869 485.151 343.041 485.441 343.288 485.589C343.542 485.727 343.893 485.745 344.34 485.644C344.78 485.544 345.314 485.352 345.942 485.067L346.181 485.999C345.427 486.321 344.882 486.521 344.544 486.597C343.707 486.787 343.061 486.743 342.607 486.464C342.161 486.183 341.852 485.662 341.679 484.901L341.227 482.911C341.06 482.176 341.11 481.574 341.377 481.104C341.652 480.633 342.149 480.316 342.867 480.153ZM343.072 481.053C342.742 481.128 342.504 481.293 342.358 481.548C342.209 481.795 342.179 482.113 342.267 482.502L342.406 483.11L344.586 482.615L344.457 482.045C344.365 481.639 344.193 481.354 343.942 481.188C343.7 481.021 343.41 480.976 343.072 481.053ZM350.614 477.048L352.343 484.667L351.266 484.912L349.772 478.332L349.747 478.338L348.225 479.443L347.799 478.567L349.663 477.264L350.614 477.048ZM356.298 476.69L353.433 477.341L353.994 479.813C354.388 479.315 354.918 478.99 355.586 478.838C356.169 478.706 356.644 478.78 357.01 479.062C357.382 479.333 357.654 479.844 357.825 480.596L357.928 481.053C358.289 482.642 357.645 483.623 355.997 483.997C355.702 484.064 355.369 484.109 355.001 484.13C354.635 484.16 354.308 484.168 354.02 484.153L353.821 483.278C354.078 483.273 354.416 483.254 354.835 483.221C355.252 483.18 355.562 483.136 355.765 483.09C356.23 482.985 356.553 482.783 356.734 482.484C356.921 482.175 356.96 481.779 356.851 481.297L356.739 480.803C356.554 479.992 356.15 479.657 355.524 479.799C355.186 479.876 354.901 480.007 354.667 480.193C354.443 480.378 354.233 480.648 354.038 481.003L353.214 481.19L352.184 476.651L356.088 475.765L356.298 476.69ZM366.556 474.775C367.097 474.652 367.553 474.744 367.925 475.051C368.295 475.349 368.557 475.836 368.71 476.512L369.668 480.734L368.591 480.979L367.667 476.909C367.475 476.064 367.109 475.703 366.568 475.825C366.331 475.879 366.107 476.028 365.896 476.271C365.693 476.513 365.535 476.815 365.422 477.179L366.398 481.476L365.32 481.721L364.396 477.652C364.204 476.806 363.838 476.445 363.297 476.568C363.06 476.622 362.836 476.77 362.625 477.014C362.422 477.255 362.264 477.558 362.151 477.921L363.127 482.219L362.049 482.464L360.645 476.277L361.659 476.047L361.869 476.972C362.01 476.576 362.203 476.252 362.448 476.001C362.694 475.75 362.973 475.589 363.285 475.518C363.674 475.429 364.022 475.457 364.33 475.6C364.637 475.735 364.892 475.979 365.097 476.333C365.238 475.901 365.435 475.554 365.687 475.292C365.937 475.022 366.226 474.85 366.556 474.775ZM371.119 473.899L372.523 480.086L371.446 480.33L370.041 474.144L371.119 473.899ZM370.007 471.525C370.235 471.474 370.42 471.485 370.561 471.56C370.711 471.632 370.807 471.762 370.849 471.947L370.933 472.315C370.975 472.501 370.944 472.659 370.84 472.789C370.743 472.909 370.581 472.995 370.352 473.047C370.133 473.097 369.949 473.089 369.801 473.025C369.66 472.951 369.568 472.82 369.526 472.635L369.442 472.267C369.4 472.081 369.426 471.924 369.522 471.796C369.625 471.665 369.787 471.575 370.007 471.525ZM375.555 472.732C376.096 472.609 376.552 472.701 376.924 473.008C377.302 473.304 377.568 473.79 377.721 474.467L378.68 478.688L377.602 478.933L376.678 474.863C376.487 474.018 376.116 473.658 375.567 473.783C375.321 473.838 375.093 473.988 374.882 474.231C374.671 474.475 374.508 474.778 374.395 475.142L375.371 479.439L374.293 479.684L372.889 473.497L373.903 473.267L374.113 474.193C374.263 473.794 374.456 473.47 374.693 473.221C374.938 472.97 375.225 472.807 375.555 472.732Z" fill="black"/>
</g>
<circle cx="277.5" cy="74.5" r="9.5" fill="#FFEDED"/>
<path d="M283 74C283 74 345.782 86.2643 335 108C327.586 122.946 297.104 106.45 295 123C293.119 137.793 322 150 322 150" stroke="#716767" stroke-width="2"/>
<path d="M285 127C285 127 292.752 105.533 299 111C303.702 115.114 303.702 122.885 299 127" stroke="#716767" stroke-width="2"/>
</g>
<rect x="0.67041" y="83.5671" width="375" height="569" transform="rotate(-12.7899 0.67041 83.5671)" stroke="#DBCCCC"/>
<defs>
<filter id="filter0_d" x="190.195" y="471.494" width="192.484" height="56.6637" filterUnits="userSpaceOnUse" color-interpolation-filters="sRGB">
<feFlood flood-opacity="0" result="BackgroundImageFix"/>
<feColorMatrix in="SourceAlpha" type="matrix" values="0 0 0 0 0 0 0 0 0 0 0 0 0 0 0 0 0 0 127 0"/>
<feOffset dy="4"/>
<feGaussianBlur stdDeviation="2"/>
<feColorMatrix type="matrix" values="0 0 0 0 0 0 0 0 0 0 0 0 0 0 0 0 0 0 0.25 0"/>
<feBlend mode="normal" in2="BackgroundImageFix" result="effect1_dropShadow"/>
<feBlend mode="normal" in="SourceGraphic" in2="effect1_dropShadow" result="shape"/>
</filter>
<clipPath id="clip0">
</clipPath>
</defs>
</svg>
