<svg width="1050" height="600" viewBox="0 0 1050 600" fill="none" xmlns="http://www.w3.org/2000/svg">
<g clip-path="url(#clip0)">
<rect width="1050" height="600" rx="4" fill="white"/>
<path d="M0 1H410L303.26 307L410 601H0V1Z" fill="#06ABEB"/>
<path d="M410 1H1049V601H410L302 307L410 1Z" fill="#2B2F3B" fill-opacity="0.97"/>
<g filter="url(#filter0_d)">
<path d="M503 300L390.5 476.669L165.5 476.669L53 300L165.5 123.331L390.5 123.331L503 300Z" fill="white" fill-opacity="0.92"/>
</g>
<g filter="url(#filter1_d)">
<path d="M503 300L390.5 476.669L165.5 476.669L53 300L165.5 123.331L390.5 123.331L503 300Z" fill="#2A2E3A" fill-opacity="0.92"/>
</g>
<line x1="107.997" y1="300" x2="454.997" y2="299" stroke="#EEF20F" stroke-width="2"/>
<path d="M616 187.167C608.26 187.167 602 192.123 602 198.25C602 206.563 616 218.833 616 218.833C616 218.833 630 206.563 630 198.25C630 192.123 623.74 187.167 616 187.167ZM616 202.208C613.24 202.208 611 200.435 611 198.25C611 196.065 613.24 194.292 616 194.292C618.76 194.292 621 196.065 621 198.25C621 200.435 618.76 202.208 616 202.208Z" fill="#06ABEB"/>
<path d="M605.234 249.983C607.714 254.7 611.71 258.55 616.584 260.967L620.373 257.3C620.838 256.85 621.527 256.7 622.129 256.9C624.058 257.517 626.142 257.85 628.278 257.85C629.225 257.85 630 258.6 630 259.517V265.333C630 266.25 629.225 267 628.278 267C612.106 267 599 254.317 599 238.667C599 237.75 599.775 237 600.722 237H606.75C607.697 237 608.472 237.75 608.472 238.667C608.472 240.75 608.817 242.75 609.454 244.617C609.643 245.2 609.506 245.85 609.023 246.317L605.234 249.983Z" fill="#06ABEB"/>
<path d="M627.667 296.667H606.333C604.867 296.667 603.68 297.942 603.68 299.5L603.667 316.5C603.667 318.058 604.867 319.333 606.333 319.333H627.667C629.133 319.333 630.333 318.058 630.333 316.5V299.5C630.333 297.942 629.133 296.667 627.667 296.667ZM627.667 302.333L617 309.417L606.333 302.333V299.5L617 306.583L627.667 299.5V302.333Z" fill="#06ABEB"/>
<path d="M615.5 351.333C606.53 351.333 599.25 358.8 599.25 368C599.25 377.2 606.53 384.667 615.5 384.667C624.47 384.667 631.75 377.2 631.75 368C631.75 358.8 624.47 351.333 615.5 351.333ZM617.125 376.333H613.875V366.333H617.125V376.333ZM617.125 363H613.875V359.667H617.125V363Z" fill="#06ABEB"/>
<path d="M673.514 209.996H671.629L670.926 214H669.139L669.842 209.996H667.625V208.316H670.135L670.623 205.543H668.357V203.844H670.926L671.639 199.781H673.416L672.703 203.844H674.598L675.311 199.781H677.098L676.385 203.844H678.523V205.543H676.082L675.594 208.316H677.781V209.996H675.301L674.598 214H672.811L673.514 209.996ZM671.922 208.316H673.807L674.295 205.543H672.4L671.922 208.316ZM682.752 205.641H684.256C684.972 205.641 685.503 205.462 685.848 205.104C686.193 204.745 686.365 204.27 686.365 203.678C686.365 203.105 686.193 202.659 685.848 202.34C685.509 202.021 685.04 201.861 684.441 201.861C683.901 201.861 683.449 202.011 683.084 202.311C682.719 202.604 682.537 202.988 682.537 203.463H679.715C679.715 202.721 679.913 202.057 680.311 201.471C680.714 200.878 681.274 200.416 681.99 200.084C682.713 199.752 683.507 199.586 684.373 199.586C685.877 199.586 687.055 199.947 687.908 200.67C688.761 201.386 689.188 202.376 689.188 203.639C689.188 204.29 688.989 204.889 688.592 205.436C688.195 205.982 687.674 206.402 687.029 206.695C687.83 206.982 688.426 207.411 688.816 207.984C689.214 208.557 689.412 209.234 689.412 210.016C689.412 211.279 688.95 212.291 688.025 213.053C687.107 213.814 685.89 214.195 684.373 214.195C682.954 214.195 681.792 213.821 680.887 213.072C679.988 212.324 679.539 211.334 679.539 210.104H682.361C682.361 210.637 682.56 211.074 682.957 211.412C683.361 211.751 683.855 211.92 684.441 211.92C685.112 211.92 685.636 211.744 686.014 211.393C686.398 211.035 686.59 210.562 686.59 209.977C686.59 208.557 685.809 207.848 684.246 207.848H682.752V205.641ZM701.033 201.363L695.535 214H692.557L698.064 202.066H690.994V199.781H701.033V201.363ZM703.699 217.564L702.225 216.793L702.576 216.158C703.012 215.364 703.237 214.573 703.25 213.785V211.598H705.633L705.623 213.551C705.617 214.273 705.434 215.003 705.076 215.738C704.718 216.474 704.259 217.083 703.699 217.564ZM715.818 203.434V214.576C715.818 215.742 715.509 216.646 714.891 217.291C714.272 217.942 713.38 218.268 712.215 218.268C711.727 218.268 711.261 218.212 710.818 218.102V215.865C711.157 215.924 711.453 215.953 711.707 215.953C712.56 215.953 712.986 215.501 712.986 214.596V203.434H715.818ZM712.762 200.699C712.762 200.276 712.902 199.928 713.182 199.654C713.468 199.381 713.855 199.244 714.344 199.244C714.832 199.244 715.216 199.381 715.496 199.654C715.783 199.928 715.926 200.276 715.926 200.699C715.926 201.129 715.779 201.48 715.486 201.754C715.2 202.027 714.819 202.164 714.344 202.164C713.868 202.164 713.484 202.027 713.191 201.754C712.905 201.48 712.762 201.129 712.762 200.699ZM721.004 214H718.172V203.434H721.004V214ZM718.006 200.699C718.006 200.276 718.146 199.928 718.426 199.654C718.712 199.381 719.1 199.244 719.588 199.244C720.07 199.244 720.454 199.381 720.74 199.654C721.027 199.928 721.17 200.276 721.17 200.699C721.17 201.129 721.023 201.48 720.73 201.754C720.444 202.027 720.063 202.164 719.588 202.164C719.113 202.164 718.729 202.027 718.436 201.754C718.149 201.48 718.006 201.129 718.006 200.699ZM725.984 203.434L726.072 204.615C726.821 203.697 727.833 203.238 729.109 203.238C730.47 203.238 731.404 203.775 731.912 204.85C732.654 203.775 733.712 203.238 735.086 203.238C736.232 203.238 737.085 203.574 737.645 204.244C738.204 204.908 738.484 205.911 738.484 207.252V214H735.652V207.262C735.652 206.663 735.535 206.227 735.301 205.953C735.066 205.673 734.653 205.533 734.061 205.533C733.214 205.533 732.628 205.937 732.303 206.744L732.312 214H729.49V207.271C729.49 206.66 729.37 206.217 729.129 205.943C728.888 205.67 728.478 205.533 727.898 205.533C727.098 205.533 726.518 205.865 726.16 206.529V214H723.338V203.434H725.984ZM743.309 203.434L743.396 204.615C744.145 203.697 745.158 203.238 746.434 203.238C747.794 203.238 748.729 203.775 749.236 204.85C749.979 203.775 751.036 203.238 752.41 203.238C753.556 203.238 754.409 203.574 754.969 204.244C755.529 204.908 755.809 205.911 755.809 207.252V214H752.977V207.262C752.977 206.663 752.859 206.227 752.625 205.953C752.391 205.673 751.977 205.533 751.385 205.533C750.538 205.533 749.952 205.937 749.627 206.744L749.637 214H746.814V207.271C746.814 206.66 746.694 206.217 746.453 205.943C746.212 205.67 745.802 205.533 745.223 205.533C744.422 205.533 743.842 205.865 743.484 206.529V214H740.662V203.434H743.309ZM764.109 214C763.979 213.746 763.885 213.43 763.826 213.053C763.143 213.814 762.254 214.195 761.16 214.195C760.125 214.195 759.266 213.896 758.582 213.297C757.905 212.698 757.566 211.943 757.566 211.031C757.566 209.911 757.98 209.052 758.807 208.453C759.64 207.854 760.841 207.551 762.41 207.545H763.709V206.939C763.709 206.451 763.582 206.061 763.328 205.768C763.081 205.475 762.687 205.328 762.146 205.328C761.671 205.328 761.297 205.442 761.023 205.67C760.757 205.898 760.623 206.21 760.623 206.607H757.801C757.801 205.995 757.99 205.429 758.367 204.908C758.745 204.387 759.279 203.98 759.969 203.688C760.659 203.388 761.434 203.238 762.293 203.238C763.595 203.238 764.627 203.567 765.389 204.225C766.157 204.876 766.541 205.794 766.541 206.979V211.559C766.548 212.561 766.688 213.32 766.961 213.834V214H764.109ZM761.775 212.037C762.192 212.037 762.576 211.946 762.928 211.764C763.279 211.575 763.54 211.324 763.709 211.012V209.195H762.654C761.242 209.195 760.49 209.684 760.398 210.66L760.389 210.826C760.389 211.178 760.512 211.467 760.76 211.695C761.007 211.923 761.346 212.037 761.775 212.037ZM771.307 203.434L771.395 204.654C772.15 203.71 773.162 203.238 774.432 203.238C775.551 203.238 776.385 203.567 776.932 204.225C777.479 204.882 777.758 205.865 777.771 207.174V214H774.949V207.242C774.949 206.643 774.819 206.21 774.559 205.943C774.298 205.67 773.865 205.533 773.26 205.533C772.465 205.533 771.87 205.872 771.473 206.549V214H768.65V203.434H771.307ZM782.518 203.434L782.605 204.654C783.361 203.71 784.373 203.238 785.643 203.238C786.762 203.238 787.596 203.567 788.143 204.225C788.689 204.882 788.969 205.865 788.982 207.174V214H786.16V207.242C786.16 206.643 786.03 206.21 785.77 205.943C785.509 205.67 785.076 205.533 784.471 205.533C783.676 205.533 783.081 205.872 782.684 206.549V214H779.861V203.434H782.518ZM797.254 214C797.124 213.746 797.029 213.43 796.971 213.053C796.287 213.814 795.398 214.195 794.305 214.195C793.27 214.195 792.41 213.896 791.727 213.297C791.049 212.698 790.711 211.943 790.711 211.031C790.711 209.911 791.124 209.052 791.951 208.453C792.785 207.854 793.986 207.551 795.555 207.545H796.854V206.939C796.854 206.451 796.727 206.061 796.473 205.768C796.225 205.475 795.831 205.328 795.291 205.328C794.816 205.328 794.441 205.442 794.168 205.67C793.901 205.898 793.768 206.21 793.768 206.607H790.945C790.945 205.995 791.134 205.429 791.512 204.908C791.889 204.387 792.423 203.98 793.113 203.688C793.803 203.388 794.578 203.238 795.438 203.238C796.74 203.238 797.771 203.567 798.533 204.225C799.301 204.876 799.686 205.794 799.686 206.979V211.559C799.692 212.561 799.832 213.32 800.105 213.834V214H797.254ZM794.92 212.037C795.337 212.037 795.721 211.946 796.072 211.764C796.424 211.575 796.684 211.324 796.854 211.012V209.195H795.799C794.386 209.195 793.634 209.684 793.543 210.66L793.533 210.826C793.533 211.178 793.657 211.467 793.904 211.695C794.152 211.923 794.49 212.037 794.92 212.037ZM805.652 210.553L807.615 203.434H810.564L807 214H804.305L800.74 203.434H803.689L805.652 210.553ZM817.781 214C817.651 213.746 817.557 213.43 817.498 213.053C816.814 213.814 815.926 214.195 814.832 214.195C813.797 214.195 812.938 213.896 812.254 213.297C811.577 212.698 811.238 211.943 811.238 211.031C811.238 209.911 811.652 209.052 812.479 208.453C813.312 207.854 814.513 207.551 816.082 207.545H817.381V206.939C817.381 206.451 817.254 206.061 817 205.768C816.753 205.475 816.359 205.328 815.818 205.328C815.343 205.328 814.969 205.442 814.695 205.67C814.428 205.898 814.295 206.21 814.295 206.607H811.473C811.473 205.995 811.661 205.429 812.039 204.908C812.417 204.387 812.951 203.98 813.641 203.688C814.331 203.388 815.105 203.238 815.965 203.238C817.267 203.238 818.299 203.567 819.061 204.225C819.829 204.876 820.213 205.794 820.213 206.979V211.559C820.219 212.561 820.359 213.32 820.633 213.834V214H817.781ZM815.447 212.037C815.864 212.037 816.248 211.946 816.6 211.764C816.951 211.575 817.212 211.324 817.381 211.012V209.195H816.326C814.913 209.195 814.161 209.684 814.07 210.66L814.061 210.826C814.061 211.178 814.184 211.467 814.432 211.695C814.679 211.923 815.018 212.037 815.447 212.037ZM828.318 206.08C827.934 206.028 827.596 206.002 827.303 206.002C826.235 206.002 825.535 206.363 825.203 207.086V214H822.381V203.434H825.047L825.125 204.693C825.691 203.723 826.476 203.238 827.479 203.238C827.791 203.238 828.084 203.281 828.357 203.365L828.318 206.08ZM842.225 210.27C842.225 209.716 842.029 209.293 841.639 209C841.248 208.701 840.545 208.388 839.529 208.062C838.514 207.73 837.71 207.405 837.117 207.086C835.503 206.214 834.695 205.038 834.695 203.561C834.695 202.792 834.91 202.109 835.34 201.51C835.776 200.904 836.398 200.432 837.205 200.094C838.019 199.755 838.93 199.586 839.939 199.586C840.955 199.586 841.86 199.771 842.654 200.143C843.449 200.507 844.064 201.025 844.5 201.695C844.943 202.366 845.164 203.128 845.164 203.98H842.234C842.234 203.329 842.029 202.825 841.619 202.467C841.209 202.102 840.633 201.92 839.891 201.92C839.174 201.92 838.618 202.073 838.221 202.379C837.824 202.678 837.625 203.076 837.625 203.57C837.625 204.033 837.856 204.42 838.318 204.732C838.787 205.045 839.474 205.338 840.379 205.611C842.046 206.113 843.26 206.734 844.021 207.477C844.783 208.219 845.164 209.143 845.164 210.25C845.164 211.48 844.699 212.447 843.768 213.15C842.837 213.847 841.583 214.195 840.008 214.195C838.914 214.195 837.918 213.997 837.02 213.6C836.121 213.196 835.434 212.646 834.959 211.949C834.49 211.253 834.256 210.445 834.256 209.527H837.195C837.195 211.096 838.133 211.881 840.008 211.881C840.704 211.881 841.248 211.741 841.639 211.461C842.029 211.174 842.225 210.777 842.225 210.27ZM850.35 200.836V203.434H852.156V205.504H850.35V210.777C850.35 211.168 850.424 211.448 850.574 211.617C850.724 211.786 851.01 211.871 851.434 211.871C851.746 211.871 852.023 211.848 852.264 211.803V213.941C851.71 214.111 851.141 214.195 850.555 214.195C848.576 214.195 847.566 213.196 847.527 211.197V205.504H845.984V203.434H847.527V200.836H850.35ZM859.666 206.08C859.282 206.028 858.943 206.002 858.65 206.002C857.583 206.002 856.883 206.363 856.551 207.086V214H853.729V203.434H856.395L856.473 204.693C857.039 203.723 857.824 203.238 858.826 203.238C859.139 203.238 859.432 203.281 859.705 203.365L859.666 206.08ZM865.701 214.195C864.152 214.195 862.889 213.72 861.912 212.77C860.942 211.819 860.457 210.553 860.457 208.971V208.697C860.457 207.636 860.662 206.689 861.072 205.855C861.482 205.016 862.062 204.371 862.811 203.922C863.566 203.466 864.425 203.238 865.389 203.238C866.834 203.238 867.97 203.694 868.797 204.605C869.63 205.517 870.047 206.809 870.047 208.482V209.635H863.318C863.41 210.325 863.683 210.878 864.139 211.295C864.601 211.712 865.184 211.92 865.887 211.92C866.974 211.92 867.824 211.526 868.436 210.738L869.822 212.291C869.399 212.89 868.826 213.359 868.104 213.697C867.381 214.029 866.58 214.195 865.701 214.195ZM865.379 205.523C864.819 205.523 864.363 205.712 864.012 206.09C863.667 206.467 863.445 207.008 863.348 207.711H867.273V207.486C867.26 206.861 867.091 206.38 866.766 206.041C866.44 205.696 865.978 205.523 865.379 205.523ZM876.521 214.195C874.972 214.195 873.709 213.72 872.732 212.77C871.762 211.819 871.277 210.553 871.277 208.971V208.697C871.277 207.636 871.482 206.689 871.893 205.855C872.303 205.016 872.882 204.371 873.631 203.922C874.386 203.466 875.245 203.238 876.209 203.238C877.654 203.238 878.79 203.694 879.617 204.605C880.451 205.517 880.867 206.809 880.867 208.482V209.635H874.139C874.23 210.325 874.503 210.878 874.959 211.295C875.421 211.712 876.004 211.92 876.707 211.92C877.794 211.92 878.644 211.526 879.256 210.738L880.643 212.291C880.219 212.89 879.646 213.359 878.924 213.697C878.201 214.029 877.4 214.195 876.521 214.195ZM876.199 205.523C875.639 205.523 875.184 205.712 874.832 206.09C874.487 206.467 874.266 207.008 874.168 207.711H878.094V207.486C878.081 206.861 877.911 206.38 877.586 206.041C877.26 205.696 876.798 205.523 876.199 205.523ZM885.857 200.836V203.434H887.664V205.504H885.857V210.777C885.857 211.168 885.932 211.448 886.082 211.617C886.232 211.786 886.518 211.871 886.941 211.871C887.254 211.871 887.531 211.848 887.771 211.803V213.941C887.218 214.111 886.648 214.195 886.062 214.195C884.083 214.195 883.074 213.196 883.035 211.197V205.504H881.492V203.434H883.035V200.836H885.857ZM894.949 217.564L893.475 216.793L893.826 216.158C894.262 215.364 894.487 214.573 894.5 213.785V211.598H896.883L896.873 213.551C896.867 214.273 896.684 215.003 896.326 215.738C895.968 216.474 895.509 217.083 894.949 217.564ZM904.266 214V199.781H909.246C910.971 199.781 912.28 200.113 913.172 200.777C914.064 201.435 914.51 202.402 914.51 203.678C914.51 204.374 914.331 204.99 913.973 205.523C913.615 206.051 913.117 206.438 912.479 206.686C913.208 206.868 913.781 207.236 914.197 207.789C914.62 208.342 914.832 209.02 914.832 209.82C914.832 211.188 914.396 212.223 913.523 212.926C912.651 213.629 911.408 213.987 909.793 214H904.266ZM907.195 207.809V211.646H909.705C910.395 211.646 910.932 211.484 911.316 211.158C911.707 210.826 911.902 210.37 911.902 209.791C911.902 208.489 911.229 207.828 909.881 207.809H907.195ZM907.195 205.738H909.363C910.841 205.712 911.58 205.123 911.58 203.971C911.58 203.326 911.391 202.864 911.014 202.584C910.643 202.298 910.053 202.154 909.246 202.154H907.195V205.738ZM922.977 214C922.846 213.746 922.752 213.43 922.693 213.053C922.01 213.814 921.121 214.195 920.027 214.195C918.992 214.195 918.133 213.896 917.449 213.297C916.772 212.698 916.434 211.943 916.434 211.031C916.434 209.911 916.847 209.052 917.674 208.453C918.507 207.854 919.708 207.551 921.277 207.545H922.576V206.939C922.576 206.451 922.449 206.061 922.195 205.768C921.948 205.475 921.554 205.328 921.014 205.328C920.538 205.328 920.164 205.442 919.891 205.67C919.624 205.898 919.49 206.21 919.49 206.607H916.668C916.668 205.995 916.857 205.429 917.234 204.908C917.612 204.387 918.146 203.98 918.836 203.688C919.526 203.388 920.301 203.238 921.16 203.238C922.462 203.238 923.494 203.567 924.256 204.225C925.024 204.876 925.408 205.794 925.408 206.979V211.559C925.415 212.561 925.555 213.32 925.828 213.834V214H922.977ZM920.643 212.037C921.059 212.037 921.443 211.946 921.795 211.764C922.146 211.575 922.407 211.324 922.576 211.012V209.195H921.521C920.109 209.195 919.357 209.684 919.266 210.66L919.256 210.826C919.256 211.178 919.38 211.467 919.627 211.695C919.874 211.923 920.213 212.037 920.643 212.037ZM930.174 203.434L930.262 204.654C931.017 203.71 932.029 203.238 933.299 203.238C934.419 203.238 935.252 203.567 935.799 204.225C936.346 204.882 936.626 205.865 936.639 207.174V214H933.816V207.242C933.816 206.643 933.686 206.21 933.426 205.943C933.165 205.67 932.732 205.533 932.127 205.533C931.333 205.533 930.737 205.872 930.34 206.549V214H927.518V203.434H930.174ZM938.377 208.639C938.377 207.018 938.761 205.712 939.529 204.723C940.304 203.733 941.346 203.238 942.654 203.238C943.813 203.238 944.715 203.635 945.359 204.43L945.477 203.434H948.035V213.648C948.035 214.573 947.824 215.377 947.4 216.061C946.984 216.744 946.395 217.265 945.633 217.623C944.871 217.981 943.979 218.16 942.957 218.16C942.182 218.16 941.427 218.004 940.691 217.691C939.956 217.385 939.399 216.988 939.021 216.5L940.271 214.781C940.975 215.569 941.827 215.963 942.83 215.963C943.579 215.963 944.161 215.761 944.578 215.357C944.995 214.96 945.203 214.394 945.203 213.658V213.092C944.552 213.827 943.696 214.195 942.635 214.195C941.365 214.195 940.337 213.701 939.549 212.711C938.768 211.715 938.377 210.396 938.377 208.756V208.639ZM941.199 208.844C941.199 209.801 941.391 210.553 941.775 211.1C942.16 211.64 942.687 211.91 943.357 211.91C944.217 211.91 944.832 211.588 945.203 210.943V206.5C944.826 205.855 944.217 205.533 943.377 205.533C942.7 205.533 942.166 205.81 941.775 206.363C941.391 206.917 941.199 207.743 941.199 208.844ZM956.336 214C956.206 213.746 956.111 213.43 956.053 213.053C955.369 213.814 954.48 214.195 953.387 214.195C952.352 214.195 951.492 213.896 950.809 213.297C950.132 212.698 949.793 211.943 949.793 211.031C949.793 209.911 950.206 209.052 951.033 208.453C951.867 207.854 953.068 207.551 954.637 207.545H955.936V206.939C955.936 206.451 955.809 206.061 955.555 205.768C955.307 205.475 954.913 205.328 954.373 205.328C953.898 205.328 953.523 205.442 953.25 205.67C952.983 205.898 952.85 206.21 952.85 206.607H950.027C950.027 205.995 950.216 205.429 950.594 204.908C950.971 204.387 951.505 203.98 952.195 203.688C952.885 203.388 953.66 203.238 954.52 203.238C955.822 203.238 956.854 203.567 957.615 204.225C958.383 204.876 958.768 205.794 958.768 206.979V211.559C958.774 212.561 958.914 213.32 959.188 213.834V214H956.336ZM954.002 212.037C954.419 212.037 954.803 211.946 955.154 211.764C955.506 211.575 955.766 211.324 955.936 211.012V209.195H954.881C953.468 209.195 952.716 209.684 952.625 210.66L952.615 210.826C952.615 211.178 952.739 211.467 952.986 211.695C953.234 211.923 953.572 212.037 954.002 212.037ZM963.914 214H961.082V199H963.914V214ZM965.809 208.619C965.809 207.571 966.01 206.637 966.414 205.816C966.818 204.996 967.397 204.361 968.152 203.912C968.914 203.463 969.796 203.238 970.799 203.238C972.225 203.238 973.387 203.674 974.285 204.547C975.19 205.419 975.695 206.604 975.799 208.102L975.818 208.824C975.818 210.445 975.366 211.747 974.461 212.73C973.556 213.707 972.342 214.195 970.818 214.195C969.295 214.195 968.077 213.707 967.166 212.73C966.261 211.754 965.809 210.426 965.809 208.746V208.619ZM968.631 208.824C968.631 209.827 968.82 210.595 969.197 211.129C969.575 211.656 970.115 211.92 970.818 211.92C971.502 211.92 972.036 211.66 972.42 211.139C972.804 210.611 972.996 209.771 972.996 208.619C972.996 207.636 972.804 206.874 972.42 206.334C972.036 205.794 971.495 205.523 970.799 205.523C970.109 205.523 969.575 205.794 969.197 206.334C968.82 206.868 968.631 207.698 968.631 208.824ZM983.494 206.08C983.11 206.028 982.771 206.002 982.479 206.002C981.411 206.002 980.711 206.363 980.379 207.086V214H977.557V203.434H980.223L980.301 204.693C980.867 203.723 981.652 203.238 982.654 203.238C982.967 203.238 983.26 203.281 983.533 203.365L983.494 206.08ZM989.529 214.195C987.98 214.195 986.717 213.72 985.74 212.77C984.77 211.819 984.285 210.553 984.285 208.971V208.697C984.285 207.636 984.49 206.689 984.9 205.855C985.311 205.016 985.89 204.371 986.639 203.922C987.394 203.466 988.253 203.238 989.217 203.238C990.662 203.238 991.798 203.694 992.625 204.605C993.458 205.517 993.875 206.809 993.875 208.482V209.635H987.146C987.238 210.325 987.511 210.878 987.967 211.295C988.429 211.712 989.012 211.92 989.715 211.92C990.802 211.92 991.652 211.526 992.264 210.738L993.65 212.291C993.227 212.89 992.654 213.359 991.932 213.697C991.209 214.029 990.408 214.195 989.529 214.195ZM989.207 205.523C988.647 205.523 988.191 205.712 987.84 206.09C987.495 206.467 987.273 207.008 987.176 207.711H991.102V207.486C991.089 206.861 990.919 206.38 990.594 206.041C990.268 205.696 989.806 205.523 989.207 205.523Z" fill="#F9F2F2"/>
<path d="M678.777 261.041H682.303V263.59H678.777V267.574H676.092V263.59H672.557V261.041H676.092V257.223H678.777V261.041ZM690.486 263.316C689.751 264.039 688.891 264.4 687.908 264.4C686.652 264.4 685.646 263.971 684.891 263.111C684.135 262.245 683.758 261.08 683.758 259.615C683.758 258.684 683.96 257.831 684.363 257.057C684.773 256.275 685.343 255.67 686.072 255.24C686.801 254.804 687.622 254.586 688.533 254.586C689.471 254.586 690.304 254.82 691.033 255.289C691.762 255.758 692.329 256.432 692.732 257.311C693.136 258.189 693.341 259.195 693.348 260.328V261.373C693.348 263.743 692.758 265.605 691.58 266.959C690.402 268.313 688.732 269.036 686.57 269.127L685.877 269.137V266.783L686.502 266.773C688.956 266.663 690.285 265.51 690.486 263.316ZM688.602 262.242C689.057 262.242 689.448 262.125 689.773 261.891C690.105 261.656 690.356 261.373 690.525 261.041V259.879C690.525 258.922 690.343 258.18 689.979 257.652C689.614 257.125 689.126 256.861 688.514 256.861C687.947 256.861 687.482 257.122 687.117 257.643C686.753 258.157 686.57 258.805 686.57 259.586C686.57 260.361 686.746 260.999 687.098 261.5C687.456 261.995 687.957 262.242 688.602 262.242ZM702.225 269H699.402V258.121L696.033 259.166V256.871L701.922 254.762H702.225V269ZM719.49 254.635V256.959H719.217C717.941 256.979 716.912 257.311 716.131 257.955C715.356 258.6 714.891 259.495 714.734 260.641C715.49 259.872 716.443 259.488 717.596 259.488C718.833 259.488 719.816 259.931 720.545 260.816C721.274 261.702 721.639 262.867 721.639 264.312C721.639 265.237 721.437 266.074 721.033 266.822C720.636 267.571 720.07 268.154 719.334 268.57C718.605 268.987 717.778 269.195 716.854 269.195C715.356 269.195 714.145 268.674 713.221 267.633C712.303 266.591 711.844 265.201 711.844 263.463V262.447C711.844 260.904 712.133 259.544 712.713 258.365C713.299 257.18 714.135 256.266 715.223 255.621C716.316 254.97 717.583 254.641 719.021 254.635H719.49ZM716.736 261.754C716.281 261.754 715.867 261.874 715.496 262.115C715.125 262.35 714.852 262.662 714.676 263.053V263.912C714.676 264.856 714.861 265.595 715.232 266.129C715.604 266.656 716.124 266.92 716.795 266.92C717.4 266.92 717.889 266.682 718.26 266.207C718.637 265.725 718.826 265.104 718.826 264.342C718.826 263.567 718.637 262.942 718.26 262.467C717.882 261.992 717.374 261.754 716.736 261.754ZM726.189 260.641H727.693C728.41 260.641 728.94 260.462 729.285 260.104C729.63 259.745 729.803 259.27 729.803 258.678C729.803 258.105 729.63 257.659 729.285 257.34C728.947 257.021 728.478 256.861 727.879 256.861C727.339 256.861 726.886 257.011 726.521 257.311C726.157 257.604 725.975 257.988 725.975 258.463H723.152C723.152 257.721 723.351 257.057 723.748 256.471C724.152 255.878 724.712 255.416 725.428 255.084C726.15 254.752 726.945 254.586 727.811 254.586C729.314 254.586 730.493 254.947 731.346 255.67C732.199 256.386 732.625 257.376 732.625 258.639C732.625 259.29 732.426 259.889 732.029 260.436C731.632 260.982 731.111 261.402 730.467 261.695C731.268 261.982 731.863 262.411 732.254 262.984C732.651 263.557 732.85 264.234 732.85 265.016C732.85 266.279 732.387 267.291 731.463 268.053C730.545 268.814 729.327 269.195 727.811 269.195C726.391 269.195 725.229 268.821 724.324 268.072C723.426 267.324 722.977 266.334 722.977 265.104H725.799C725.799 265.637 725.997 266.074 726.395 266.412C726.798 266.751 727.293 266.92 727.879 266.92C728.549 266.92 729.074 266.744 729.451 266.393C729.835 266.035 730.027 265.562 730.027 264.977C730.027 263.557 729.246 262.848 727.684 262.848H726.189V260.641ZM742.459 254.635V256.959H742.186C740.91 256.979 739.881 257.311 739.1 257.955C738.325 258.6 737.859 259.495 737.703 260.641C738.458 259.872 739.412 259.488 740.564 259.488C741.801 259.488 742.785 259.931 743.514 260.816C744.243 261.702 744.607 262.867 744.607 264.312C744.607 265.237 744.406 266.074 744.002 266.822C743.605 267.571 743.038 268.154 742.303 268.57C741.574 268.987 740.747 269.195 739.822 269.195C738.325 269.195 737.114 268.674 736.189 267.633C735.271 266.591 734.812 265.201 734.812 263.463V262.447C734.812 260.904 735.102 259.544 735.682 258.365C736.268 257.18 737.104 256.266 738.191 255.621C739.285 254.97 740.551 254.641 741.99 254.635H742.459ZM739.705 261.754C739.249 261.754 738.836 261.874 738.465 262.115C738.094 262.35 737.82 262.662 737.645 263.053V263.912C737.645 264.856 737.83 265.595 738.201 266.129C738.572 266.656 739.093 266.92 739.764 266.92C740.369 266.92 740.857 266.682 741.229 266.207C741.606 265.725 741.795 265.104 741.795 264.342C741.795 263.567 741.606 262.942 741.229 262.467C740.851 261.992 740.343 261.754 739.705 261.754ZM749.158 260.641H750.662C751.378 260.641 751.909 260.462 752.254 260.104C752.599 259.745 752.771 259.27 752.771 258.678C752.771 258.105 752.599 257.659 752.254 257.34C751.915 257.021 751.447 256.861 750.848 256.861C750.307 256.861 749.855 257.011 749.49 257.311C749.126 257.604 748.943 257.988 748.943 258.463H746.121C746.121 257.721 746.32 257.057 746.717 256.471C747.12 255.878 747.68 255.416 748.396 255.084C749.119 254.752 749.913 254.586 750.779 254.586C752.283 254.586 753.462 254.947 754.314 255.67C755.167 256.386 755.594 257.376 755.594 258.639C755.594 259.29 755.395 259.889 754.998 260.436C754.601 260.982 754.08 261.402 753.436 261.695C754.236 261.982 754.832 262.411 755.223 262.984C755.62 263.557 755.818 264.234 755.818 265.016C755.818 266.279 755.356 267.291 754.432 268.053C753.514 268.814 752.296 269.195 750.779 269.195C749.36 269.195 748.198 268.821 747.293 268.072C746.395 267.324 745.945 266.334 745.945 265.104H748.768C748.768 265.637 748.966 266.074 749.363 266.412C749.767 266.751 750.262 266.92 750.848 266.92C751.518 266.92 752.042 266.744 752.42 266.393C752.804 266.035 752.996 265.562 752.996 264.977C752.996 263.557 752.215 262.848 750.652 262.848H749.158V260.641ZM758.191 262.008L759.012 254.781H766.98V257.135H761.326L760.975 260.191C761.645 259.833 762.358 259.654 763.113 259.654C764.467 259.654 765.529 260.074 766.297 260.914C767.065 261.754 767.449 262.929 767.449 264.439C767.449 265.357 767.254 266.181 766.863 266.91C766.479 267.633 765.926 268.196 765.203 268.6C764.48 268.997 763.628 269.195 762.645 269.195C761.785 269.195 760.988 269.023 760.252 268.678C759.516 268.326 758.934 267.835 758.504 267.203C758.081 266.572 757.856 265.852 757.83 265.045H760.623C760.682 265.637 760.887 266.1 761.238 266.432C761.596 266.757 762.062 266.92 762.635 266.92C763.273 266.92 763.764 266.692 764.109 266.236C764.454 265.774 764.627 265.123 764.627 264.283C764.627 263.476 764.428 262.857 764.031 262.428C763.634 261.998 763.071 261.783 762.342 261.783C761.671 261.783 761.128 261.959 760.711 262.311L760.438 262.564L758.191 262.008ZM769.676 262.008L770.496 254.781H778.465V257.135H772.811L772.459 260.191C773.13 259.833 773.842 259.654 774.598 259.654C775.952 259.654 777.013 260.074 777.781 260.914C778.549 261.754 778.934 262.929 778.934 264.439C778.934 265.357 778.738 266.181 778.348 266.91C777.964 267.633 777.41 268.196 776.688 268.6C775.965 268.997 775.112 269.195 774.129 269.195C773.27 269.195 772.472 269.023 771.736 268.678C771.001 268.326 770.418 267.835 769.988 267.203C769.565 266.572 769.34 265.852 769.314 265.045H772.107C772.166 265.637 772.371 266.1 772.723 266.432C773.081 266.757 773.546 266.92 774.119 266.92C774.757 266.92 775.249 266.692 775.594 266.236C775.939 265.774 776.111 265.123 776.111 264.283C776.111 263.476 775.913 262.857 775.516 262.428C775.118 261.998 774.555 261.783 773.826 261.783C773.156 261.783 772.612 261.959 772.195 262.311L771.922 262.564L769.676 262.008ZM790.408 256.363L784.91 269H781.932L787.439 257.066H780.369V254.781H790.408V256.363ZM801.893 256.363L796.395 269H793.416L798.924 257.066H791.854V254.781H801.893V256.363ZM806.58 260.641H808.084C808.8 260.641 809.331 260.462 809.676 260.104C810.021 259.745 810.193 259.27 810.193 258.678C810.193 258.105 810.021 257.659 809.676 257.34C809.337 257.021 808.868 256.861 808.27 256.861C807.729 256.861 807.277 257.011 806.912 257.311C806.548 257.604 806.365 257.988 806.365 258.463H803.543C803.543 257.721 803.742 257.057 804.139 256.471C804.542 255.878 805.102 255.416 805.818 255.084C806.541 254.752 807.335 254.586 808.201 254.586C809.705 254.586 810.883 254.947 811.736 255.67C812.589 256.386 813.016 257.376 813.016 258.639C813.016 259.29 812.817 259.889 812.42 260.436C812.023 260.982 811.502 261.402 810.857 261.695C811.658 261.982 812.254 262.411 812.645 262.984C813.042 263.557 813.24 264.234 813.24 265.016C813.24 266.279 812.778 267.291 811.854 268.053C810.936 268.814 809.718 269.195 808.201 269.195C806.782 269.195 805.62 268.821 804.715 268.072C803.816 267.324 803.367 266.334 803.367 265.104H806.189C806.189 265.637 806.388 266.074 806.785 266.412C807.189 266.751 807.684 266.92 808.27 266.92C808.94 266.92 809.464 266.744 809.842 266.393C810.226 266.035 810.418 265.562 810.418 264.977C810.418 263.557 809.637 262.848 808.074 262.848H806.58V260.641ZM824.461 258.561C824.461 259.251 824.288 259.863 823.943 260.396C823.598 260.93 823.123 261.357 822.518 261.676C823.208 262.008 823.755 262.467 824.158 263.053C824.562 263.632 824.764 264.316 824.764 265.104C824.764 266.367 824.334 267.366 823.475 268.102C822.615 268.831 821.447 269.195 819.969 269.195C818.491 269.195 817.319 268.827 816.453 268.092C815.587 267.356 815.154 266.36 815.154 265.104C815.154 264.316 815.356 263.629 815.76 263.043C816.163 262.457 816.707 262.001 817.391 261.676C816.785 261.357 816.31 260.93 815.965 260.396C815.626 259.863 815.457 259.251 815.457 258.561C815.457 257.35 815.861 256.386 816.668 255.67C817.475 254.947 818.572 254.586 819.959 254.586C821.339 254.586 822.433 254.944 823.24 255.66C824.054 256.37 824.461 257.337 824.461 258.561ZM821.932 264.898C821.932 264.28 821.753 263.785 821.395 263.414C821.036 263.043 820.555 262.857 819.949 262.857C819.35 262.857 818.872 263.043 818.514 263.414C818.156 263.779 817.977 264.273 817.977 264.898C817.977 265.504 818.152 265.992 818.504 266.363C818.855 266.734 819.344 266.92 819.969 266.92C820.581 266.92 821.059 266.741 821.404 266.383C821.756 266.025 821.932 265.53 821.932 264.898ZM821.639 258.697C821.639 258.144 821.492 257.701 821.199 257.369C820.906 257.031 820.493 256.861 819.959 256.861C819.432 256.861 819.021 257.024 818.729 257.35C818.436 257.675 818.289 258.124 818.289 258.697C818.289 259.264 818.436 259.719 818.729 260.064C819.021 260.41 819.435 260.582 819.969 260.582C820.503 260.582 820.913 260.41 821.199 260.064C821.492 259.719 821.639 259.264 821.639 258.697Z" fill="#F9F2F2"/>
<path d="M675.838 311.586C676.587 310.688 677.527 310.238 678.66 310.238C680.952 310.238 682.114 311.57 682.146 314.232V321H679.324V314.311C679.324 313.705 679.194 313.259 678.934 312.973C678.673 312.68 678.24 312.533 677.635 312.533C676.808 312.533 676.209 312.852 675.838 313.49V321H673.016V306H675.838V311.586ZM690.398 321C690.268 320.746 690.174 320.43 690.115 320.053C689.432 320.814 688.543 321.195 687.449 321.195C686.414 321.195 685.555 320.896 684.871 320.297C684.194 319.698 683.855 318.943 683.855 318.031C683.855 316.911 684.269 316.052 685.096 315.453C685.929 314.854 687.13 314.551 688.699 314.545H689.998V313.939C689.998 313.451 689.871 313.061 689.617 312.768C689.37 312.475 688.976 312.328 688.436 312.328C687.96 312.328 687.586 312.442 687.312 312.67C687.046 312.898 686.912 313.21 686.912 313.607H684.09C684.09 312.995 684.279 312.429 684.656 311.908C685.034 311.387 685.568 310.98 686.258 310.688C686.948 310.388 687.723 310.238 688.582 310.238C689.884 310.238 690.916 310.567 691.678 311.225C692.446 311.876 692.83 312.794 692.83 313.979V318.559C692.837 319.561 692.977 320.32 693.25 320.834V321H690.398ZM688.064 319.037C688.481 319.037 688.865 318.946 689.217 318.764C689.568 318.575 689.829 318.324 689.998 318.012V316.195H688.943C687.531 316.195 686.779 316.684 686.688 317.66L686.678 317.826C686.678 318.178 686.801 318.467 687.049 318.695C687.296 318.923 687.635 319.037 688.064 319.037ZM697.596 310.434L697.684 311.654C698.439 310.71 699.451 310.238 700.721 310.238C701.84 310.238 702.674 310.567 703.221 311.225C703.768 311.882 704.048 312.865 704.061 314.174V321H701.238V314.242C701.238 313.643 701.108 313.21 700.848 312.943C700.587 312.67 700.154 312.533 699.549 312.533C698.755 312.533 698.159 312.872 697.762 313.549V321H694.939V310.434H697.596ZM708.855 310.434L708.943 311.615C709.692 310.697 710.704 310.238 711.98 310.238C713.341 310.238 714.275 310.775 714.783 311.85C715.525 310.775 716.583 310.238 717.957 310.238C719.103 310.238 719.956 310.574 720.516 311.244C721.076 311.908 721.355 312.911 721.355 314.252V321H718.523V314.262C718.523 313.663 718.406 313.227 718.172 312.953C717.938 312.673 717.524 312.533 716.932 312.533C716.085 312.533 715.499 312.937 715.174 313.744L715.184 321H712.361V314.271C712.361 313.66 712.241 313.217 712 312.943C711.759 312.67 711.349 312.533 710.77 312.533C709.969 312.533 709.389 312.865 709.031 313.529V321H706.209V310.434H708.855ZM729.656 321C729.526 320.746 729.432 320.43 729.373 320.053C728.689 320.814 727.801 321.195 726.707 321.195C725.672 321.195 724.812 320.896 724.129 320.297C723.452 319.698 723.113 318.943 723.113 318.031C723.113 316.911 723.527 316.052 724.354 315.453C725.187 314.854 726.388 314.551 727.957 314.545H729.256V313.939C729.256 313.451 729.129 313.061 728.875 312.768C728.628 312.475 728.234 312.328 727.693 312.328C727.218 312.328 726.844 312.442 726.57 312.67C726.303 312.898 726.17 313.21 726.17 313.607H723.348C723.348 312.995 723.536 312.429 723.914 311.908C724.292 311.387 724.826 310.98 725.516 310.688C726.206 310.388 726.98 310.238 727.84 310.238C729.142 310.238 730.174 310.567 730.936 311.225C731.704 311.876 732.088 312.794 732.088 313.979V318.559C732.094 319.561 732.234 320.32 732.508 320.834V321H729.656ZM727.322 319.037C727.739 319.037 728.123 318.946 728.475 318.764C728.826 318.575 729.087 318.324 729.256 318.012V316.195H728.201C726.788 316.195 726.036 316.684 725.945 317.66L725.936 317.826C725.936 318.178 726.059 318.467 726.307 318.695C726.554 318.923 726.893 319.037 727.322 319.037ZM736.854 310.434L736.941 311.654C737.697 310.71 738.709 310.238 739.979 310.238C741.098 310.238 741.932 310.567 742.479 311.225C743.025 311.882 743.305 312.865 743.318 314.174V321H740.496V314.242C740.496 313.643 740.366 313.21 740.105 312.943C739.845 312.67 739.412 312.533 738.807 312.533C738.012 312.533 737.417 312.872 737.02 313.549V321H734.197V310.434H736.854ZM748.846 307.836V310.434H750.652V312.504H748.846V317.777C748.846 318.168 748.921 318.448 749.07 318.617C749.22 318.786 749.507 318.871 749.93 318.871C750.242 318.871 750.519 318.848 750.76 318.803V320.941C750.206 321.111 749.637 321.195 749.051 321.195C747.072 321.195 746.062 320.196 746.023 318.197V312.504H744.48V310.434H746.023V307.836H748.846ZM761.854 321H752.107V319.066L756.707 314.164C757.339 313.474 757.804 312.872 758.104 312.357C758.41 311.843 758.562 311.355 758.562 310.893C758.562 310.261 758.403 309.766 758.084 309.408C757.765 309.044 757.309 308.861 756.717 308.861C756.079 308.861 755.574 309.083 755.203 309.525C754.839 309.962 754.656 310.538 754.656 311.254H751.824C751.824 310.388 752.029 309.597 752.439 308.881C752.856 308.165 753.442 307.605 754.197 307.201C754.952 306.791 755.809 306.586 756.766 306.586C758.23 306.586 759.367 306.938 760.174 307.641C760.988 308.344 761.395 309.337 761.395 310.619C761.395 311.322 761.212 312.038 760.848 312.768C760.483 313.497 759.858 314.346 758.973 315.316L755.74 318.725H761.854V321ZM773.162 315.121C773.162 317.087 772.755 318.591 771.941 319.633C771.128 320.674 769.936 321.195 768.367 321.195C766.818 321.195 765.633 320.684 764.812 319.662C763.992 318.64 763.572 317.175 763.553 315.268V312.65C763.553 310.665 763.963 309.158 764.783 308.129C765.61 307.1 766.798 306.586 768.348 306.586C769.897 306.586 771.082 307.097 771.902 308.119C772.723 309.135 773.143 310.596 773.162 312.504V315.121ZM770.34 312.25C770.34 311.072 770.177 310.215 769.852 309.682C769.533 309.141 769.031 308.871 768.348 308.871C767.684 308.871 767.192 309.128 766.873 309.643C766.561 310.15 766.395 310.948 766.375 312.035V315.492C766.375 316.651 766.531 317.514 766.844 318.08C767.163 318.64 767.671 318.92 768.367 318.92C769.057 318.92 769.555 318.65 769.861 318.109C770.167 317.569 770.327 316.742 770.34 315.629V312.25ZM781.932 321H779.109V310.121L775.74 311.166V308.871L781.629 306.762H781.932V321ZM793.416 321H790.594V310.121L787.225 311.166V308.871L793.113 306.762H793.416V321ZM814.158 315.766C814.087 317.432 813.673 318.757 812.918 319.74C812.169 320.717 811.16 321.205 809.891 321.205C809.331 321.205 808.846 321.085 808.436 320.844C808.032 320.603 807.726 320.258 807.518 319.809C806.867 320.72 806.017 321.176 804.969 321.176C804.018 321.176 803.283 320.775 802.762 319.975C802.241 319.174 802.046 318.116 802.176 316.801C802.293 315.727 802.563 314.773 802.986 313.939C803.416 313.1 803.956 312.455 804.607 312.006C805.258 311.557 805.962 311.332 806.717 311.332C807.648 311.332 808.442 311.547 809.1 311.977L809.715 312.396L809.217 318.041C809.152 318.555 809.207 318.949 809.383 319.223C809.565 319.496 809.852 319.633 810.242 319.633C810.841 319.633 811.342 319.285 811.746 318.588C812.15 317.885 812.371 316.967 812.41 315.834C812.521 313.562 812.062 311.817 811.033 310.6C810.011 309.376 808.494 308.764 806.482 308.764C805.226 308.764 804.106 309.083 803.123 309.721C802.14 310.359 801.365 311.267 800.799 312.445C800.232 313.617 799.913 314.962 799.842 316.479C799.738 318.783 800.2 320.564 801.229 321.82C802.257 323.083 803.797 323.715 805.848 323.715C806.388 323.715 806.954 323.653 807.547 323.529C808.139 323.412 808.65 323.253 809.08 323.051L809.451 324.555C809.054 324.815 808.517 325.023 807.84 325.18C807.169 325.342 806.492 325.424 805.809 325.424C804.09 325.424 802.625 325.076 801.414 324.379C800.203 323.689 799.298 322.667 798.699 321.312C798.107 319.965 797.85 318.354 797.928 316.479C798.006 314.682 798.416 313.07 799.158 311.645C799.9 310.219 800.91 309.118 802.186 308.344C803.468 307.562 804.913 307.172 806.521 307.172C808.156 307.172 809.562 307.523 810.74 308.227C811.919 308.923 812.801 309.923 813.387 311.225C813.973 312.527 814.23 314.04 814.158 315.766ZM804.344 316.801C804.272 317.66 804.347 318.314 804.568 318.764C804.79 319.206 805.148 319.428 805.643 319.428C805.962 319.428 806.264 319.288 806.551 319.008C806.837 318.728 807.075 318.324 807.264 317.797L807.674 313.178C807.42 313.093 807.16 313.051 806.893 313.051C806.144 313.051 805.561 313.37 805.145 314.008C804.734 314.646 804.467 315.577 804.344 316.801ZM818.826 311.586C819.575 310.688 820.516 310.238 821.648 310.238C823.94 310.238 825.102 311.57 825.135 314.232V321H822.312V314.311C822.312 313.705 822.182 313.259 821.922 312.973C821.661 312.68 821.229 312.533 820.623 312.533C819.796 312.533 819.197 312.852 818.826 313.49V321H816.004V306H818.826V311.586ZM826.824 315.619C826.824 314.571 827.026 313.637 827.43 312.816C827.833 311.996 828.413 311.361 829.168 310.912C829.93 310.463 830.812 310.238 831.814 310.238C833.24 310.238 834.402 310.674 835.301 311.547C836.206 312.419 836.71 313.604 836.814 315.102L836.834 315.824C836.834 317.445 836.382 318.747 835.477 319.73C834.572 320.707 833.357 321.195 831.834 321.195C830.311 321.195 829.093 320.707 828.182 319.73C827.277 318.754 826.824 317.426 826.824 315.746V315.619ZM829.646 315.824C829.646 316.827 829.835 317.595 830.213 318.129C830.59 318.656 831.131 318.92 831.834 318.92C832.518 318.92 833.051 318.66 833.436 318.139C833.82 317.611 834.012 316.771 834.012 315.619C834.012 314.636 833.82 313.874 833.436 313.334C833.051 312.794 832.511 312.523 831.814 312.523C831.124 312.523 830.59 312.794 830.213 313.334C829.835 313.868 829.646 314.698 829.646 315.824ZM841.951 307.836V310.434H843.758V312.504H841.951V317.777C841.951 318.168 842.026 318.448 842.176 318.617C842.326 318.786 842.612 318.871 843.035 318.871C843.348 318.871 843.624 318.848 843.865 318.803V320.941C843.312 321.111 842.742 321.195 842.156 321.195C840.177 321.195 839.168 320.196 839.129 318.197V312.504H837.586V310.434H839.129V307.836H841.951ZM847.977 310.434L848.064 311.615C848.813 310.697 849.826 310.238 851.102 310.238C852.462 310.238 853.396 310.775 853.904 311.85C854.646 310.775 855.704 310.238 857.078 310.238C858.224 310.238 859.077 310.574 859.637 311.244C860.197 311.908 860.477 312.911 860.477 314.252V321H857.645V314.262C857.645 313.663 857.527 313.227 857.293 312.953C857.059 312.673 856.645 312.533 856.053 312.533C855.206 312.533 854.62 312.937 854.295 313.744L854.305 321H851.482V314.271C851.482 313.66 851.362 313.217 851.121 312.943C850.88 312.67 850.47 312.533 849.891 312.533C849.09 312.533 848.51 312.865 848.152 313.529V321H845.33V310.434H847.977ZM868.777 321C868.647 320.746 868.553 320.43 868.494 320.053C867.811 320.814 866.922 321.195 865.828 321.195C864.793 321.195 863.934 320.896 863.25 320.297C862.573 319.698 862.234 318.943 862.234 318.031C862.234 316.911 862.648 316.052 863.475 315.453C864.308 314.854 865.509 314.551 867.078 314.545H868.377V313.939C868.377 313.451 868.25 313.061 867.996 312.768C867.749 312.475 867.355 312.328 866.814 312.328C866.339 312.328 865.965 312.442 865.691 312.67C865.424 312.898 865.291 313.21 865.291 313.607H862.469C862.469 312.995 862.658 312.429 863.035 311.908C863.413 311.387 863.947 310.98 864.637 310.688C865.327 310.388 866.102 310.238 866.961 310.238C868.263 310.238 869.295 310.567 870.057 311.225C870.825 311.876 871.209 312.794 871.209 313.979V318.559C871.215 319.561 871.355 320.32 871.629 320.834V321H868.777ZM866.443 319.037C866.86 319.037 867.244 318.946 867.596 318.764C867.947 318.575 868.208 318.324 868.377 318.012V316.195H867.322C865.91 316.195 865.158 316.684 865.066 317.66L865.057 317.826C865.057 318.178 865.18 318.467 865.428 318.695C865.675 318.923 866.014 319.037 866.443 319.037ZM876.355 321H873.523V310.434H876.355V321ZM873.357 307.699C873.357 307.276 873.497 306.928 873.777 306.654C874.064 306.381 874.451 306.244 874.939 306.244C875.421 306.244 875.805 306.381 876.092 306.654C876.378 306.928 876.521 307.276 876.521 307.699C876.521 308.129 876.375 308.48 876.082 308.754C875.796 309.027 875.415 309.164 874.939 309.164C874.464 309.164 874.08 309.027 873.787 308.754C873.501 308.48 873.357 308.129 873.357 307.699ZM881.668 321H878.836V306H881.668V321ZM884.148 319.613C884.148 319.164 884.298 318.799 884.598 318.52C884.904 318.24 885.285 318.1 885.74 318.1C886.202 318.1 886.583 318.24 886.883 318.52C887.189 318.799 887.342 319.164 887.342 319.613C887.342 320.056 887.192 320.417 886.893 320.697C886.593 320.971 886.209 321.107 885.74 321.107C885.278 321.107 884.897 320.971 884.598 320.697C884.298 320.417 884.148 320.056 884.148 319.613ZM894.217 318.92C894.738 318.92 895.161 318.777 895.486 318.49C895.812 318.204 895.981 317.823 895.994 317.348H898.641C898.634 318.064 898.439 318.721 898.055 319.32C897.671 319.913 897.143 320.375 896.473 320.707C895.809 321.033 895.073 321.195 894.266 321.195C892.755 321.195 891.564 320.717 890.691 319.76C889.819 318.796 889.383 317.468 889.383 315.775V315.59C889.383 313.962 889.816 312.663 890.682 311.693C891.548 310.723 892.736 310.238 894.246 310.238C895.568 310.238 896.626 310.616 897.42 311.371C898.221 312.12 898.628 313.119 898.641 314.369H895.994C895.981 313.822 895.812 313.38 895.486 313.041C895.161 312.696 894.731 312.523 894.197 312.523C893.54 312.523 893.042 312.764 892.703 313.246C892.371 313.721 892.205 314.496 892.205 315.57V315.863C892.205 316.951 892.371 317.732 892.703 318.207C893.035 318.682 893.54 318.92 894.217 318.92ZM899.812 315.619C899.812 314.571 900.014 313.637 900.418 312.816C900.822 311.996 901.401 311.361 902.156 310.912C902.918 310.463 903.8 310.238 904.803 310.238C906.229 310.238 907.391 310.674 908.289 311.547C909.194 312.419 909.699 313.604 909.803 315.102L909.822 315.824C909.822 317.445 909.37 318.747 908.465 319.73C907.56 320.707 906.346 321.195 904.822 321.195C903.299 321.195 902.081 320.707 901.17 319.73C900.265 318.754 899.812 317.426 899.812 315.746V315.619ZM902.635 315.824C902.635 316.827 902.824 317.595 903.201 318.129C903.579 318.656 904.119 318.92 904.822 318.92C905.506 318.92 906.04 318.66 906.424 318.139C906.808 317.611 907 316.771 907 315.619C907 314.636 906.808 313.874 906.424 313.334C906.04 312.794 905.499 312.523 904.803 312.523C904.113 312.523 903.579 312.794 903.201 313.334C902.824 313.868 902.635 314.698 902.635 315.824ZM914.207 310.434L914.295 311.615C915.044 310.697 916.056 310.238 917.332 310.238C918.693 310.238 919.627 310.775 920.135 311.85C920.877 310.775 921.935 310.238 923.309 310.238C924.454 310.238 925.307 310.574 925.867 311.244C926.427 311.908 926.707 312.911 926.707 314.252V321H923.875V314.262C923.875 313.663 923.758 313.227 923.523 312.953C923.289 312.673 922.876 312.533 922.283 312.533C921.437 312.533 920.851 312.937 920.525 313.744L920.535 321H917.713V314.271C917.713 313.66 917.592 313.217 917.352 312.943C917.111 312.67 916.701 312.533 916.121 312.533C915.32 312.533 914.741 312.865 914.383 313.529V321H911.561V310.434H914.207Z" fill="#F9F2F2"/>
<path d="M684.273 378.162L685.66 371.434H688.385L685.689 382H683.326L681.324 375.35L679.322 382H676.969L674.273 371.434H676.998L678.375 378.152L680.309 371.434H682.35L684.273 378.162ZM698.98 378.162L700.367 371.434H703.092L700.396 382H698.033L696.031 375.35L694.029 382H691.676L688.98 371.434H691.705L693.082 378.152L695.016 371.434H697.057L698.98 378.162ZM713.688 378.162L715.074 371.434H717.799L715.104 382H712.74L710.738 375.35L708.736 382H706.383L703.688 371.434H706.412L707.789 378.152L709.723 371.434H711.764L713.688 378.162ZM718.141 380.613C718.141 380.164 718.29 379.799 718.59 379.52C718.896 379.24 719.277 379.1 719.732 379.1C720.195 379.1 720.576 379.24 720.875 379.52C721.181 379.799 721.334 380.164 721.334 380.613C721.334 381.056 721.184 381.417 720.885 381.697C720.585 381.971 720.201 382.107 719.732 382.107C719.27 382.107 718.889 381.971 718.59 381.697C718.29 381.417 718.141 381.056 718.141 380.613ZM726.568 372.586C727.317 371.688 728.258 371.238 729.391 371.238C731.682 371.238 732.844 372.57 732.877 375.232V382H730.055V375.311C730.055 374.705 729.924 374.259 729.664 373.973C729.404 373.68 728.971 373.533 728.365 373.533C727.538 373.533 726.939 373.852 726.568 374.49V382H723.746V367H726.568V372.586ZM741.129 382C740.999 381.746 740.904 381.43 740.846 381.053C740.162 381.814 739.273 382.195 738.18 382.195C737.145 382.195 736.285 381.896 735.602 381.297C734.924 380.698 734.586 379.943 734.586 379.031C734.586 377.911 734.999 377.052 735.826 376.453C736.66 375.854 737.861 375.551 739.43 375.545H740.729V374.939C740.729 374.451 740.602 374.061 740.348 373.768C740.1 373.475 739.706 373.328 739.166 373.328C738.691 373.328 738.316 373.442 738.043 373.67C737.776 373.898 737.643 374.21 737.643 374.607H734.82C734.82 373.995 735.009 373.429 735.387 372.908C735.764 372.387 736.298 371.98 736.988 371.688C737.678 371.388 738.453 371.238 739.312 371.238C740.615 371.238 741.646 371.567 742.408 372.225C743.176 372.876 743.561 373.794 743.561 374.979V379.559C743.567 380.561 743.707 381.32 743.98 381.834V382H741.129ZM738.795 380.037C739.212 380.037 739.596 379.946 739.947 379.764C740.299 379.575 740.559 379.324 740.729 379.012V377.195H739.674C738.261 377.195 737.509 377.684 737.418 378.66L737.408 378.826C737.408 379.178 737.532 379.467 737.779 379.695C738.027 379.923 738.365 380.037 738.795 380.037ZM748.326 371.434L748.414 372.654C749.169 371.71 750.182 371.238 751.451 371.238C752.571 371.238 753.404 371.567 753.951 372.225C754.498 372.882 754.778 373.865 754.791 375.174V382H751.969V375.242C751.969 374.643 751.839 374.21 751.578 373.943C751.318 373.67 750.885 373.533 750.279 373.533C749.485 373.533 748.889 373.872 748.492 374.549V382H745.67V371.434H748.326ZM763.062 382C762.932 381.746 762.838 381.43 762.779 381.053C762.096 381.814 761.207 382.195 760.113 382.195C759.078 382.195 758.219 381.896 757.535 381.297C756.858 380.698 756.52 379.943 756.52 379.031C756.52 377.911 756.933 377.052 757.76 376.453C758.593 375.854 759.794 375.551 761.363 375.545H762.662V374.939C762.662 374.451 762.535 374.061 762.281 373.768C762.034 373.475 761.64 373.328 761.1 373.328C760.624 373.328 760.25 373.442 759.977 373.67C759.71 373.898 759.576 374.21 759.576 374.607H756.754C756.754 373.995 756.943 373.429 757.32 372.908C757.698 372.387 758.232 371.98 758.922 371.688C759.612 371.388 760.387 371.238 761.246 371.238C762.548 371.238 763.58 371.567 764.342 372.225C765.11 372.876 765.494 373.794 765.494 374.979V379.559C765.501 380.561 765.641 381.32 765.914 381.834V382H763.062ZM760.729 380.037C761.145 380.037 761.529 379.946 761.881 379.764C762.232 379.575 762.493 379.324 762.662 379.012V377.195H761.607C760.195 377.195 759.443 377.684 759.352 378.66L759.342 378.826C759.342 379.178 759.465 379.467 759.713 379.695C759.96 379.923 760.299 380.037 760.729 380.037ZM770.309 371.434L770.396 372.615C771.145 371.697 772.158 371.238 773.434 371.238C774.794 371.238 775.729 371.775 776.236 372.85C776.979 371.775 778.036 371.238 779.41 371.238C780.556 371.238 781.409 371.574 781.969 372.244C782.529 372.908 782.809 373.911 782.809 375.252V382H779.977V375.262C779.977 374.663 779.859 374.227 779.625 373.953C779.391 373.673 778.977 373.533 778.385 373.533C777.538 373.533 776.952 373.937 776.627 374.744L776.637 382H773.814V375.271C773.814 374.66 773.694 374.217 773.453 373.943C773.212 373.67 772.802 373.533 772.223 373.533C771.422 373.533 770.842 373.865 770.484 374.529V382H767.662V371.434H770.309ZM791.109 382C790.979 381.746 790.885 381.43 790.826 381.053C790.143 381.814 789.254 382.195 788.16 382.195C787.125 382.195 786.266 381.896 785.582 381.297C784.905 380.698 784.566 379.943 784.566 379.031C784.566 377.911 784.98 377.052 785.807 376.453C786.64 375.854 787.841 375.551 789.41 375.545H790.709V374.939C790.709 374.451 790.582 374.061 790.328 373.768C790.081 373.475 789.687 373.328 789.146 373.328C788.671 373.328 788.297 373.442 788.023 373.67C787.757 373.898 787.623 374.21 787.623 374.607H784.801C784.801 373.995 784.99 373.429 785.367 372.908C785.745 372.387 786.279 371.98 786.969 371.688C787.659 371.388 788.434 371.238 789.293 371.238C790.595 371.238 791.627 371.567 792.389 372.225C793.157 372.876 793.541 373.794 793.541 374.979V379.559C793.548 380.561 793.688 381.32 793.961 381.834V382H791.109ZM788.775 380.037C789.192 380.037 789.576 379.946 789.928 379.764C790.279 379.575 790.54 379.324 790.709 379.012V377.195H789.654C788.242 377.195 787.49 377.684 787.398 378.66L787.389 378.826C787.389 379.178 787.512 379.467 787.76 379.695C788.007 379.923 788.346 380.037 788.775 380.037ZM798.307 371.434L798.395 372.654C799.15 371.71 800.162 371.238 801.432 371.238C802.551 371.238 803.385 371.567 803.932 372.225C804.479 372.882 804.758 373.865 804.771 375.174V382H801.949V375.242C801.949 374.643 801.819 374.21 801.559 373.943C801.298 373.67 800.865 373.533 800.26 373.533C799.465 373.533 798.87 373.872 798.473 374.549V382H795.65V371.434H798.307ZM810.299 368.836V371.434H812.105V373.504H810.299V378.777C810.299 379.168 810.374 379.448 810.523 379.617C810.673 379.786 810.96 379.871 811.383 379.871C811.695 379.871 811.972 379.848 812.213 379.803V381.941C811.66 382.111 811.09 382.195 810.504 382.195C808.525 382.195 807.516 381.196 807.477 379.197V373.504H805.934V371.434H807.477V368.836H810.299ZM817.516 377.762L816.5 378.777V382H813.678V367H816.5V375.311L817.047 374.607L819.752 371.434H823.141L819.322 375.838L823.473 382H820.23L817.516 377.762ZM824.508 380.613C824.508 380.164 824.658 379.799 824.957 379.52C825.263 379.24 825.644 379.1 826.1 379.1C826.562 379.1 826.943 379.24 827.242 379.52C827.548 379.799 827.701 380.164 827.701 380.613C827.701 381.056 827.551 381.417 827.252 381.697C826.952 381.971 826.568 382.107 826.1 382.107C825.637 382.107 825.257 381.971 824.957 381.697C824.658 381.417 824.508 381.056 824.508 380.613ZM829.771 376.639C829.771 375.018 830.156 373.712 830.924 372.723C831.699 371.733 832.74 371.238 834.049 371.238C835.208 371.238 836.109 371.635 836.754 372.43L836.871 371.434H839.43V381.648C839.43 382.573 839.218 383.377 838.795 384.061C838.378 384.744 837.789 385.265 837.027 385.623C836.266 385.981 835.374 386.16 834.352 386.16C833.577 386.16 832.822 386.004 832.086 385.691C831.35 385.385 830.794 384.988 830.416 384.5L831.666 382.781C832.369 383.569 833.222 383.963 834.225 383.963C834.973 383.963 835.556 383.761 835.973 383.357C836.389 382.96 836.598 382.394 836.598 381.658V381.092C835.947 381.827 835.09 382.195 834.029 382.195C832.76 382.195 831.731 381.701 830.943 380.711C830.162 379.715 829.771 378.396 829.771 376.756V376.639ZM832.594 376.844C832.594 377.801 832.786 378.553 833.17 379.1C833.554 379.64 834.081 379.91 834.752 379.91C835.611 379.91 836.227 379.588 836.598 378.943V374.5C836.22 373.855 835.611 373.533 834.771 373.533C834.094 373.533 833.561 373.81 833.17 374.363C832.786 374.917 832.594 375.743 832.594 376.844ZM844.586 382H841.754V371.434H844.586V382ZM841.588 368.699C841.588 368.276 841.728 367.928 842.008 367.654C842.294 367.381 842.682 367.244 843.17 367.244C843.652 367.244 844.036 367.381 844.322 367.654C844.609 367.928 844.752 368.276 844.752 368.699C844.752 369.129 844.605 369.48 844.312 369.754C844.026 370.027 843.645 370.164 843.17 370.164C842.695 370.164 842.311 370.027 842.018 369.754C841.731 369.48 841.588 369.129 841.588 368.699ZM850.299 368.836V371.434H852.105V373.504H850.299V378.777C850.299 379.168 850.374 379.448 850.523 379.617C850.673 379.786 850.96 379.871 851.383 379.871C851.695 379.871 851.972 379.848 852.213 379.803V381.941C851.66 382.111 851.09 382.195 850.504 382.195C848.525 382.195 847.516 381.196 847.477 379.197V373.504H845.934V371.434H847.477V368.836H850.299ZM856.432 372.586C857.18 371.688 858.121 371.238 859.254 371.238C861.546 371.238 862.708 372.57 862.74 375.232V382H859.918V375.311C859.918 374.705 859.788 374.259 859.527 373.973C859.267 373.68 858.834 373.533 858.229 373.533C857.402 373.533 856.803 373.852 856.432 374.49V382H853.609V367H856.432V372.586ZM871.197 380.926C870.501 381.772 869.537 382.195 868.307 382.195C867.174 382.195 866.308 381.87 865.709 381.219C865.117 380.568 864.814 379.614 864.801 378.357V371.434H867.623V378.26C867.623 379.36 868.124 379.91 869.127 379.91C870.084 379.91 870.742 379.578 871.1 378.914V371.434H873.932V382H871.275L871.197 380.926ZM885.582 376.814C885.582 378.507 885.221 379.829 884.498 380.779C883.775 381.723 882.766 382.195 881.471 382.195C880.325 382.195 879.41 381.756 878.727 380.877L878.6 382H876.061V367H878.883V372.381C879.534 371.619 880.39 371.238 881.451 371.238C882.74 371.238 883.749 371.714 884.479 372.664C885.214 373.608 885.582 374.939 885.582 376.658V376.814ZM882.76 376.609C882.76 375.542 882.59 374.764 882.252 374.275C881.913 373.781 881.409 373.533 880.738 373.533C879.84 373.533 879.221 373.901 878.883 374.637V378.807C879.228 379.549 879.853 379.92 880.758 379.92C881.669 379.92 882.268 379.471 882.555 378.572C882.691 378.143 882.76 377.488 882.76 376.609ZM887.477 380.613C887.477 380.164 887.626 379.799 887.926 379.52C888.232 379.24 888.613 379.1 889.068 379.1C889.531 379.1 889.911 379.24 890.211 379.52C890.517 379.799 890.67 380.164 890.67 380.613C890.67 381.056 890.52 381.417 890.221 381.697C889.921 381.971 889.537 382.107 889.068 382.107C888.606 382.107 888.225 381.971 887.926 381.697C887.626 381.417 887.477 381.056 887.477 380.613ZM896.129 382H893.297V371.434H896.129V382ZM893.131 368.699C893.131 368.276 893.271 367.928 893.551 367.654C893.837 367.381 894.225 367.244 894.713 367.244C895.195 367.244 895.579 367.381 895.865 367.654C896.152 367.928 896.295 368.276 896.295 368.699C896.295 369.129 896.148 369.48 895.855 369.754C895.569 370.027 895.188 370.164 894.713 370.164C894.238 370.164 893.854 370.027 893.561 369.754C893.274 369.48 893.131 369.129 893.131 368.699ZM898.023 376.619C898.023 375.571 898.225 374.637 898.629 373.816C899.033 372.996 899.612 372.361 900.367 371.912C901.129 371.463 902.011 371.238 903.014 371.238C904.439 371.238 905.602 371.674 906.5 372.547C907.405 373.419 907.91 374.604 908.014 376.102L908.033 376.824C908.033 378.445 907.581 379.747 906.676 380.73C905.771 381.707 904.557 382.195 903.033 382.195C901.51 382.195 900.292 381.707 899.381 380.73C898.476 379.754 898.023 378.426 898.023 376.746V376.619ZM900.846 376.824C900.846 377.827 901.035 378.595 901.412 379.129C901.79 379.656 902.33 379.92 903.033 379.92C903.717 379.92 904.251 379.66 904.635 379.139C905.019 378.611 905.211 377.771 905.211 376.619C905.211 375.636 905.019 374.874 904.635 374.334C904.251 373.794 903.71 373.523 903.014 373.523C902.324 373.523 901.79 373.794 901.412 374.334C901.035 374.868 900.846 375.698 900.846 376.824Z" fill="#F9F2F2"/>
<line x1="543.5" y1="132.999" x2="544.035" y2="473.939" stroke="#EEF20F"/>
<path d="M187.514 245H182.24V234.031H171.957V245H166.684V219.406H171.957V229.777H182.24V219.406H187.514V245ZM206.902 239.727H197.656L195.898 245H190.291L199.818 219.406H204.705L214.285 245H208.678L206.902 239.727ZM199.08 235.455H205.479L202.262 225.875L199.08 235.455ZM237.488 245H232.215L221.949 228.16V245H216.676V219.406H221.949L232.232 236.281V219.406H237.488V245ZM256.859 239.727H247.613L245.855 245H240.248L249.775 219.406H254.662L264.242 245H258.635L256.859 239.727ZM249.037 235.455H255.436L252.219 225.875L249.037 235.455ZM273.523 219.406L280.098 237.969L286.637 219.406H293.562V245H288.271V238.004L288.799 225.928L281.891 245H278.27L271.379 225.945L271.906 238.004V245H266.633V219.406H273.523ZM312.934 239.727H303.688L301.93 245H296.322L305.85 219.406H310.736L320.316 245H314.709L312.934 239.727ZM305.111 235.455H311.51L308.293 225.875L305.111 235.455ZM343.52 245H338.246L327.98 228.16V245H322.707V219.406H327.98L338.264 236.281V219.406H343.52V245ZM366.863 223.678H359.023V245H353.75V223.678H346.016V219.406H366.863V223.678Z" fill="#F9F2F2"/>
<path d="M232.016 349H228.5V341.688H221.645V349H218.129V331.938H221.645V338.852H228.5V331.938H232.016V349ZM240.441 342.156L238.613 344.125V349H235.098V331.938H238.613V339.672L240.16 337.551L244.508 331.938H248.832L242.773 339.52L249.008 349H244.824L240.441 342.156ZM265.156 344.523C265.156 343.859 264.922 343.352 264.453 343C263.984 342.641 263.141 342.266 261.922 341.875C260.703 341.477 259.738 341.086 259.027 340.703C257.09 339.656 256.121 338.246 256.121 336.473C256.121 335.551 256.379 334.73 256.895 334.012C257.418 333.285 258.164 332.719 259.133 332.312C260.109 331.906 261.203 331.703 262.414 331.703C263.633 331.703 264.719 331.926 265.672 332.371C266.625 332.809 267.363 333.43 267.887 334.234C268.418 335.039 268.684 335.953 268.684 336.977H265.168C265.168 336.195 264.922 335.59 264.43 335.16C263.938 334.723 263.246 334.504 262.355 334.504C261.496 334.504 260.828 334.688 260.352 335.055C259.875 335.414 259.637 335.891 259.637 336.484C259.637 337.039 259.914 337.504 260.469 337.879C261.031 338.254 261.855 338.605 262.941 338.934C264.941 339.535 266.398 340.281 267.312 341.172C268.227 342.062 268.684 343.172 268.684 344.5C268.684 345.977 268.125 347.137 267.008 347.98C265.891 348.816 264.387 349.234 262.496 349.234C261.184 349.234 259.988 348.996 258.91 348.52C257.832 348.035 257.008 347.375 256.438 346.539C255.875 345.703 255.594 344.734 255.594 343.633H259.121C259.121 345.516 260.246 346.457 262.496 346.457C263.332 346.457 263.984 346.289 264.453 345.953C264.922 345.609 265.156 345.133 265.156 344.523ZM283.918 334.785H278.691V349H275.176V334.785H270.02V331.938H283.918V334.785ZM298.848 331.938V343.176C298.848 345.043 298.262 346.52 297.09 347.605C295.926 348.691 294.332 349.234 292.309 349.234C290.316 349.234 288.734 348.707 287.562 347.652C286.391 346.598 285.793 345.148 285.77 343.305V331.938H289.285V343.199C289.285 344.316 289.551 345.133 290.082 345.648C290.621 346.156 291.363 346.41 292.309 346.41C294.285 346.41 295.289 345.371 295.32 343.293V331.938H298.848ZM301.73 349V331.938H306.98C308.48 331.938 309.82 332.277 311 332.957C312.188 333.629 313.113 334.59 313.777 335.84C314.441 337.082 314.773 338.496 314.773 340.082V340.867C314.773 342.453 314.445 343.863 313.789 345.098C313.141 346.332 312.223 347.289 311.035 347.969C309.848 348.648 308.508 348.992 307.016 349H301.73ZM305.246 334.785V346.176H306.945C308.32 346.176 309.371 345.727 310.098 344.828C310.824 343.93 311.195 342.645 311.211 340.973V340.07C311.211 338.336 310.852 337.023 310.133 336.133C309.414 335.234 308.363 334.785 306.98 334.785H305.246ZM321.078 349H317.562V331.938H321.078V349ZM338.363 340.855C338.363 342.535 338.066 344.008 337.473 345.273C336.879 346.539 336.027 347.516 334.918 348.203C333.816 348.891 332.551 349.234 331.121 349.234C329.707 349.234 328.445 348.895 327.336 348.215C326.227 347.535 325.367 346.566 324.758 345.309C324.148 344.043 323.84 342.59 323.832 340.949V340.105C323.832 338.426 324.133 336.949 324.734 335.676C325.344 334.395 326.199 333.414 327.301 332.734C328.41 332.047 329.676 331.703 331.098 331.703C332.52 331.703 333.781 332.047 334.883 332.734C335.992 333.414 336.848 334.395 337.449 335.676C338.059 336.949 338.363 338.422 338.363 340.094V340.855ZM334.801 340.082C334.801 338.293 334.48 336.934 333.84 336.004C333.199 335.074 332.285 334.609 331.098 334.609C329.918 334.609 329.008 335.07 328.367 335.992C327.727 336.906 327.402 338.25 327.395 340.023V340.855C327.395 342.598 327.715 343.949 328.355 344.91C328.996 345.871 329.918 346.352 331.121 346.352C332.301 346.352 333.207 345.891 333.84 344.969C334.473 344.039 334.793 342.688 334.801 340.914V340.082Z" fill="#06ABEB"/>
<path d="M190.994 260.203V268.632C190.994 270.032 190.555 271.14 189.676 271.954C188.803 272.769 187.607 273.176 186.09 273.176C184.596 273.176 183.409 272.78 182.53 271.989C181.651 271.198 181.203 270.111 181.186 268.729V260.203H183.822V268.649C183.822 269.487 184.021 270.1 184.42 270.486C184.824 270.867 185.381 271.058 186.09 271.058C187.572 271.058 188.325 270.278 188.349 268.72V260.203H190.994ZM195.96 273H193.323V260.203H195.96V273ZM202.895 273V260.203H206.832C207.957 260.203 208.962 260.458 209.847 260.968C210.737 261.472 211.432 262.192 211.93 263.13C212.428 264.062 212.677 265.122 212.677 266.312V266.9C212.677 268.09 212.431 269.147 211.938 270.073C211.452 270.999 210.764 271.717 209.873 272.227C208.982 272.736 207.978 272.994 206.858 273H202.895ZM205.531 262.339V270.882H206.806C207.837 270.882 208.625 270.545 209.17 269.871C209.715 269.197 209.993 268.233 210.005 266.979V266.303C210.005 265.002 209.735 264.018 209.196 263.35C208.657 262.676 207.869 262.339 206.832 262.339H205.531ZM218.812 273.176C217.417 273.176 216.28 272.748 215.401 271.893C214.528 271.037 214.092 269.897 214.092 268.474V268.228C214.092 267.272 214.276 266.42 214.646 265.67C215.015 264.914 215.536 264.334 216.21 263.93C216.89 263.52 217.663 263.314 218.53 263.314C219.831 263.314 220.854 263.725 221.598 264.545C222.348 265.365 222.723 266.528 222.723 268.034V269.071H216.667C216.749 269.692 216.995 270.19 217.405 270.565C217.821 270.94 218.346 271.128 218.979 271.128C219.957 271.128 220.722 270.773 221.272 270.064L222.521 271.462C222.14 272.001 221.624 272.423 220.974 272.728C220.323 273.026 219.603 273.176 218.812 273.176ZM218.521 265.371C218.018 265.371 217.607 265.541 217.291 265.881C216.98 266.221 216.781 266.707 216.693 267.34H220.227V267.138C220.215 266.575 220.062 266.142 219.77 265.837C219.477 265.526 219.061 265.371 218.521 265.371ZM227.609 269.897L229.376 263.49H232.03L228.822 273H226.396L223.188 263.49H225.843L227.609 269.897ZM237.409 273.176C236.015 273.176 234.878 272.748 233.999 271.893C233.126 271.037 232.689 269.897 232.689 268.474V268.228C232.689 267.272 232.874 266.42 233.243 265.67C233.612 264.914 234.134 264.334 234.808 263.93C235.487 263.52 236.261 263.314 237.128 263.314C238.429 263.314 239.451 263.725 240.195 264.545C240.945 265.365 241.32 266.528 241.32 268.034V269.071H235.265C235.347 269.692 235.593 270.19 236.003 270.565C236.419 270.94 236.943 271.128 237.576 271.128C238.555 271.128 239.319 270.773 239.87 270.064L241.118 271.462C240.737 272.001 240.222 272.423 239.571 272.728C238.921 273.026 238.2 273.176 237.409 273.176ZM237.119 265.371C236.615 265.371 236.205 265.541 235.889 265.881C235.578 266.221 235.379 266.707 235.291 267.34H238.824V267.138C238.812 266.575 238.66 266.142 238.367 265.837C238.074 265.526 237.658 265.371 237.119 265.371ZM245.451 273H242.902V259.5H245.451V273ZM247.156 268.157C247.156 267.214 247.338 266.373 247.701 265.635C248.064 264.896 248.586 264.325 249.266 263.921C249.951 263.517 250.745 263.314 251.647 263.314C252.931 263.314 253.977 263.707 254.785 264.492C255.6 265.277 256.054 266.344 256.147 267.691L256.165 268.342C256.165 269.801 255.758 270.973 254.943 271.857C254.129 272.736 253.036 273.176 251.665 273.176C250.294 273.176 249.198 272.736 248.378 271.857C247.563 270.979 247.156 269.783 247.156 268.271V268.157ZM249.696 268.342C249.696 269.244 249.866 269.936 250.206 270.416C250.546 270.891 251.032 271.128 251.665 271.128C252.28 271.128 252.761 270.894 253.106 270.425C253.452 269.95 253.625 269.194 253.625 268.157C253.625 267.272 253.452 266.587 253.106 266.101C252.761 265.614 252.274 265.371 251.647 265.371C251.026 265.371 250.546 265.614 250.206 266.101C249.866 266.581 249.696 267.328 249.696 268.342ZM266.29 268.333C266.29 269.798 265.956 270.973 265.288 271.857C264.626 272.736 263.729 273.176 262.599 273.176C261.638 273.176 260.861 272.842 260.27 272.174V276.656H257.729V263.49H260.085L260.173 264.422C260.788 263.684 261.591 263.314 262.581 263.314C263.753 263.314 264.664 263.748 265.314 264.615C265.965 265.482 266.29 266.678 266.29 268.201V268.333ZM263.75 268.148C263.75 267.264 263.592 266.581 263.275 266.101C262.965 265.62 262.511 265.38 261.913 265.38C261.116 265.38 260.568 265.685 260.27 266.294V270.188C260.58 270.814 261.134 271.128 261.931 271.128C263.144 271.128 263.75 270.135 263.75 268.148ZM272.249 273.176C270.854 273.176 269.718 272.748 268.839 271.893C267.966 271.037 267.529 269.897 267.529 268.474V268.228C267.529 267.272 267.714 266.42 268.083 265.67C268.452 264.914 268.974 264.334 269.647 263.93C270.327 263.52 271.101 263.314 271.968 263.314C273.269 263.314 274.291 263.725 275.035 264.545C275.785 265.365 276.16 266.528 276.16 268.034V269.071H270.104C270.187 269.692 270.433 270.19 270.843 270.565C271.259 270.94 271.783 271.128 272.416 271.128C273.395 271.128 274.159 270.773 274.71 270.064L275.958 271.462C275.577 272.001 275.062 272.423 274.411 272.728C273.761 273.026 273.04 273.176 272.249 273.176ZM271.959 265.371C271.455 265.371 271.045 265.541 270.729 265.881C270.418 266.221 270.219 266.707 270.131 267.34H273.664V267.138C273.652 266.575 273.5 266.142 273.207 265.837C272.914 265.526 272.498 265.371 271.959 265.371ZM282.954 265.872C282.608 265.825 282.304 265.802 282.04 265.802C281.079 265.802 280.449 266.127 280.15 266.777V273H277.61V263.49H280.01L280.08 264.624C280.59 263.751 281.296 263.314 282.198 263.314C282.479 263.314 282.743 263.353 282.989 263.429L282.954 265.872ZM284.984 274.099H283.095L287.806 260.203H289.695L284.984 274.099ZM291.084 273V260.203H295.021C296.146 260.203 297.151 260.458 298.036 260.968C298.927 261.472 299.621 262.192 300.119 263.13C300.617 264.062 300.866 265.122 300.866 266.312V266.9C300.866 268.09 300.62 269.147 300.128 270.073C299.642 270.999 298.953 271.717 298.062 272.227C297.172 272.736 296.167 272.994 295.048 273H291.084ZM293.721 262.339V270.882H294.995C296.026 270.882 296.814 270.545 297.359 269.871C297.904 269.197 298.183 268.233 298.194 266.979V266.303C298.194 265.002 297.925 264.018 297.386 263.35C296.847 262.676 296.059 262.339 295.021 262.339H293.721ZM307.001 273.176C305.606 273.176 304.47 272.748 303.591 271.893C302.718 271.037 302.281 269.897 302.281 268.474V268.228C302.281 267.272 302.466 266.42 302.835 265.67C303.204 264.914 303.726 264.334 304.399 263.93C305.079 263.52 305.853 263.314 306.72 263.314C308.021 263.314 309.043 263.725 309.787 264.545C310.537 265.365 310.912 266.528 310.912 268.034V269.071H304.856C304.938 269.692 305.185 270.19 305.595 270.565C306.011 270.94 306.535 271.128 307.168 271.128C308.146 271.128 308.911 270.773 309.462 270.064L310.71 271.462C310.329 272.001 309.813 272.423 309.163 272.728C308.513 273.026 307.792 273.176 307.001 273.176ZM306.711 265.371C306.207 265.371 305.797 265.541 305.48 265.881C305.17 266.221 304.971 266.707 304.883 267.34H308.416V267.138C308.404 266.575 308.252 266.142 307.959 265.837C307.666 265.526 307.25 265.371 306.711 265.371ZM317.513 270.372C317.513 270.062 317.357 269.818 317.047 269.643C316.742 269.461 316.25 269.3 315.57 269.159C313.309 268.685 312.178 267.724 312.178 266.276C312.178 265.433 312.526 264.729 313.224 264.167C313.927 263.599 314.844 263.314 315.975 263.314C317.182 263.314 318.146 263.599 318.866 264.167C319.593 264.735 319.956 265.474 319.956 266.382H317.416C317.416 266.019 317.299 265.72 317.064 265.485C316.83 265.245 316.464 265.125 315.966 265.125C315.538 265.125 315.207 265.222 314.973 265.415C314.738 265.608 314.621 265.854 314.621 266.153C314.621 266.435 314.753 266.663 315.017 266.839C315.286 267.009 315.737 267.158 316.37 267.287C317.003 267.41 317.536 267.551 317.97 267.709C319.312 268.201 319.982 269.054 319.982 270.267C319.982 271.134 319.61 271.837 318.866 272.376C318.122 272.909 317.161 273.176 315.983 273.176C315.187 273.176 314.478 273.035 313.856 272.754C313.241 272.467 312.758 272.077 312.406 271.585C312.055 271.087 311.879 270.551 311.879 269.977H314.287C314.311 270.428 314.478 270.773 314.788 271.014C315.099 271.254 315.515 271.374 316.036 271.374C316.522 271.374 316.889 271.283 317.135 271.102C317.387 270.914 317.513 270.671 317.513 270.372ZM324.307 273H321.758V263.49H324.307V273ZM321.608 261.029C321.608 260.648 321.734 260.335 321.986 260.089C322.244 259.843 322.593 259.72 323.032 259.72C323.466 259.72 323.812 259.843 324.069 260.089C324.327 260.335 324.456 260.648 324.456 261.029C324.456 261.416 324.324 261.732 324.061 261.979C323.803 262.225 323.46 262.348 323.032 262.348C322.604 262.348 322.259 262.225 321.995 261.979C321.737 261.732 321.608 261.416 321.608 261.029ZM328.745 263.49L328.824 264.589C329.504 263.739 330.415 263.314 331.558 263.314C332.565 263.314 333.315 263.61 333.808 264.202C334.3 264.794 334.552 265.679 334.563 266.856V273H332.023V266.918C332.023 266.379 331.906 265.989 331.672 265.749C331.438 265.503 331.048 265.38 330.503 265.38C329.788 265.38 329.252 265.685 328.895 266.294V273H326.354V263.49H328.745ZM340.874 273.176C339.479 273.176 338.343 272.748 337.464 271.893C336.591 271.037 336.154 269.897 336.154 268.474V268.228C336.154 267.272 336.339 266.42 336.708 265.67C337.077 264.914 337.599 264.334 338.272 263.93C338.952 263.52 339.726 263.314 340.593 263.314C341.894 263.314 342.916 263.725 343.66 264.545C344.41 265.365 344.785 266.528 344.785 268.034V269.071H338.729C338.812 269.692 339.058 270.19 339.468 270.565C339.884 270.94 340.408 271.128 341.041 271.128C342.02 271.128 342.784 270.773 343.335 270.064L344.583 271.462C344.202 272.001 343.687 272.423 343.036 272.728C342.386 273.026 341.665 273.176 340.874 273.176ZM340.584 265.371C340.08 265.371 339.67 265.541 339.354 265.881C339.043 266.221 338.844 266.707 338.756 267.34H342.289V267.138C342.277 266.575 342.125 266.142 341.832 265.837C341.539 265.526 341.123 265.371 340.584 265.371ZM351.579 265.872C351.233 265.825 350.929 265.802 350.665 265.802C349.704 265.802 349.074 266.127 348.775 266.777V273H346.235V263.49H348.635L348.705 264.624C349.215 263.751 349.921 263.314 350.823 263.314C351.104 263.314 351.368 263.353 351.614 263.429L351.579 265.872Z" fill="#F9F2F2"/>
</g>
<defs>
<filter id="filter0_d" x="53" y="123.331" width="468" height="364.338" filterUnits="userSpaceOnUse" color-interpolation-filters="sRGB">
<feFlood flood-opacity="0" result="BackgroundImageFix"/>
<feColorMatrix in="SourceAlpha" type="matrix" values="0 0 0 0 0 0 0 0 0 0 0 0 0 0 0 0 0 0 127 0"/>
<feOffset dx="14" dy="7"/>
<feGaussianBlur stdDeviation="2"/>
<feColorMatrix type="matrix" values="0 0 0 0 0 0 0 0 0 0 0 0 0 0 0 0 0 0 0.25 0"/>
<feBlend mode="normal" in2="BackgroundImageFix" result="effect1_dropShadow"/>
<feBlend mode="normal" in="SourceGraphic" in2="effect1_dropShadow" result="shape"/>
</filter>
<filter id="filter1_d" x="53" y="119.331" width="468" height="361.338" filterUnits="userSpaceOnUse" color-interpolation-filters="sRGB">
<feFlood flood-opacity="0" result="BackgroundImageFix"/>
<feColorMatrix in="SourceAlpha" type="matrix" values="0 0 0 0 0 0 0 0 0 0 0 0 0 0 0 0 0 0 127 0"/>
<feOffset dx="14"/>
<feGaussianBlur stdDeviation="2"/>
<feColorMatrix type="matrix" values="0 0 0 0 0 0 0 0 0 0 0 0 0 0 0 0 0 0 0.25 0"/>
<feBlend mode="normal" in2="BackgroundImageFix" result="effect1_dropShadow"/>
<feBlend mode="normal" in="SourceGraphic" in2="effect1_dropShadow" result="shape"/>
</filter>
<clipPath id="clip0">
<rect width="1050" height="600" rx="4" fill="white"/>
</clipPath>
</defs>
</svg>
